{"glyphs":{"0":{"ha":553,"x_min":39,"x_max":514,"o":"m 276 -11 q 112 32 161 -11 q 51 168 63 75 q 39 478 39 261 q 51 788 39 694 q 112 924 63 881 q 276 967 161 967 q 442 924 393 967 q 502 788 490 881 q 514 478 514 696 q 502 168 514 261 q 441 32 490 75 q 276 -11 392 -11 m 276 163 q 314 178 304 163 q 326 252 324 193 q 329 478 329 311 q 326 703 329 644 q 314 778 324 763 q 276 793 304 793 q 239 778 249 793 q 226 703 229 763 q 224 478 224 644 q 226 252 224 311 q 239 178 229 193 q 276 163 249 163 z "},"1":{"ha":385,"x_min":18,"x_max":331,"o":"m 139 0 l 139 733 l 18 685 l 18 865 l 183 956 l 331 956 l 331 0 l 139 0 z "},"2":{"ha":532,"x_min":38,"x_max":494,"o":"m 228 174 l 494 174 l 494 0 l 38 0 l 38 117 q 42 322 38 261 q 63 419 46 382 q 121 483 79 457 l 243 561 q 281 588 269 578 q 298 620 292 599 q 304 683 304 642 q 297 758 304 736 q 269 787 289 781 q 203 793 250 793 q 46 786 146 793 l 46 944 q 143 960 83 954 q 254 967 203 967 q 381 950 332 967 q 463 874 431 933 q 494 696 494 815 q 481 556 494 608 q 446 479 467 504 q 393 435 425 454 l 268 354 q 236 321 243 340 q 229 272 231 307 q 228 186 228 238 l 228 174 z "},"3":{"ha":510,"x_min":18,"x_max":476,"o":"m 229 -11 q 124 -4 183 -11 q 18 13 64 3 l 18 171 q 176 163 106 163 q 247 169 225 163 q 276 199 268 176 q 285 274 285 221 q 277 355 285 329 q 253 389 269 381 q 201 397 236 397 l 85 397 l 85 568 l 201 568 q 249 576 235 568 q 270 608 264 583 q 276 685 276 632 q 269 759 276 738 q 242 787 263 781 q 169 793 221 793 q 19 785 97 793 l 19 943 q 126 960 67 953 q 229 967 185 967 q 363 946 311 967 q 442 871 415 925 q 468 721 468 817 q 441 562 468 617 q 358 490 414 507 l 358 485 q 448 417 419 468 q 476 251 476 365 q 451 96 476 153 q 373 14 426 39 q 229 -11 319 -11 z "},"4":{"ha":546,"x_min":18,"x_max":535,"o":"m 283 0 l 283 183 l 18 183 l 18 333 l 143 956 l 338 956 l 197 357 l 283 357 l 335 589 l 474 589 l 474 357 l 535 357 l 535 183 l 474 183 l 474 0 l 283 0 z "},"5":{"ha":532,"x_min":50,"x_max":504,"o":"m 50 171 q 194 163 129 163 q 274 171 251 163 q 305 206 297 179 q 313 299 313 232 q 306 394 313 368 q 276 429 299 421 q 194 438 253 438 q 54 429 117 438 l 54 956 l 476 956 l 476 782 l 232 782 l 232 603 q 306 611 263 611 q 462 539 419 611 q 504 319 504 467 q 484 122 504 192 q 412 20 464 51 q 260 -11 360 -11 q 155 -4 214 -11 q 50 13 96 3 l 50 171 z "},"6":{"ha":543,"x_min":39,"x_max":514,"o":"m 281 -11 q 169 2 211 -11 q 100 53 128 15 q 56 167 72 92 q 39 478 39 244 q 68 806 39 717 q 155 931 99 896 q 311 967 211 967 q 398 959 349 967 q 490 939 447 951 l 490 781 q 346 793 406 793 q 263 777 286 793 q 232 713 239 761 q 225 544 225 665 l 239 544 q 276 591 247 571 q 353 611 306 611 q 444 592 411 611 q 496 512 478 574 q 514 325 514 450 q 494 122 514 193 q 425 19 475 50 q 281 -11 375 -11 m 278 160 q 313 168 303 160 q 326 204 322 176 q 331 300 331 232 q 326 396 331 368 q 313 431 322 424 q 278 438 303 438 q 242 430 253 438 q 228 397 232 422 q 225 307 225 371 q 229 206 225 236 q 244 168 233 176 q 278 160 254 160 z "},"7":{"ha":497,"x_min":22,"x_max":486,"o":"m 60 0 l 289 782 l 22 782 l 22 956 l 486 956 l 486 804 l 258 0 l 60 0 z "},"8":{"ha":561,"x_min":33,"x_max":528,"o":"m 281 -11 q 138 14 192 -11 q 59 96 85 39 q 33 251 33 153 q 62 417 33 367 q 151 485 90 468 l 151 490 q 69 563 96 508 q 42 721 42 617 q 68 871 42 817 q 147 946 94 925 q 281 967 199 967 q 414 946 363 967 q 492 871 465 925 q 518 721 518 817 q 492 563 518 617 q 408 490 465 508 l 408 485 q 499 417 471 468 q 528 251 528 365 q 502 96 528 153 q 423 14 476 39 q 281 -11 369 -11 m 281 563 q 317 569 307 563 q 330 599 326 576 q 333 682 333 622 q 330 764 333 740 q 317 794 326 788 q 281 801 307 801 q 244 794 254 801 q 231 764 235 788 q 228 682 228 740 q 231 599 228 622 q 244 569 235 576 q 281 563 254 563 m 281 154 q 316 162 306 154 q 330 194 326 169 q 333 278 333 218 q 330 363 333 339 q 316 396 326 388 q 281 404 306 404 q 244 396 254 404 q 230 363 233 388 q 226 278 226 338 q 230 194 226 218 q 244 162 233 169 q 281 154 254 154 z "},"9":{"ha":543,"x_min":29,"x_max":504,"o":"m 232 -11 q 142 -3 192 -11 q 53 17 93 4 l 53 175 q 197 163 133 163 q 281 178 257 163 q 311 242 304 194 q 318 411 318 290 l 307 411 q 264 363 294 382 q 190 344 233 344 q 99 363 132 344 q 47 444 65 382 q 29 631 29 506 q 49 834 29 763 q 118 936 68 906 q 263 967 168 967 q 372 955 331 967 q 440 909 413 943 q 482 810 467 875 q 504 478 504 717 q 472 146 504 242 q 389 24 444 60 q 232 -11 333 -11 m 265 518 q 301 526 290 518 q 315 559 311 533 q 318 649 318 585 q 314 749 318 719 q 299 788 310 779 q 265 796 289 796 q 231 788 240 796 q 217 751 221 779 q 213 656 213 724 q 217 560 213 588 q 231 525 221 532 q 265 518 240 518 z "},"\u0000":{"ha":0,"x_min":0,"x_max":0,"o":""},"\r":{"ha":201,"x_min":0,"x_max":0,"o":""}," ":{"ha":201,"x_min":0,"x_max":0,"o":""},"A":{"ha":590,"x_min":8,"x_max":582,"o":"m 389 0 l 365 190 l 222 190 l 199 0 l 8 0 l 151 956 l 439 956 l 582 0 l 389 0 m 299 768 l 289 768 l 240 358 l 347 358 l 299 768 z "},"Á":{"ha":590,"x_min":8,"x_max":582,"o":"m 389 0 l 365 190 l 222 190 l 199 0 l 8 0 l 151 956 l 439 956 l 582 0 l 389 0 m 299 768 l 289 768 l 240 358 l 347 358 l 299 768 m 213 1042 l 213 1049 l 263 1246 l 438 1246 l 438 1239 l 360 1042 l 213 1042 z "},"Ă":{"ha":590,"x_min":8,"x_max":582,"o":"m 389 0 l 365 190 l 222 190 l 199 0 l 8 0 l 151 956 l 439 956 l 582 0 l 389 0 m 299 768 l 289 768 l 240 358 l 347 358 l 299 768 m 467 1233 q 454 1135 467 1174 q 404 1074 442 1096 q 294 1051 367 1051 q 186 1074 224 1051 q 136 1135 149 1096 q 124 1233 124 1174 l 236 1233 q 246 1174 236 1192 q 294 1157 256 1157 q 345 1175 335 1157 q 356 1233 356 1193 l 467 1233 z "},"Ắ":{"ha":590,"x_min":8,"x_max":582,"o":"m 389 0 l 365 190 l 222 190 l 199 0 l 8 0 l 151 956 l 439 956 l 582 0 l 389 0 m 299 768 l 289 768 l 240 358 l 347 358 l 299 768 m 467 1233 q 454 1135 467 1174 q 404 1074 442 1096 q 294 1051 367 1051 q 186 1074 224 1051 q 136 1135 149 1096 q 124 1233 124 1174 l 236 1233 q 246 1174 236 1192 q 294 1157 256 1157 q 345 1175 335 1157 q 356 1233 356 1193 l 467 1233 m 215 1269 l 215 1276 l 265 1474 l 440 1474 l 440 1467 l 363 1269 l 215 1269 z "},"Ặ":{"ha":590,"x_min":8,"x_max":582,"o":"m 389 0 l 365 190 l 222 190 l 199 0 l 8 0 l 151 956 l 439 956 l 582 0 l 389 0 m 299 768 l 289 768 l 240 358 l 347 358 l 299 768 m 197 -271 l 197 -86 l 392 -86 l 392 -271 l 197 -271 m 467 1233 q 454 1135 467 1174 q 404 1074 442 1096 q 294 1051 367 1051 q 186 1074 224 1051 q 136 1135 149 1096 q 124 1233 124 1174 l 236 1233 q 246 1174 236 1192 q 294 1157 256 1157 q 345 1175 335 1157 q 356 1233 356 1193 l 467 1233 z "},"Ằ":{"ha":590,"x_min":8,"x_max":582,"o":"m 389 0 l 365 190 l 222 190 l 199 0 l 8 0 l 151 956 l 439 956 l 582 0 l 389 0 m 299 768 l 289 768 l 240 358 l 347 358 l 299 768 m 467 1233 q 454 1135 467 1174 q 404 1074 442 1096 q 294 1051 367 1051 q 186 1074 224 1051 q 136 1135 149 1096 q 124 1233 124 1174 l 236 1233 q 246 1174 236 1192 q 294 1157 256 1157 q 345 1175 335 1157 q 356 1233 356 1193 l 467 1233 m 222 1269 l 144 1467 l 144 1474 l 319 1474 l 369 1276 l 369 1269 l 222 1269 z "},"Ẳ":{"ha":590,"x_min":8,"x_max":582,"o":"m 389 0 l 365 190 l 222 190 l 199 0 l 8 0 l 151 956 l 439 956 l 582 0 l 389 0 m 299 768 l 289 768 l 240 358 l 347 358 l 299 768 m 453 1233 q 440 1135 453 1174 q 390 1074 428 1096 q 281 1051 353 1051 q 172 1074 210 1051 q 122 1135 135 1096 q 110 1233 110 1174 l 222 1233 q 232 1174 222 1192 q 281 1157 242 1157 q 331 1175 321 1157 q 342 1233 342 1193 l 453 1233 m 222 1278 q 232 1322 222 1307 q 268 1346 242 1338 l 282 1351 q 336 1373 324 1365 q 349 1396 349 1381 q 338 1413 349 1410 q 294 1417 328 1417 q 158 1415 206 1417 l 158 1515 q 315 1535 256 1535 q 438 1513 396 1535 q 479 1425 479 1492 q 476 1369 479 1389 q 458 1335 472 1350 q 414 1308 444 1321 l 399 1301 q 353 1281 365 1288 q 339 1267 342 1275 q 336 1242 336 1260 l 222 1242 l 222 1278 z "},"Ẵ":{"ha":590,"x_min":8,"x_max":582,"o":"m 389 0 l 365 190 l 222 190 l 199 0 l 8 0 l 151 956 l 439 956 l 582 0 l 389 0 m 299 768 l 289 768 l 240 358 l 347 358 l 299 768 m 464 1233 q 451 1135 464 1174 q 401 1074 439 1096 q 292 1051 364 1051 q 183 1074 221 1051 q 133 1135 146 1096 q 121 1233 121 1174 l 233 1233 q 243 1174 233 1192 q 292 1157 253 1157 q 342 1175 332 1157 q 353 1233 353 1193 l 464 1233 m 490 1474 q 485 1368 490 1403 q 460 1313 481 1333 q 394 1293 440 1293 q 288 1314 356 1293 q 259 1323 278 1317 q 228 1329 240 1329 q 211 1319 214 1329 q 208 1278 208 1308 l 100 1278 q 106 1383 100 1347 q 132 1438 111 1418 q 199 1457 153 1457 q 304 1436 239 1457 q 364 1424 349 1424 q 381 1433 378 1424 q 383 1474 383 1443 l 490 1474 z "},"Ǎ":{"ha":590,"x_min":8,"x_max":582,"o":"m 389 0 l 365 190 l 222 190 l 199 0 l 8 0 l 151 956 l 439 956 l 582 0 l 389 0 m 299 768 l 289 768 l 240 358 l 347 358 l 299 768 m 206 1060 l 113 1222 l 113 1233 l 236 1233 l 294 1146 l 354 1233 l 478 1233 l 478 1222 l 383 1060 l 206 1060 z "},"Â":{"ha":590,"x_min":8,"x_max":582,"o":"m 389 0 l 365 190 l 222 190 l 199 0 l 8 0 l 151 956 l 439 956 l 582 0 l 389 0 m 299 768 l 289 768 l 240 358 l 347 358 l 299 768 m 111 1042 l 111 1053 l 204 1215 l 382 1215 l 476 1053 l 476 1042 l 353 1042 l 293 1129 l 235 1042 l 111 1042 z "},"Ấ":{"ha":590,"x_min":8,"x_max":582,"o":"m 389 0 l 365 190 l 222 190 l 199 0 l 8 0 l 151 956 l 439 956 l 582 0 l 389 0 m 299 768 l 289 768 l 240 358 l 347 358 l 299 768 m 114 1008 l 114 1019 l 207 1182 l 385 1182 l 479 1019 l 479 1008 l 356 1008 l 296 1096 l 238 1008 l 114 1008 m 333 1213 l 333 1219 l 383 1417 l 558 1417 l 558 1410 l 481 1213 l 333 1213 z "},"Ậ":{"ha":590,"x_min":8,"x_max":582,"o":"m 389 0 l 365 190 l 222 190 l 199 0 l 8 0 l 151 956 l 439 956 l 582 0 l 389 0 m 299 768 l 289 768 l 240 358 l 347 358 l 299 768 m 197 -271 l 197 -86 l 392 -86 l 392 -271 l 197 -271 m 113 1060 l 113 1071 l 206 1233 l 383 1233 l 478 1071 l 478 1060 l 354 1060 l 294 1147 l 236 1060 l 113 1060 z "},"Ầ":{"ha":590,"x_min":8,"x_max":582,"o":"m 389 0 l 365 190 l 222 190 l 199 0 l 8 0 l 151 956 l 439 956 l 582 0 l 389 0 m 299 768 l 289 768 l 240 358 l 347 358 l 299 768 m 99 1008 l 99 1019 l 192 1182 l 369 1182 l 464 1019 l 464 1008 l 340 1008 l 281 1096 l 222 1008 l 99 1008 m 344 1211 l 267 1408 l 267 1415 l 442 1415 l 492 1218 l 492 1211 l 344 1211 z "},"Ẩ":{"ha":590,"x_min":8,"x_max":626,"o":"m 389 0 l 365 190 l 222 190 l 199 0 l 8 0 l 151 956 l 439 956 l 582 0 l 389 0 m 299 768 l 289 768 l 240 358 l 347 358 l 299 768 m 113 1010 l 113 1021 l 206 1183 l 383 1183 l 478 1021 l 478 1010 l 354 1010 l 294 1097 l 236 1010 l 113 1010 m 369 1243 q 379 1288 369 1272 q 415 1311 389 1303 l 429 1317 q 483 1338 471 1331 q 496 1361 496 1346 q 485 1378 496 1375 q 442 1382 475 1382 q 306 1381 353 1382 l 306 1481 q 463 1500 403 1500 q 585 1478 543 1500 q 626 1390 626 1457 q 623 1335 626 1354 q 606 1301 619 1315 q 561 1274 592 1286 l 546 1267 q 501 1247 513 1253 q 486 1233 489 1240 q 483 1207 483 1225 l 369 1207 l 369 1243 z "},"Ẫ":{"ha":590,"x_min":8,"x_max":582,"o":"m 389 0 l 365 190 l 222 190 l 199 0 l 8 0 l 151 956 l 439 956 l 582 0 l 389 0 m 299 768 l 289 768 l 240 358 l 347 358 l 299 768 m 110 1008 l 110 1019 l 203 1182 l 381 1182 l 475 1019 l 475 1008 l 351 1008 l 292 1096 l 233 1008 l 110 1008 m 490 1422 q 485 1317 490 1351 q 460 1262 481 1282 q 394 1242 440 1242 q 288 1263 356 1242 q 259 1272 278 1265 q 228 1278 240 1278 q 211 1267 214 1278 q 208 1226 208 1257 l 100 1226 q 106 1331 100 1296 q 132 1386 111 1367 q 199 1406 153 1406 q 304 1385 239 1406 q 364 1372 349 1372 q 381 1382 378 1372 q 383 1422 383 1392 l 490 1422 z "},"Ȁ":{"ha":590,"x_min":8,"x_max":582,"o":"m 389 0 l 365 190 l 222 190 l 199 0 l 8 0 l 151 956 l 439 956 l 582 0 l 389 0 m 299 768 l 289 768 l 240 358 l 347 358 l 299 768 m 267 1051 l 146 1051 l 85 1207 l 85 1213 l 228 1213 l 267 1057 l 267 1051 m 444 1051 l 324 1051 l 263 1207 l 263 1213 l 406 1213 l 444 1057 l 444 1051 z "},"Ä":{"ha":590,"x_min":8,"x_max":582,"o":"m 389 0 l 365 190 l 222 190 l 199 0 l 8 0 l 151 956 l 439 956 l 582 0 l 389 0 m 299 768 l 289 768 l 240 358 l 347 358 l 299 768 m 106 1078 l 106 1222 l 260 1222 l 260 1078 l 106 1078 m 332 1078 l 332 1222 l 486 1222 l 486 1078 l 332 1078 z "},"Ạ":{"ha":590,"x_min":8,"x_max":582,"o":"m 389 0 l 365 190 l 222 190 l 199 0 l 8 0 l 151 956 l 439 956 l 582 0 l 389 0 m 299 768 l 289 768 l 240 358 l 347 358 l 299 768 m 197 -271 l 197 -86 l 392 -86 l 392 -271 l 197 -271 z "},"À":{"ha":590,"x_min":8,"x_max":582,"o":"m 389 0 l 365 190 l 222 190 l 199 0 l 8 0 l 151 956 l 439 956 l 582 0 l 389 0 m 299 768 l 289 768 l 240 358 l 347 358 l 299 768 m 228 1040 l 150 1238 l 150 1244 l 325 1244 l 375 1047 l 375 1040 l 228 1040 z "},"Ả":{"ha":590,"x_min":8,"x_max":582,"o":"m 389 0 l 365 190 l 222 190 l 199 0 l 8 0 l 151 956 l 439 956 l 582 0 l 389 0 m 299 768 l 289 768 l 240 358 l 347 358 l 299 768 m 199 1051 q 209 1096 199 1081 q 244 1119 219 1111 l 258 1124 q 313 1145 300 1138 q 325 1168 325 1153 q 315 1186 325 1183 q 271 1189 306 1189 q 135 1188 182 1189 l 135 1288 q 292 1307 219 1307 q 414 1285 372 1307 q 456 1199 456 1264 q 452 1143 456 1163 q 435 1109 449 1124 q 390 1081 421 1094 l 375 1074 q 329 1053 340 1060 q 315 1040 318 1047 q 313 1015 313 1033 l 199 1015 l 199 1051 z "},"Ȃ":{"ha":590,"x_min":8,"x_max":582,"o":"m 389 0 l 365 190 l 222 190 l 199 0 l 8 0 l 151 956 l 439 956 l 582 0 l 389 0 m 299 768 l 289 768 l 240 358 l 347 358 l 299 768 m 125 1060 q 138 1158 125 1119 q 188 1219 150 1197 q 297 1242 225 1242 q 406 1219 368 1242 q 456 1158 443 1197 q 468 1060 468 1119 l 356 1060 q 346 1119 356 1101 q 297 1136 336 1136 q 247 1118 257 1136 q 236 1060 236 1100 l 125 1060 z "},"Ā":{"ha":590,"x_min":8,"x_max":582,"o":"m 389 0 l 365 190 l 222 190 l 199 0 l 8 0 l 151 956 l 439 956 l 582 0 l 389 0 m 299 768 l 289 768 l 240 358 l 347 358 l 299 768 m 174 1069 l 174 1233 l 418 1233 l 418 1069 l 174 1069 z "},"Ą":{"ha":590,"x_min":8,"x_max":582,"o":"m 454 -119 q 465 -158 454 -144 q 503 -172 475 -172 l 518 -171 l 518 -267 q 450 -272 485 -272 q 349 -238 381 -272 q 318 -150 318 -204 q 338 -72 318 -112 q 389 3 357 -31 l 365 190 l 222 190 l 199 0 l 8 0 l 151 956 l 439 956 l 582 0 l 511 0 q 472 -56 490 -22 q 454 -119 454 -90 m 240 358 l 347 358 l 299 768 l 289 768 l 240 358 z "},"Å":{"ha":590,"x_min":8,"x_max":582,"o":"m 582 0 l 389 0 l 365 190 l 222 190 l 199 0 l 8 0 l 151 950 q 131 991 135 967 q 126 1061 126 1015 q 135 1150 126 1121 q 181 1195 144 1179 q 296 1211 217 1211 q 410 1195 375 1211 q 455 1150 446 1179 q 464 1061 464 1121 q 459 993 464 1018 q 440 951 454 968 l 582 0 m 296 1006 q 331 1010 321 1006 q 344 1026 342 1015 q 347 1061 347 1036 q 344 1098 347 1088 q 331 1113 342 1108 q 296 1118 321 1118 q 260 1113 271 1118 q 247 1098 250 1108 q 244 1061 244 1088 q 247 1026 244 1036 q 260 1010 250 1015 q 296 1006 271 1006 m 240 358 l 347 358 l 299 768 l 289 768 l 240 358 z "},"Ǻ":{"ha":590,"x_min":8,"x_max":582,"o":"m 582 0 l 389 0 l 365 190 l 222 190 l 199 0 l 8 0 l 151 950 q 131 991 135 967 q 126 1061 126 1015 q 135 1150 126 1121 q 181 1195 144 1179 q 296 1211 217 1211 q 410 1195 375 1211 q 455 1150 446 1179 q 464 1061 464 1121 q 459 993 464 1018 q 440 951 454 968 l 582 0 m 296 1006 q 331 1010 321 1006 q 344 1026 342 1015 q 347 1061 347 1036 q 344 1098 347 1088 q 331 1113 342 1108 q 296 1118 321 1118 q 260 1113 271 1118 q 247 1098 250 1108 q 244 1061 244 1088 q 247 1026 244 1036 q 260 1010 250 1015 q 296 1006 271 1006 m 240 358 l 347 358 l 299 768 l 289 768 l 240 358 m 228 1285 l 228 1292 l 278 1489 l 453 1489 l 453 1482 l 375 1285 l 228 1285 z "},"Ã":{"ha":590,"x_min":8,"x_max":582,"o":"m 389 0 l 365 190 l 222 190 l 199 0 l 8 0 l 151 956 l 439 956 l 582 0 l 389 0 m 299 768 l 289 768 l 240 358 l 347 358 l 299 768 m 490 1238 q 485 1132 490 1167 q 460 1077 481 1097 q 394 1057 440 1057 q 288 1078 356 1057 q 259 1087 278 1081 q 228 1093 240 1093 q 211 1083 214 1093 q 208 1042 208 1072 l 100 1042 q 106 1147 100 1111 q 132 1201 111 1182 q 199 1221 153 1221 q 304 1200 239 1221 q 364 1188 349 1188 q 381 1197 378 1188 q 383 1238 383 1207 l 490 1238 z "},"Æ":{"ha":772,"x_min":-18,"x_max":735,"o":"m 368 0 l 351 190 l 204 190 l 172 0 l -18 0 l 165 956 l 735 956 l 735 782 l 483 782 l 506 569 l 711 569 l 711 396 l 521 396 l 546 172 l 735 172 l 735 0 l 368 0 m 304 768 l 296 768 l 228 358 l 339 358 l 304 768 z "},"Ǽ":{"ha":772,"x_min":-18,"x_max":735,"o":"m 368 0 l 351 190 l 204 190 l 172 0 l -18 0 l 165 956 l 735 956 l 735 782 l 483 782 l 506 569 l 711 569 l 711 396 l 521 396 l 546 172 l 735 172 l 735 0 l 368 0 m 304 768 l 296 768 l 228 358 l 339 358 l 304 768 m 318 1029 l 318 1036 l 368 1233 l 543 1233 l 543 1226 l 465 1029 l 318 1029 z "},"B":{"ha":568,"x_min":54,"x_max":540,"o":"m 54 956 l 325 956 q 532 715 532 956 q 505 560 532 614 q 421 490 478 507 l 421 485 q 512 418 483 468 q 540 256 540 368 q 490 64 540 128 q 326 0 439 0 l 54 0 l 54 956 m 285 567 q 325 574 313 567 q 343 604 338 582 q 349 675 349 626 q 344 747 349 725 q 327 775 340 768 q 285 782 314 782 l 242 782 l 242 567 l 285 567 m 285 172 q 328 180 315 172 q 344 210 340 188 q 349 286 349 232 q 343 360 349 338 q 325 391 338 383 q 285 399 313 399 l 242 399 l 242 172 l 285 172 z "},"C":{"ha":449,"x_min":39,"x_max":419,"o":"m 419 14 q 359 -4 396 3 q 289 -11 322 -11 q 125 33 178 -11 q 56 177 72 78 q 39 478 39 276 q 57 778 39 678 q 127 922 75 878 q 289 967 179 967 q 363 960 326 967 q 417 946 400 954 l 417 786 q 324 793 365 793 q 258 775 275 793 q 235 698 240 757 q 231 478 231 639 q 235 258 231 317 q 258 181 240 199 q 324 163 275 163 q 419 169 378 163 l 419 14 z "},"Ć":{"ha":449,"x_min":39,"x_max":419,"o":"m 419 14 q 359 -4 396 3 q 289 -11 322 -11 q 125 33 178 -11 q 56 177 72 78 q 39 478 39 276 q 57 778 39 678 q 127 922 75 878 q 289 967 179 967 q 363 960 326 967 q 417 946 400 954 l 417 786 q 324 793 365 793 q 258 775 275 793 q 235 698 240 757 q 231 478 231 639 q 235 258 231 317 q 258 181 240 199 q 324 163 275 163 q 419 169 378 163 l 419 14 m 157 1029 l 157 1036 l 207 1233 l 382 1233 l 382 1226 l 304 1029 l 157 1029 z "},"Č":{"ha":449,"x_min":39,"x_max":419,"o":"m 419 14 q 359 -4 396 3 q 289 -11 322 -11 q 125 33 178 -11 q 56 177 72 78 q 39 478 39 276 q 57 778 39 678 q 127 922 75 878 q 289 967 179 967 q 363 960 326 967 q 417 946 400 954 l 417 786 q 324 793 365 793 q 258 775 275 793 q 235 698 240 757 q 231 478 231 639 q 235 258 231 317 q 258 181 240 199 q 324 163 275 163 q 419 169 378 163 l 419 14 m 135 1060 l 42 1222 l 42 1233 l 165 1233 l 224 1146 l 283 1233 l 407 1233 l 407 1222 l 313 1060 l 135 1060 z "},"Ç":{"ha":449,"x_min":39,"x_max":419,"o":"m 324 163 q 419 169 378 163 l 419 14 q 359 -4 396 3 q 289 -11 322 -11 l 282 -11 l 236 -261 l 85 -261 l 85 -254 l 169 7 q 86 83 114 29 q 49 228 58 138 q 39 478 39 319 q 57 778 39 678 q 127 922 75 878 q 289 967 179 967 q 363 960 326 967 q 417 946 400 954 l 417 786 q 324 793 365 793 q 258 775 275 793 q 235 698 240 757 q 231 478 231 639 q 235 258 231 317 q 258 181 240 199 q 324 163 275 163 z "},"Ĉ":{"ha":449,"x_min":39,"x_max":419,"o":"m 419 14 q 359 -4 396 3 q 289 -11 322 -11 q 125 33 178 -11 q 56 177 72 78 q 39 478 39 276 q 57 778 39 678 q 127 922 75 878 q 289 967 179 967 q 363 960 326 967 q 417 946 400 954 l 417 786 q 324 793 365 793 q 258 775 275 793 q 235 698 240 757 q 231 478 231 639 q 235 258 231 317 q 258 181 240 199 q 324 163 275 163 q 419 169 378 163 l 419 14 m 42 1060 l 42 1071 l 135 1233 l 313 1233 l 407 1071 l 407 1060 l 283 1060 l 224 1147 l 165 1060 l 42 1060 z "},"Ċ":{"ha":449,"x_min":39,"x_max":419,"o":"m 419 14 q 359 -4 396 3 q 289 -11 322 -11 q 125 33 178 -11 q 56 177 72 78 q 39 478 39 276 q 57 778 39 678 q 127 922 75 878 q 289 967 179 967 q 363 960 326 967 q 417 946 400 954 l 417 786 q 324 793 365 793 q 258 775 275 793 q 235 698 240 757 q 231 478 231 639 q 235 258 231 317 q 258 181 240 199 q 324 163 275 163 q 419 169 378 163 l 419 14 m 147 1071 l 147 1215 l 301 1215 l 301 1071 l 147 1071 z "},"D":{"ha":578,"x_min":54,"x_max":539,"o":"m 54 956 l 286 956 q 462 913 410 956 q 526 781 514 871 q 539 478 539 690 q 526 175 539 265 q 462 42 514 85 q 286 0 410 0 l 54 0 l 54 956 m 286 174 q 331 188 319 174 q 347 260 343 201 q 350 478 350 318 q 347 696 350 638 q 331 768 343 754 q 286 782 319 782 l 243 782 l 243 174 l 286 174 z "},"Ǳ":{"ha":1088,"x_min":54,"x_max":1051,"o":"m 54 956 l 286 956 q 462 913 410 956 q 526 781 514 871 q 539 478 539 690 q 526 175 539 265 q 462 42 514 85 q 286 0 410 0 l 54 0 l 54 956 m 286 174 q 331 188 319 174 q 347 260 343 201 q 350 478 350 318 q 347 696 350 638 q 331 768 343 754 q 286 782 319 782 l 243 782 l 243 174 l 286 174 m 611 0 l 611 161 l 847 782 l 619 782 l 619 956 l 1051 956 l 1051 794 l 815 172 l 1051 172 l 1051 0 l 611 0 z "},"Ǆ":{"ha":1088,"x_min":54,"x_max":1051,"o":"m 54 956 l 286 956 q 462 913 410 956 q 526 781 514 871 q 539 478 539 690 q 526 175 539 265 q 462 42 514 85 q 286 0 410 0 l 54 0 l 54 956 m 286 174 q 331 188 319 174 q 347 260 343 201 q 350 478 350 318 q 347 696 350 638 q 331 768 343 754 q 286 782 319 782 l 243 782 l 243 174 l 286 174 m 611 0 l 611 161 l 847 782 l 619 782 l 619 956 l 1051 956 l 1051 794 l 815 172 l 1051 172 l 1051 0 l 611 0 m 756 1060 l 663 1222 l 663 1233 l 786 1233 l 844 1146 l 904 1233 l 1028 1233 l 1028 1222 l 933 1060 l 756 1060 z "},"Ð":{"ha":581,"x_min":1,"x_max":539,"o":"m 54 396 l 1 396 l 1 569 l 54 569 l 54 956 l 286 956 q 462 913 410 956 q 526 781 514 871 q 539 478 539 690 q 526 175 539 265 q 462 42 514 85 q 286 0 410 0 l 54 0 l 54 396 m 286 174 q 331 188 319 174 q 347 260 343 201 q 350 478 350 318 q 347 696 350 638 q 331 768 343 754 q 286 782 319 782 l 243 782 l 243 569 l 306 569 l 306 396 l 243 396 l 243 174 l 286 174 z "},"Ď":{"ha":578,"x_min":54,"x_max":539,"o":"m 54 956 l 286 956 q 462 913 410 956 q 526 781 514 871 q 539 478 539 690 q 526 175 539 265 q 462 42 514 85 q 286 0 410 0 l 54 0 l 54 956 m 286 174 q 331 188 319 174 q 347 260 343 201 q 350 478 350 318 q 347 696 350 638 q 331 768 343 754 q 286 782 319 782 l 243 782 l 243 174 l 286 174 m 199 1060 l 106 1222 l 106 1233 l 229 1233 l 288 1146 l 347 1233 l 471 1233 l 471 1222 l 376 1060 l 199 1060 z "},"Đ":{"ha":581,"x_min":1,"x_max":539,"o":"m 54 396 l 1 396 l 1 569 l 54 569 l 54 956 l 286 956 q 462 913 410 956 q 526 781 514 871 q 539 478 539 690 q 526 175 539 265 q 462 42 514 85 q 286 0 410 0 l 54 0 l 54 396 m 286 174 q 331 188 319 174 q 347 260 343 201 q 350 478 350 318 q 347 696 350 638 q 331 768 343 754 q 286 782 319 782 l 243 782 l 243 569 l 306 569 l 306 396 l 243 396 l 243 174 l 286 174 z "},"Ḍ":{"ha":578,"x_min":54,"x_max":539,"o":"m 54 956 l 286 956 q 462 913 410 956 q 526 781 514 871 q 539 478 539 690 q 526 175 539 265 q 462 42 514 85 q 286 0 410 0 l 54 0 l 54 956 m 286 174 q 331 188 319 174 q 347 260 343 201 q 350 478 350 318 q 347 696 350 638 q 331 768 343 754 q 286 782 319 782 l 243 782 l 243 174 l 286 174 m 190 -271 l 190 -86 l 385 -86 l 385 -271 l 190 -271 z "},"ǲ":{"ha":1053,"x_min":54,"x_max":1017,"o":"m 54 956 l 286 956 q 462 913 410 956 q 526 781 514 871 q 539 478 539 690 q 526 175 539 265 q 462 42 514 85 q 286 0 410 0 l 54 0 l 54 956 m 286 174 q 331 188 319 174 q 347 260 343 201 q 350 478 350 318 q 347 696 350 638 q 331 768 343 754 q 286 782 319 782 l 243 782 l 243 174 l 286 174 m 613 0 l 613 140 l 815 556 l 619 556 l 619 708 l 1015 708 l 1015 568 l 814 153 l 1017 153 l 1017 0 l 613 0 z "},"ǅ":{"ha":1053,"x_min":54,"x_max":1017,"o":"m 54 956 l 286 956 q 462 913 410 956 q 526 781 514 871 q 539 478 539 690 q 526 175 539 265 q 462 42 514 85 q 286 0 410 0 l 54 0 l 54 956 m 286 174 q 331 188 319 174 q 347 260 343 201 q 350 478 350 318 q 347 696 350 638 q 331 768 343 754 q 286 782 319 782 l 243 782 l 243 174 l 286 174 m 613 0 l 613 140 l 815 556 l 619 556 l 619 708 l 1015 708 l 1015 568 l 814 153 l 1017 153 l 1017 0 l 613 0 m 726 858 l 633 1021 l 633 1032 l 757 1032 l 815 944 l 875 1032 l 999 1032 l 999 1021 l 904 858 l 726 858 z "},"E":{"ha":475,"x_min":54,"x_max":438,"o":"m 54 0 l 54 956 l 438 956 l 438 782 l 244 782 l 244 569 l 414 569 l 414 396 l 244 396 l 244 174 l 438 174 l 438 0 l 54 0 z "},"É":{"ha":475,"x_min":54,"x_max":438,"o":"m 54 0 l 54 956 l 438 956 l 438 782 l 244 782 l 244 569 l 414 569 l 414 396 l 244 396 l 244 174 l 438 174 l 438 0 l 54 0 m 172 1042 l 172 1049 l 222 1246 l 397 1246 l 397 1239 l 319 1042 l 172 1042 z "},"Ĕ":{"ha":475,"x_min":54,"x_max":438,"o":"m 54 0 l 54 956 l 438 956 l 438 782 l 244 782 l 244 569 l 414 569 l 414 396 l 244 396 l 244 174 l 438 174 l 438 0 l 54 0 m 417 1233 q 404 1135 417 1174 q 354 1074 392 1096 q 244 1051 317 1051 q 136 1074 174 1051 q 86 1135 99 1096 q 74 1233 74 1174 l 186 1233 q 196 1174 186 1192 q 244 1157 206 1157 q 295 1175 285 1157 q 306 1233 306 1193 l 417 1233 z "},"Ě":{"ha":475,"x_min":54,"x_max":438,"o":"m 54 0 l 54 956 l 438 956 l 438 782 l 244 782 l 244 569 l 414 569 l 414 396 l 244 396 l 244 174 l 438 174 l 438 0 l 54 0 m 156 1060 l 63 1222 l 63 1233 l 186 1233 l 244 1146 l 304 1233 l 428 1233 l 428 1222 l 333 1060 l 156 1060 z "},"Ê":{"ha":475,"x_min":54,"x_max":438,"o":"m 54 0 l 54 956 l 438 956 l 438 782 l 244 782 l 244 569 l 414 569 l 414 396 l 244 396 l 244 174 l 438 174 l 438 0 l 54 0 m 64 1042 l 64 1053 l 157 1215 l 335 1215 l 429 1053 l 429 1042 l 306 1042 l 246 1129 l 188 1042 l 64 1042 z "},"Ế":{"ha":475,"x_min":54,"x_max":508,"o":"m 54 0 l 54 956 l 438 956 l 438 782 l 244 782 l 244 569 l 414 569 l 414 396 l 244 396 l 244 174 l 438 174 l 438 0 l 54 0 m 64 1008 l 64 1019 l 157 1182 l 335 1182 l 429 1019 l 429 1008 l 306 1008 l 246 1096 l 188 1008 l 64 1008 m 283 1213 l 283 1219 l 333 1417 l 508 1417 l 508 1410 l 431 1213 l 283 1213 z "},"Ệ":{"ha":475,"x_min":54,"x_max":438,"o":"m 54 0 l 54 956 l 438 956 l 438 782 l 244 782 l 244 569 l 414 569 l 414 396 l 244 396 l 244 174 l 438 174 l 438 0 l 54 0 m 147 -271 l 147 -86 l 342 -86 l 342 -271 l 147 -271 m 63 1060 l 63 1071 l 156 1233 l 333 1233 l 428 1071 l 428 1060 l 304 1060 l 244 1147 l 186 1060 l 63 1060 z "},"Ề":{"ha":475,"x_min":49,"x_max":442,"o":"m 54 0 l 54 956 l 438 956 l 438 782 l 244 782 l 244 569 l 414 569 l 414 396 l 244 396 l 244 174 l 438 174 l 438 0 l 54 0 m 49 1008 l 49 1019 l 142 1182 l 319 1182 l 414 1019 l 414 1008 l 290 1008 l 231 1096 l 172 1008 l 49 1008 m 294 1211 l 217 1408 l 217 1415 l 392 1415 l 442 1218 l 442 1211 l 294 1211 z "},"Ể":{"ha":475,"x_min":54,"x_max":576,"o":"m 54 0 l 54 956 l 438 956 l 438 782 l 244 782 l 244 569 l 414 569 l 414 396 l 244 396 l 244 174 l 438 174 l 438 0 l 54 0 m 63 1010 l 63 1021 l 156 1183 l 333 1183 l 428 1021 l 428 1010 l 304 1010 l 244 1097 l 186 1010 l 63 1010 m 319 1243 q 329 1288 319 1272 q 365 1311 339 1303 l 379 1317 q 433 1338 421 1331 q 446 1361 446 1346 q 435 1378 446 1375 q 392 1382 425 1382 q 256 1381 303 1382 l 256 1481 q 413 1500 353 1500 q 535 1478 493 1500 q 576 1390 576 1457 q 573 1335 576 1354 q 556 1301 569 1315 q 511 1274 542 1286 l 496 1267 q 451 1247 463 1253 q 436 1233 439 1240 q 433 1207 433 1225 l 319 1207 l 319 1243 z "},"Ễ":{"ha":475,"x_min":50,"x_max":440,"o":"m 54 0 l 54 956 l 438 956 l 438 782 l 244 782 l 244 569 l 414 569 l 414 396 l 244 396 l 244 174 l 438 174 l 438 0 l 54 0 m 60 1008 l 60 1019 l 153 1182 l 331 1182 l 425 1019 l 425 1008 l 301 1008 l 242 1096 l 183 1008 l 60 1008 m 440 1422 q 435 1317 440 1351 q 410 1262 431 1282 q 344 1242 390 1242 q 238 1263 306 1242 q 209 1272 228 1265 q 178 1278 190 1278 q 161 1267 164 1278 q 158 1226 158 1257 l 50 1226 q 56 1331 50 1296 q 82 1386 61 1367 q 149 1406 103 1406 q 254 1385 189 1406 q 314 1372 299 1372 q 331 1382 328 1372 q 333 1422 333 1392 l 440 1422 z "},"Ȅ":{"ha":475,"x_min":35,"x_max":438,"o":"m 54 0 l 54 956 l 438 956 l 438 782 l 244 782 l 244 569 l 414 569 l 414 396 l 244 396 l 244 174 l 438 174 l 438 0 l 54 0 m 217 1051 l 96 1051 l 35 1207 l 35 1213 l 178 1213 l 217 1057 l 217 1051 m 394 1051 l 274 1051 l 213 1207 l 213 1213 l 356 1213 l 394 1057 l 394 1051 z "},"Ë":{"ha":475,"x_min":54,"x_max":439,"o":"m 54 0 l 54 956 l 438 956 l 438 782 l 244 782 l 244 569 l 414 569 l 414 396 l 244 396 l 244 174 l 438 174 l 438 0 l 54 0 m 58 1078 l 58 1222 l 213 1222 l 213 1078 l 58 1078 m 285 1078 l 285 1222 l 439 1222 l 439 1078 l 285 1078 z "},"Ė":{"ha":475,"x_min":54,"x_max":438,"o":"m 54 0 l 54 956 l 438 956 l 438 782 l 244 782 l 244 569 l 414 569 l 414 396 l 244 396 l 244 174 l 438 174 l 438 0 l 54 0 m 168 1071 l 168 1215 l 322 1215 l 322 1071 l 168 1071 z "},"Ẹ":{"ha":475,"x_min":54,"x_max":438,"o":"m 54 0 l 54 956 l 438 956 l 438 782 l 244 782 l 244 569 l 414 569 l 414 396 l 244 396 l 244 174 l 438 174 l 438 0 l 54 0 m 147 -271 l 147 -86 l 342 -86 l 342 -271 l 147 -271 z "},"È":{"ha":475,"x_min":54,"x_max":438,"o":"m 54 0 l 54 956 l 438 956 l 438 782 l 244 782 l 244 569 l 414 569 l 414 396 l 244 396 l 244 174 l 438 174 l 438 0 l 54 0 m 188 1042 l 110 1239 l 110 1246 l 285 1246 l 335 1049 l 335 1042 l 188 1042 z "},"Ẻ":{"ha":475,"x_min":54,"x_max":438,"o":"m 54 0 l 54 956 l 438 956 l 438 782 l 244 782 l 244 569 l 414 569 l 414 396 l 244 396 l 244 174 l 438 174 l 438 0 l 54 0 m 149 1051 q 159 1096 149 1081 q 194 1119 169 1111 l 208 1124 q 263 1145 250 1138 q 275 1168 275 1153 q 265 1186 275 1183 q 221 1189 256 1189 q 85 1188 132 1189 l 85 1288 q 242 1307 169 1307 q 364 1285 322 1307 q 406 1199 406 1264 q 402 1143 406 1163 q 385 1109 399 1124 q 340 1081 371 1094 l 325 1074 q 279 1053 290 1060 q 265 1040 268 1047 q 263 1015 263 1033 l 149 1015 l 149 1051 z "},"Ȇ":{"ha":475,"x_min":54,"x_max":438,"o":"m 54 0 l 54 956 l 438 956 l 438 782 l 244 782 l 244 569 l 414 569 l 414 396 l 244 396 l 244 174 l 438 174 l 438 0 l 54 0 m 75 1060 q 88 1158 75 1119 q 138 1219 100 1197 q 247 1242 175 1242 q 356 1219 318 1242 q 406 1158 393 1197 q 418 1060 418 1119 l 306 1060 q 296 1119 306 1101 q 247 1136 286 1136 q 197 1118 207 1136 q 186 1060 186 1100 l 75 1060 z "},"Ē":{"ha":475,"x_min":54,"x_max":438,"o":"m 54 0 l 54 956 l 438 956 l 438 782 l 244 782 l 244 569 l 414 569 l 414 396 l 244 396 l 244 174 l 438 174 l 438 0 l 54 0 m 124 1069 l 124 1233 l 368 1233 l 368 1069 l 124 1069 z "},"Ę":{"ha":475,"x_min":54,"x_max":438,"o":"m 361 -272 q 259 -239 290 -272 q 228 -156 228 -206 q 313 0 228 -75 l 54 0 l 54 956 l 438 956 l 438 782 l 244 782 l 244 569 l 414 569 l 414 396 l 244 396 l 244 174 l 438 174 l 438 0 q 386 -56 410 -22 q 363 -125 363 -89 q 411 -172 363 -172 l 426 -171 l 426 -267 q 361 -272 393 -272 z "},"Ẽ":{"ha":475,"x_min":50,"x_max":440,"o":"m 54 0 l 54 956 l 438 956 l 438 782 l 244 782 l 244 569 l 414 569 l 414 396 l 244 396 l 244 174 l 438 174 l 438 0 l 54 0 m 440 1233 q 435 1128 440 1163 q 410 1073 431 1093 q 344 1053 390 1053 q 238 1074 306 1053 q 209 1083 228 1076 q 178 1089 190 1089 q 161 1078 164 1089 q 158 1038 158 1068 l 50 1038 q 56 1142 50 1107 q 82 1197 61 1178 q 149 1217 103 1217 q 254 1196 189 1217 q 314 1183 299 1183 q 331 1193 328 1183 q 333 1233 333 1203 l 440 1233 z "},"F":{"ha":440,"x_min":54,"x_max":419,"o":"m 54 0 l 54 956 l 419 956 l 419 782 l 244 782 l 244 550 l 399 550 l 399 376 l 244 376 l 244 0 l 54 0 z "},"G":{"ha":569,"x_min":39,"x_max":524,"o":"m 294 392 l 294 560 l 524 560 l 524 18 q 421 -3 482 6 q 304 -11 360 -11 q 138 28 193 -11 q 60 170 82 68 q 39 478 39 272 q 62 786 39 685 q 144 927 85 888 q 325 967 204 967 q 426 959 371 967 q 522 939 482 951 l 522 779 q 375 793 428 793 q 274 778 301 793 q 238 702 247 764 q 228 478 228 640 q 233 260 228 324 q 254 176 238 197 q 310 156 271 156 q 353 160 332 156 l 353 392 l 294 392 z "},"Ǵ":{"ha":569,"x_min":39,"x_max":524,"o":"m 294 392 l 294 560 l 524 560 l 524 18 q 421 -3 482 6 q 304 -11 360 -11 q 138 28 193 -11 q 60 170 82 68 q 39 478 39 272 q 62 786 39 685 q 144 927 85 888 q 325 967 204 967 q 426 959 371 967 q 522 939 482 951 l 522 779 q 375 793 428 793 q 274 778 301 793 q 238 702 247 764 q 228 478 228 640 q 233 260 228 324 q 254 176 238 197 q 310 156 271 156 q 353 160 332 156 l 353 392 l 294 392 m 217 1029 l 217 1036 l 267 1233 l 442 1233 l 442 1226 l 364 1029 l 217 1029 z "},"Ğ":{"ha":569,"x_min":39,"x_max":524,"o":"m 294 392 l 294 560 l 524 560 l 524 18 q 421 -3 482 6 q 304 -11 360 -11 q 138 28 193 -11 q 60 170 82 68 q 39 478 39 272 q 62 786 39 685 q 144 927 85 888 q 325 967 204 967 q 426 959 371 967 q 522 939 482 951 l 522 779 q 375 793 428 793 q 274 778 301 793 q 238 702 247 764 q 228 478 228 640 q 233 260 228 324 q 254 176 238 197 q 310 156 271 156 q 353 160 332 156 l 353 392 l 294 392 m 456 1233 q 443 1135 456 1174 q 393 1074 431 1096 q 283 1051 356 1051 q 175 1074 213 1051 q 125 1135 138 1096 q 113 1233 113 1174 l 225 1233 q 235 1174 225 1192 q 283 1157 244 1157 q 334 1175 324 1157 q 344 1233 344 1193 l 456 1233 z "},"Ǧ":{"ha":569,"x_min":39,"x_max":524,"o":"m 294 392 l 294 560 l 524 560 l 524 18 q 421 -3 482 6 q 304 -11 360 -11 q 138 28 193 -11 q 60 170 82 68 q 39 478 39 272 q 62 786 39 685 q 144 927 85 888 q 325 967 204 967 q 426 959 371 967 q 522 939 482 951 l 522 779 q 375 793 428 793 q 274 778 301 793 q 238 702 247 764 q 228 478 228 640 q 233 260 228 324 q 254 176 238 197 q 310 156 271 156 q 353 160 332 156 l 353 392 l 294 392 m 194 1060 l 101 1222 l 101 1233 l 225 1233 l 283 1146 l 343 1233 l 467 1233 l 467 1222 l 372 1060 l 194 1060 z "},"Ĝ":{"ha":569,"x_min":39,"x_max":524,"o":"m 294 392 l 294 560 l 524 560 l 524 18 q 421 -3 482 6 q 304 -11 360 -11 q 138 28 193 -11 q 60 170 82 68 q 39 478 39 272 q 62 786 39 685 q 144 927 85 888 q 325 967 204 967 q 426 959 371 967 q 522 939 482 951 l 522 779 q 375 793 428 793 q 274 778 301 793 q 238 702 247 764 q 228 478 228 640 q 233 260 228 324 q 254 176 238 197 q 310 156 271 156 q 353 160 332 156 l 353 392 l 294 392 m 101 1060 l 101 1071 l 194 1233 l 372 1233 l 467 1071 l 467 1060 l 343 1060 l 283 1147 l 225 1060 l 101 1060 z "},"Ģ":{"ha":569,"x_min":39,"x_max":524,"o":"m 294 392 l 294 560 l 524 560 l 524 18 q 421 -3 482 6 q 304 -11 360 -11 q 138 28 193 -11 q 60 170 82 68 q 39 478 39 272 q 62 786 39 685 q 144 927 85 888 q 325 967 204 967 q 426 959 371 967 q 522 939 482 951 l 522 779 q 375 793 428 793 q 274 778 301 793 q 238 702 247 764 q 228 478 228 640 q 233 260 228 324 q 254 176 238 197 q 310 156 271 156 q 353 160 332 156 l 353 392 l 294 392 m 196 -310 q 251 -296 238 -310 q 264 -243 264 -282 l 264 -224 l 196 -224 l 196 -86 l 379 -86 l 379 -172 q 367 -308 379 -264 q 316 -372 354 -353 q 196 -390 278 -390 l 196 -310 z "},"Ġ":{"ha":569,"x_min":39,"x_max":524,"o":"m 294 392 l 294 560 l 524 560 l 524 18 q 421 -3 482 6 q 304 -11 360 -11 q 138 28 193 -11 q 60 170 82 68 q 39 478 39 272 q 62 786 39 685 q 144 927 85 888 q 325 967 204 967 q 426 959 371 967 q 522 939 482 951 l 522 779 q 375 793 428 793 q 274 778 301 793 q 238 702 247 764 q 228 478 228 640 q 233 260 228 324 q 254 176 238 197 q 310 156 271 156 q 353 160 332 156 l 353 392 l 294 392 m 207 1071 l 207 1215 l 361 1215 l 361 1071 l 207 1071 z "},"H":{"ha":604,"x_min":54,"x_max":550,"o":"m 358 0 l 358 390 l 244 390 l 244 0 l 54 0 l 54 956 l 244 956 l 244 572 l 358 572 l 358 956 l 550 956 l 550 0 l 358 0 z "},"Ħ":{"ha":604,"x_min":54,"x_max":550,"o":"m 358 956 l 550 956 l 550 0 l 358 0 l 358 339 l 244 339 l 244 0 l 54 0 l 54 956 l 244 956 l 244 833 l 358 833 l 358 956 m 244 521 l 358 521 l 358 661 l 244 661 l 244 521 z "},"Ĥ":{"ha":604,"x_min":54,"x_max":550,"o":"m 358 0 l 358 390 l 244 390 l 244 0 l 54 0 l 54 956 l 244 956 l 244 572 l 358 572 l 358 956 l 550 956 l 550 0 l 358 0 m 118 1060 l 118 1071 l 211 1233 l 389 1233 l 483 1071 l 483 1060 l 360 1060 l 300 1147 l 242 1060 l 118 1060 z "},"Ḥ":{"ha":604,"x_min":54,"x_max":550,"o":"m 358 0 l 358 390 l 244 390 l 244 0 l 54 0 l 54 956 l 244 956 l 244 572 l 358 572 l 358 956 l 550 956 l 550 0 l 358 0 m 203 -271 l 203 -86 l 397 -86 l 397 -271 l 203 -271 z "},"I":{"ha":300,"x_min":54,"x_max":246,"o":"m 54 0 l 54 956 l 246 956 l 246 0 l 54 0 z "},"Ĳ":{"ha":658,"x_min":54,"x_max":611,"o":"m 54 0 l 54 956 l 246 956 l 246 0 l 54 0 m 307 163 q 385 172 364 163 q 413 214 407 182 q 419 331 419 246 l 419 956 l 611 956 l 611 436 q 594 130 611 213 q 520 24 578 47 q 307 0 463 0 l 307 163 z "},"Í":{"ha":300,"x_min":54,"x_max":283,"o":"m 54 0 l 54 956 l 246 956 l 246 0 l 54 0 m 58 1042 l 58 1049 l 108 1246 l 283 1246 l 283 1239 l 206 1042 l 58 1042 z "},"Ĭ":{"ha":300,"x_min":-22,"x_max":321,"o":"m 54 0 l 54 956 l 246 956 l 246 0 l 54 0 m 321 1233 q 308 1135 321 1174 q 258 1074 296 1096 q 149 1051 221 1051 q 40 1074 78 1051 q -10 1135 3 1096 q -22 1233 -22 1174 l 90 1233 q 100 1174 90 1192 q 149 1157 110 1157 q 199 1175 189 1157 q 210 1233 210 1193 l 321 1233 z "},"Ǐ":{"ha":300,"x_min":-33,"x_max":332,"o":"m 54 0 l 54 956 l 246 956 l 246 0 l 54 0 m 60 1060 l -33 1222 l -33 1233 l 90 1233 l 149 1146 l 208 1233 l 332 1233 l 332 1222 l 238 1060 l 60 1060 z "},"Î":{"ha":300,"x_min":-33,"x_max":332,"o":"m 54 0 l 54 956 l 246 956 l 246 0 l 54 0 m -33 1042 l -33 1053 l 60 1215 l 238 1215 l 332 1053 l 332 1042 l 208 1042 l 149 1129 l 90 1042 l -33 1042 z "},"Ȉ":{"ha":300,"x_min":-61,"x_max":299,"o":"m 54 0 l 54 956 l 246 956 l 246 0 l 54 0 m 121 1051 l 0 1051 l -61 1207 l -61 1213 l 82 1213 l 121 1057 l 121 1051 m 299 1051 l 178 1051 l 117 1207 l 117 1213 l 260 1213 l 299 1057 l 299 1051 z "},"Ï":{"ha":300,"x_min":-39,"x_max":342,"o":"m 54 0 l 54 956 l 246 956 l 246 0 l 54 0 m -39 1078 l -39 1222 l 115 1222 l 115 1078 l -39 1078 m 188 1078 l 188 1222 l 342 1222 l 342 1078 l 188 1078 z "},"İ":{"ha":300,"x_min":54,"x_max":246,"o":"m 54 0 l 54 956 l 246 956 l 246 0 l 54 0 m 72 1071 l 72 1215 l 226 1215 l 226 1071 l 72 1071 z "},"Ị":{"ha":300,"x_min":51,"x_max":246,"o":"m 54 0 l 54 956 l 246 956 l 246 0 l 54 0 m 51 -271 l 51 -86 l 246 -86 l 246 -271 l 51 -271 z "},"Ì":{"ha":300,"x_min":21,"x_max":246,"o":"m 54 0 l 54 956 l 246 956 l 246 0 l 54 0 m 99 1042 l 21 1239 l 21 1246 l 196 1246 l 246 1049 l 246 1042 l 99 1042 z "},"Ỉ":{"ha":300,"x_min":-11,"x_max":310,"o":"m 54 0 l 54 956 l 246 956 l 246 0 l 54 0 m 53 1051 q 63 1096 53 1081 q 99 1119 74 1111 l 113 1124 q 167 1145 154 1138 q 179 1168 179 1153 q 169 1186 179 1183 q 125 1189 160 1189 q -11 1188 36 1189 l -11 1288 q 146 1307 74 1307 q 268 1285 226 1307 q 310 1199 310 1264 q 306 1143 310 1163 q 289 1109 303 1124 q 244 1081 275 1094 l 229 1074 q 183 1053 194 1060 q 169 1040 172 1047 q 167 1015 167 1033 l 53 1015 l 53 1051 z "},"Ȋ":{"ha":300,"x_min":-21,"x_max":322,"o":"m 54 0 l 54 956 l 246 956 l 246 0 l 54 0 m -21 1060 q -8 1158 -21 1119 q 42 1219 4 1197 q 151 1242 79 1242 q 260 1219 222 1242 q 310 1158 297 1197 q 322 1060 322 1119 l 210 1060 q 200 1119 210 1101 q 151 1136 190 1136 q 101 1118 111 1136 q 90 1060 90 1100 l -21 1060 z "},"Ī":{"ha":300,"x_min":28,"x_max":272,"o":"m 54 0 l 54 956 l 246 956 l 246 0 l 54 0 m 28 1069 l 28 1233 l 272 1233 l 272 1069 l 28 1069 z "},"Į":{"ha":300,"x_min":47,"x_max":247,"o":"m 178 -272 q 78 -238 110 -272 q 47 -150 47 -204 q 67 -73 47 -112 q 121 0 88 -33 l 54 0 l 54 956 l 246 956 l 246 0 q 203 -54 224 -19 q 183 -119 183 -89 q 194 -158 183 -144 q 232 -172 204 -172 l 247 -171 l 247 -267 q 178 -272 211 -272 z "},"Ĩ":{"ha":300,"x_min":-46,"x_max":344,"o":"m 54 0 l 54 956 l 246 956 l 246 0 l 54 0 m 344 1233 q 340 1128 344 1163 q 315 1073 335 1093 q 249 1053 294 1053 q 142 1074 210 1053 q 113 1083 132 1076 q 82 1089 94 1089 q 65 1078 68 1089 q 63 1038 63 1068 l -46 1038 q -40 1142 -46 1107 q -14 1197 -35 1178 q 53 1217 7 1217 q 158 1196 93 1217 q 218 1183 203 1183 q 235 1193 232 1183 q 238 1233 238 1203 l 344 1233 z "},"J":{"ha":358,"x_min":7,"x_max":311,"o":"m 7 163 q 85 172 64 163 q 113 214 107 182 q 119 331 119 246 l 119 956 l 311 956 l 311 436 q 294 130 311 213 q 220 24 278 47 q 7 0 163 0 l 7 163 z "},"Ĵ":{"ha":358,"x_min":7,"x_max":397,"o":"m 7 163 q 85 172 64 163 q 113 214 107 182 q 119 331 119 246 l 119 956 l 311 956 l 311 436 q 294 130 311 213 q 220 24 278 47 q 7 0 163 0 l 7 163 m 32 1060 l 32 1071 l 125 1233 l 303 1233 l 397 1071 l 397 1060 l 274 1060 l 214 1147 l 156 1060 l 32 1060 z "},"K":{"ha":575,"x_min":54,"x_max":568,"o":"m 369 0 l 278 393 l 244 393 l 244 0 l 54 0 l 54 956 l 244 956 l 244 575 l 278 575 l 372 956 l 567 956 l 426 496 l 568 0 l 369 0 z "},"Ķ":{"ha":575,"x_min":54,"x_max":568,"o":"m 369 0 l 278 393 l 244 393 l 244 0 l 54 0 l 54 956 l 244 956 l 244 575 l 278 575 l 372 956 l 567 956 l 426 496 l 568 0 l 369 0 m 199 -310 q 253 -296 240 -310 q 267 -243 267 -282 l 267 -224 l 199 -224 l 199 -86 l 382 -86 l 382 -172 q 369 -308 382 -264 q 319 -372 357 -353 q 199 -390 281 -390 l 199 -310 z "},"L":{"ha":433,"x_min":54,"x_max":419,"o":"m 54 0 l 54 956 l 244 956 l 244 176 l 419 176 l 419 0 l 54 0 z "},"Ǉ":{"ha":792,"x_min":54,"x_max":744,"o":"m 54 0 l 54 956 l 244 956 l 244 176 l 419 176 l 419 0 l 54 0 m 440 163 q 519 172 497 163 q 547 214 540 182 q 553 331 553 246 l 553 956 l 744 956 l 744 436 q 728 130 744 213 q 653 24 711 47 q 440 0 596 0 l 440 163 z "},"Ĺ":{"ha":433,"x_min":54,"x_max":419,"o":"m 54 0 l 54 956 l 244 956 l 244 176 l 419 176 l 419 0 l 54 0 m 82 1029 l 82 1036 l 132 1233 l 307 1233 l 307 1226 l 229 1029 l 82 1029 z "},"Ľ":{"ha":433,"x_min":54,"x_max":499,"o":"m 54 0 l 54 956 l 244 956 l 244 176 l 419 176 l 419 0 l 54 0 m 308 590 l 329 888 l 329 956 l 499 956 l 499 888 l 440 590 l 308 590 z "},"Ļ":{"ha":433,"x_min":54,"x_max":419,"o":"m 54 0 l 54 956 l 244 956 l 244 176 l 419 176 l 419 0 l 54 0 m 132 -310 q 187 -296 174 -310 q 200 -243 200 -282 l 200 -224 l 132 -224 l 132 -86 l 315 -86 l 315 -172 q 303 -308 315 -264 q 252 -372 290 -353 q 132 -390 214 -390 l 132 -310 z "},"Ŀ":{"ha":501,"x_min":54,"x_max":501,"o":"m 54 0 l 54 956 l 244 956 l 244 176 l 419 176 l 419 0 l 54 0 m 307 429 l 307 614 l 501 614 l 501 429 l 307 429 z "},"ǈ":{"ha":708,"x_min":54,"x_max":661,"o":"m 54 0 l 54 956 l 244 956 l 244 176 l 419 176 l 419 0 l 54 0 m 481 861 l 481 1032 l 661 1032 l 661 861 l 481 861 m 414 -137 q 460 -131 446 -137 q 477 -110 474 -124 q 481 -67 481 -96 l 481 708 l 660 708 l 660 24 q 640 -176 660 -114 q 570 -256 619 -237 q 414 -274 521 -274 l 414 -137 z "},"Ł":{"ha":433,"x_min":4,"x_max":419,"o":"m 244 176 l 419 176 l 419 0 l 54 0 l 54 353 l 4 333 l 4 493 l 54 513 l 54 956 l 244 956 l 244 585 l 358 628 l 358 467 l 244 424 l 244 176 z "},"M":{"ha":865,"x_min":54,"x_max":813,"o":"m 628 0 l 628 721 l 618 721 l 526 0 l 335 0 l 246 721 l 233 721 l 233 0 l 54 0 l 54 956 l 351 956 l 431 282 l 442 282 l 521 956 l 813 956 l 813 0 l 628 0 z "},"N":{"ha":610,"x_min":54,"x_max":556,"o":"m 389 0 l 240 479 l 235 479 l 235 0 l 54 0 l 54 956 l 231 956 l 367 522 l 374 522 l 374 956 l 556 956 l 556 0 l 389 0 z "},"Ǌ":{"ha":968,"x_min":54,"x_max":921,"o":"m 389 0 l 240 479 l 235 479 l 235 0 l 54 0 l 54 956 l 231 956 l 367 522 l 374 522 l 374 956 l 556 956 l 556 0 l 389 0 m 617 163 q 695 172 674 163 q 723 214 717 182 q 729 331 729 246 l 729 956 l 921 956 l 921 436 q 904 130 921 213 q 830 24 888 47 q 617 0 772 0 l 617 163 z "},"Ń":{"ha":610,"x_min":54,"x_max":556,"o":"m 389 0 l 240 479 l 235 479 l 235 0 l 54 0 l 54 956 l 231 956 l 367 522 l 374 522 l 374 956 l 556 956 l 556 0 l 389 0 m 238 1029 l 238 1036 l 288 1233 l 463 1233 l 463 1226 l 385 1029 l 238 1029 z "},"Ň":{"ha":610,"x_min":54,"x_max":556,"o":"m 389 0 l 240 479 l 235 479 l 235 0 l 54 0 l 54 956 l 231 956 l 367 522 l 374 522 l 374 956 l 556 956 l 556 0 l 389 0 m 215 1060 l 122 1222 l 122 1233 l 246 1233 l 304 1146 l 364 1233 l 488 1233 l 488 1222 l 393 1060 l 215 1060 z "},"Ņ":{"ha":610,"x_min":54,"x_max":556,"o":"m 389 0 l 240 479 l 235 479 l 235 0 l 54 0 l 54 956 l 231 956 l 367 522 l 374 522 l 374 956 l 556 956 l 556 0 l 389 0 m 217 -310 q 272 -296 258 -310 q 285 -243 285 -282 l 285 -224 l 217 -224 l 217 -86 l 400 -86 l 400 -172 q 388 -308 400 -264 q 337 -372 375 -353 q 217 -390 299 -390 l 217 -310 z "},"Ṅ":{"ha":610,"x_min":54,"x_max":556,"o":"m 389 0 l 240 479 l 235 479 l 235 0 l 54 0 l 54 956 l 231 956 l 367 522 l 374 522 l 374 956 l 556 956 l 556 0 l 389 0 m 228 1071 l 228 1215 l 382 1215 l 382 1071 l 228 1071 z "},"Ŋ":{"ha":610,"x_min":54,"x_max":556,"o":"m 556 956 l 556 -17 q 531 -188 553 -135 q 459 -258 508 -242 q 307 -274 410 -274 l 307 -137 q 354 -131 340 -137 q 372 -110 368 -124 q 375 -67 375 -96 l 375 53 l 240 479 l 235 479 l 235 0 l 54 0 l 54 956 l 231 956 l 367 524 l 374 524 l 374 956 l 556 956 z "},"Ɲ":{"ha":610,"x_min":-14,"x_max":556,"o":"m 556 956 l 556 0 l 389 0 l 240 479 l 235 479 l 235 24 q 214 -176 235 -114 q 144 -256 193 -237 q -14 -274 94 -274 l -14 -137 q 33 -131 18 -137 q 51 -110 47 -124 q 54 -67 54 -96 l 54 956 l 231 956 l 367 522 l 374 522 l 374 956 l 556 956 z "},"ǋ":{"ha":885,"x_min":54,"x_max":838,"o":"m 389 0 l 240 479 l 235 479 l 235 0 l 54 0 l 54 956 l 231 956 l 367 522 l 374 522 l 374 956 l 556 956 l 556 0 l 389 0 m 657 861 l 657 1032 l 838 1032 l 838 861 l 657 861 m 590 -137 q 636 -131 622 -137 q 653 -110 650 -124 q 657 -67 657 -96 l 657 708 l 836 708 l 836 24 q 816 -176 836 -114 q 747 -256 796 -237 q 590 -274 697 -274 l 590 -137 z "},"Ñ":{"ha":610,"x_min":54,"x_max":556,"o":"m 389 0 l 240 479 l 235 479 l 235 0 l 54 0 l 54 956 l 231 956 l 367 522 l 374 522 l 374 956 l 556 956 l 556 0 l 389 0 m 500 1238 q 495 1132 500 1167 q 470 1077 490 1097 q 404 1057 450 1057 q 297 1078 365 1057 q 269 1087 288 1081 q 238 1093 250 1093 q 221 1083 224 1093 q 218 1042 218 1072 l 110 1042 q 115 1147 110 1111 q 142 1201 121 1182 q 208 1221 163 1221 q 314 1200 249 1221 q 374 1188 358 1188 q 390 1197 388 1188 q 393 1238 393 1207 l 500 1238 z "},"O":{"ha":583,"x_min":39,"x_max":544,"o":"m 292 -11 q 116 32 168 -11 q 51 167 64 75 q 39 478 39 260 q 51 788 39 696 q 116 924 64 881 q 292 967 168 967 q 467 924 415 967 q 532 788 519 881 q 544 478 544 694 q 532 168 544 261 q 467 32 519 75 q 292 -11 415 -11 m 292 163 q 335 177 324 163 q 349 251 346 192 q 353 478 353 310 q 349 705 353 646 q 335 778 346 764 q 292 793 324 793 q 249 778 260 793 q 234 705 238 764 q 231 478 231 646 q 234 251 231 310 q 249 177 238 192 q 292 163 260 163 z "},"Ó":{"ha":583,"x_min":39,"x_max":544,"o":"m 292 -11 q 116 32 168 -11 q 51 167 64 75 q 39 478 39 260 q 51 788 39 696 q 116 924 64 881 q 292 967 168 967 q 467 924 415 967 q 532 788 519 881 q 544 478 544 694 q 532 168 544 261 q 467 32 519 75 q 292 -11 415 -11 m 292 163 q 335 177 324 163 q 349 251 346 192 q 353 478 353 310 q 349 705 353 646 q 335 778 346 764 q 292 793 324 793 q 249 778 260 793 q 234 705 238 764 q 231 478 231 646 q 234 251 231 310 q 249 177 238 192 q 292 163 260 163 m 211 1042 l 211 1049 l 261 1246 l 436 1246 l 436 1239 l 358 1042 l 211 1042 z "},"Ŏ":{"ha":583,"x_min":39,"x_max":544,"o":"m 292 -11 q 116 32 168 -11 q 51 167 64 75 q 39 478 39 260 q 51 788 39 696 q 116 924 64 881 q 292 967 168 967 q 467 924 415 967 q 532 788 519 881 q 544 478 544 694 q 532 168 544 261 q 467 32 519 75 q 292 -11 415 -11 m 292 163 q 335 177 324 163 q 349 251 346 192 q 353 478 353 310 q 349 705 353 646 q 335 778 346 764 q 292 793 324 793 q 249 778 260 793 q 234 705 238 764 q 231 478 231 646 q 234 251 231 310 q 249 177 238 192 q 292 163 260 163 m 463 1233 q 450 1135 463 1174 q 400 1074 438 1096 q 290 1051 363 1051 q 182 1074 219 1051 q 132 1135 144 1096 q 119 1233 119 1174 l 232 1233 q 242 1174 232 1192 q 290 1157 251 1157 q 341 1175 331 1157 q 351 1233 351 1193 l 463 1233 z "},"Ǒ":{"ha":583,"x_min":39,"x_max":544,"o":"m 292 -11 q 116 32 168 -11 q 51 167 64 75 q 39 478 39 260 q 51 788 39 696 q 116 924 64 881 q 292 967 168 967 q 467 924 415 967 q 532 788 519 881 q 544 478 544 694 q 532 168 544 261 q 467 32 519 75 q 292 -11 415 -11 m 292 163 q 335 177 324 163 q 349 251 346 192 q 353 478 353 310 q 349 705 353 646 q 335 778 346 764 q 292 793 324 793 q 249 778 260 793 q 234 705 238 764 q 231 478 231 646 q 234 251 231 310 q 249 177 238 192 q 292 163 260 163 m 201 1060 l 108 1222 l 108 1233 l 232 1233 l 290 1146 l 350 1233 l 474 1233 l 474 1222 l 379 1060 l 201 1060 z "},"Ô":{"ha":583,"x_min":39,"x_max":544,"o":"m 292 -11 q 116 32 168 -11 q 51 167 64 75 q 39 478 39 260 q 51 788 39 696 q 116 924 64 881 q 292 967 168 967 q 467 924 415 967 q 532 788 519 881 q 544 478 544 694 q 532 168 544 261 q 467 32 519 75 q 292 -11 415 -11 m 292 163 q 335 177 324 163 q 349 251 346 192 q 353 478 353 310 q 349 705 353 646 q 335 778 346 764 q 292 793 324 793 q 249 778 260 793 q 234 705 238 764 q 231 478 231 646 q 234 251 231 310 q 249 177 238 192 q 292 163 260 163 m 108 1042 l 108 1053 l 201 1215 l 379 1215 l 474 1053 l 474 1042 l 350 1042 l 290 1129 l 232 1042 l 108 1042 z "},"Ố":{"ha":583,"x_min":39,"x_max":554,"o":"m 292 -11 q 116 32 168 -11 q 51 167 64 75 q 39 478 39 260 q 51 788 39 696 q 116 924 64 881 q 292 967 168 967 q 467 924 415 967 q 532 788 519 881 q 544 478 544 694 q 532 168 544 261 q 467 32 519 75 q 292 -11 415 -11 m 292 163 q 335 177 324 163 q 349 251 346 192 q 353 478 353 310 q 349 705 353 646 q 335 778 346 764 q 292 793 324 793 q 249 778 260 793 q 234 705 238 764 q 231 478 231 646 q 234 251 231 310 q 249 177 238 192 q 292 163 260 163 m 110 1008 l 110 1019 l 203 1182 l 381 1182 l 475 1019 l 475 1008 l 351 1008 l 292 1096 l 233 1008 l 110 1008 m 329 1213 l 329 1219 l 379 1417 l 554 1417 l 554 1410 l 476 1213 l 329 1213 z "},"Ộ":{"ha":583,"x_min":39,"x_max":544,"o":"m 292 -11 q 116 32 168 -11 q 51 167 64 75 q 39 478 39 260 q 51 788 39 696 q 116 924 64 881 q 292 967 168 967 q 467 924 415 967 q 532 788 519 881 q 544 478 544 694 q 532 168 544 261 q 467 32 519 75 q 292 -11 415 -11 m 292 163 q 335 177 324 163 q 349 251 346 192 q 353 478 353 310 q 349 705 353 646 q 335 778 346 764 q 292 793 324 793 q 249 778 260 793 q 234 705 238 764 q 231 478 231 646 q 234 251 231 310 q 249 177 238 192 q 292 163 260 163 m 193 -271 l 193 -86 l 388 -86 l 388 -271 l 193 -271 m 108 1060 l 108 1071 l 201 1233 l 379 1233 l 474 1071 l 474 1060 l 350 1060 l 290 1147 l 232 1060 l 108 1060 z "},"Ồ":{"ha":583,"x_min":39,"x_max":544,"o":"m 292 -11 q 116 32 168 -11 q 51 167 64 75 q 39 478 39 260 q 51 788 39 696 q 116 924 64 881 q 292 967 168 967 q 467 924 415 967 q 532 788 519 881 q 544 478 544 694 q 532 168 544 261 q 467 32 519 75 q 292 -11 415 -11 m 292 163 q 335 177 324 163 q 349 251 346 192 q 353 478 353 310 q 349 705 353 646 q 335 778 346 764 q 292 793 324 793 q 249 778 260 793 q 234 705 238 764 q 231 478 231 646 q 234 251 231 310 q 249 177 238 192 q 292 163 260 163 m 94 1008 l 94 1019 l 188 1182 l 365 1182 l 460 1019 l 460 1008 l 336 1008 l 276 1096 l 218 1008 l 94 1008 m 340 1211 l 263 1408 l 263 1415 l 438 1415 l 488 1218 l 488 1211 l 340 1211 z "},"Ổ":{"ha":583,"x_min":39,"x_max":622,"o":"m 292 -11 q 116 32 168 -11 q 51 167 64 75 q 39 478 39 260 q 51 788 39 696 q 116 924 64 881 q 292 967 168 967 q 467 924 415 967 q 532 788 519 881 q 544 478 544 694 q 532 168 544 261 q 467 32 519 75 q 292 -11 415 -11 m 292 163 q 335 177 324 163 q 349 251 346 192 q 353 478 353 310 q 349 705 353 646 q 335 778 346 764 q 292 793 324 793 q 249 778 260 793 q 234 705 238 764 q 231 478 231 646 q 234 251 231 310 q 249 177 238 192 q 292 163 260 163 m 108 1010 l 108 1021 l 201 1183 l 379 1183 l 474 1021 l 474 1010 l 350 1010 l 290 1097 l 232 1010 l 108 1010 m 365 1243 q 375 1288 365 1272 q 411 1311 385 1303 l 425 1317 q 479 1338 467 1331 q 492 1361 492 1346 q 481 1378 492 1375 q 438 1382 471 1382 q 301 1381 349 1382 l 301 1481 q 458 1500 399 1500 q 581 1478 539 1500 q 622 1390 622 1457 q 619 1335 622 1354 q 601 1301 615 1315 q 557 1274 588 1286 l 542 1267 q 497 1247 508 1253 q 482 1233 485 1240 q 479 1207 479 1225 l 365 1207 l 365 1243 z "},"Ỗ":{"ha":583,"x_min":39,"x_max":544,"o":"m 292 -11 q 116 32 168 -11 q 51 167 64 75 q 39 478 39 260 q 51 788 39 696 q 116 924 64 881 q 292 967 168 967 q 467 924 415 967 q 532 788 519 881 q 544 478 544 694 q 532 168 544 261 q 467 32 519 75 q 292 -11 415 -11 m 292 163 q 335 177 324 163 q 349 251 346 192 q 353 478 353 310 q 349 705 353 646 q 335 778 346 764 q 292 793 324 793 q 249 778 260 793 q 234 705 238 764 q 231 478 231 646 q 234 251 231 310 q 249 177 238 192 q 292 163 260 163 m 106 1008 l 106 1019 l 199 1182 l 376 1182 l 471 1019 l 471 1008 l 347 1008 l 288 1096 l 229 1008 l 106 1008 m 486 1422 q 481 1317 486 1351 q 456 1262 476 1282 q 390 1242 436 1242 q 283 1263 351 1242 q 255 1272 274 1265 q 224 1278 236 1278 q 207 1267 210 1278 q 204 1226 204 1257 l 96 1226 q 101 1331 96 1296 q 128 1386 107 1367 q 194 1406 149 1406 q 300 1385 235 1406 q 360 1372 344 1372 q 376 1382 374 1372 q 379 1422 379 1392 l 486 1422 z "},"Ȍ":{"ha":583,"x_min":39,"x_max":544,"o":"m 292 -11 q 116 32 168 -11 q 51 167 64 75 q 39 478 39 260 q 51 788 39 696 q 116 924 64 881 q 292 967 168 967 q 467 924 415 967 q 532 788 519 881 q 544 478 544 694 q 532 168 544 261 q 467 32 519 75 q 292 -11 415 -11 m 292 163 q 335 177 324 163 q 349 251 346 192 q 353 478 353 310 q 349 705 353 646 q 335 778 346 764 q 292 793 324 793 q 249 778 260 793 q 234 705 238 764 q 231 478 231 646 q 234 251 231 310 q 249 177 238 192 q 292 163 260 163 m 263 1051 l 142 1051 l 81 1207 l 81 1213 l 224 1213 l 263 1057 l 263 1051 m 440 1051 l 319 1051 l 258 1207 l 258 1213 l 401 1213 l 440 1057 l 440 1051 z "},"Ö":{"ha":583,"x_min":39,"x_max":544,"o":"m 292 -11 q 116 32 168 -11 q 51 167 64 75 q 39 478 39 260 q 51 788 39 696 q 116 924 64 881 q 292 967 168 967 q 467 924 415 967 q 532 788 519 881 q 544 478 544 694 q 532 168 544 261 q 467 32 519 75 q 292 -11 415 -11 m 292 163 q 335 177 324 163 q 349 251 346 192 q 353 478 353 310 q 349 705 353 646 q 335 778 346 764 q 292 793 324 793 q 249 778 260 793 q 234 705 238 764 q 231 478 231 646 q 234 251 231 310 q 249 177 238 192 q 292 163 260 163 m 101 1078 l 101 1222 l 256 1222 l 256 1078 l 101 1078 m 328 1078 l 328 1222 l 482 1222 l 482 1078 l 328 1078 z "},"Ọ":{"ha":583,"x_min":39,"x_max":544,"o":"m 292 -11 q 116 32 168 -11 q 51 167 64 75 q 39 478 39 260 q 51 788 39 696 q 116 924 64 881 q 292 967 168 967 q 467 924 415 967 q 532 788 519 881 q 544 478 544 694 q 532 168 544 261 q 467 32 519 75 q 292 -11 415 -11 m 292 163 q 335 177 324 163 q 349 251 346 192 q 353 478 353 310 q 349 705 353 646 q 335 778 346 764 q 292 793 324 793 q 249 778 260 793 q 234 705 238 764 q 231 478 231 646 q 234 251 231 310 q 249 177 238 192 q 292 163 260 163 m 193 -271 l 193 -86 l 388 -86 l 388 -271 l 193 -271 z "},"Ò":{"ha":583,"x_min":39,"x_max":544,"o":"m 292 -11 q 116 32 168 -11 q 51 167 64 75 q 39 478 39 260 q 51 788 39 696 q 116 924 64 881 q 292 967 168 967 q 467 924 415 967 q 532 788 519 881 q 544 478 544 694 q 532 168 544 261 q 467 32 519 75 q 292 -11 415 -11 m 292 163 q 335 177 324 163 q 349 251 346 192 q 353 478 353 310 q 349 705 353 646 q 335 778 346 764 q 292 793 324 793 q 249 778 260 793 q 234 705 238 764 q 231 478 231 646 q 234 251 231 310 q 249 177 238 192 q 292 163 260 163 m 219 1042 l 142 1239 l 142 1246 l 317 1246 l 367 1049 l 367 1042 l 219 1042 z "},"Ỏ":{"ha":583,"x_min":39,"x_max":544,"o":"m 292 -11 q 116 32 168 -11 q 51 167 64 75 q 39 478 39 260 q 51 788 39 696 q 116 924 64 881 q 292 967 168 967 q 467 924 415 967 q 532 788 519 881 q 544 478 544 694 q 532 168 544 261 q 467 32 519 75 q 292 -11 415 -11 m 292 163 q 335 177 324 163 q 349 251 346 192 q 353 478 353 310 q 349 705 353 646 q 335 778 346 764 q 292 793 324 793 q 249 778 260 793 q 234 705 238 764 q 231 478 231 646 q 234 251 231 310 q 249 177 238 192 q 292 163 260 163 m 194 1051 q 205 1096 194 1081 q 240 1119 215 1111 l 254 1124 q 308 1145 296 1138 q 321 1168 321 1153 q 311 1186 321 1183 q 267 1189 301 1189 q 131 1188 178 1189 l 131 1288 q 288 1307 215 1307 q 410 1285 368 1307 q 451 1199 451 1264 q 448 1143 451 1163 q 431 1109 444 1124 q 386 1081 417 1094 l 371 1074 q 325 1053 336 1060 q 311 1040 314 1047 q 308 1015 308 1033 l 194 1015 l 194 1051 z "},"Ơ":{"ha":583,"x_min":39,"x_max":604,"o":"m 604 1081 l 604 1056 q 597 960 604 994 q 569 906 590 926 q 503 879 547 886 q 538 742 531 829 q 544 478 544 656 q 532 168 544 261 q 467 32 519 75 q 292 -11 415 -11 q 116 32 168 -11 q 51 167 64 75 q 39 478 39 260 q 51 788 39 696 q 116 924 64 881 q 292 967 168 967 q 400 956 361 967 l 419 956 q 475 972 461 956 q 489 1032 489 988 l 489 1081 l 604 1081 m 292 163 q 335 177 324 163 q 349 251 346 192 q 353 478 353 310 q 349 705 353 646 q 335 778 346 764 q 292 793 324 793 q 249 778 260 793 q 234 705 238 764 q 231 478 231 646 q 234 251 231 310 q 249 177 238 192 q 292 163 260 163 z "},"Ớ":{"ha":583,"x_min":39,"x_max":604,"o":"m 604 1081 l 604 1056 q 597 960 604 994 q 569 906 590 926 q 503 879 547 886 q 538 742 531 829 q 544 478 544 656 q 532 168 544 261 q 467 32 519 75 q 292 -11 415 -11 q 116 32 168 -11 q 51 167 64 75 q 39 478 39 260 q 51 788 39 696 q 116 924 64 881 q 292 967 168 967 q 400 956 361 967 l 419 956 q 475 972 461 956 q 489 1032 489 988 l 489 1081 l 604 1081 m 292 163 q 335 177 324 163 q 349 251 346 192 q 353 478 353 310 q 349 705 353 646 q 335 778 346 764 q 292 793 324 793 q 249 778 260 793 q 234 705 238 764 q 231 478 231 646 q 234 251 231 310 q 249 177 238 192 q 292 163 260 163 m 224 1029 l 224 1036 l 274 1233 l 449 1233 l 449 1226 l 371 1029 l 224 1029 z "},"Ợ":{"ha":583,"x_min":39,"x_max":604,"o":"m 604 1081 l 604 1056 q 597 960 604 994 q 569 906 590 926 q 503 879 547 886 q 538 742 531 829 q 544 478 544 656 q 532 168 544 261 q 467 32 519 75 q 292 -11 415 -11 q 116 32 168 -11 q 51 167 64 75 q 39 478 39 260 q 51 788 39 696 q 116 924 64 881 q 292 967 168 967 q 400 956 361 967 l 419 956 q 475 972 461 956 q 489 1032 489 988 l 489 1081 l 604 1081 m 292 163 q 335 177 324 163 q 349 251 346 192 q 353 478 353 310 q 349 705 353 646 q 335 778 346 764 q 292 793 324 793 q 249 778 260 793 q 234 705 238 764 q 231 478 231 646 q 234 251 231 310 q 249 177 238 192 q 292 163 260 163 m 193 -271 l 193 -86 l 388 -86 l 388 -271 l 193 -271 z "},"Ờ":{"ha":583,"x_min":39,"x_max":604,"o":"m 604 1081 l 604 1056 q 597 960 604 994 q 569 906 590 926 q 503 879 547 886 q 538 742 531 829 q 544 478 544 656 q 532 168 544 261 q 467 32 519 75 q 292 -11 415 -11 q 116 32 168 -11 q 51 167 64 75 q 39 478 39 260 q 51 788 39 696 q 116 924 64 881 q 292 967 168 967 q 400 956 361 967 l 419 956 q 475 972 461 956 q 489 1032 489 988 l 489 1081 l 604 1081 m 292 163 q 335 177 324 163 q 349 251 346 192 q 353 478 353 310 q 349 705 353 646 q 335 778 346 764 q 292 793 324 793 q 249 778 260 793 q 234 705 238 764 q 231 478 231 646 q 234 251 231 310 q 249 177 238 192 q 292 163 260 163 m 219 1029 l 142 1226 l 142 1233 l 317 1233 l 367 1036 l 367 1029 l 219 1029 z "},"Ở":{"ha":583,"x_min":39,"x_max":604,"o":"m 604 1081 l 604 1056 q 597 960 604 994 q 569 906 590 926 q 503 879 547 886 q 538 742 531 829 q 544 478 544 656 q 532 168 544 261 q 467 32 519 75 q 292 -11 415 -11 q 116 32 168 -11 q 51 167 64 75 q 39 478 39 260 q 51 788 39 696 q 116 924 64 881 q 292 967 168 967 q 400 956 361 967 l 419 956 q 475 972 461 956 q 489 1032 489 988 l 489 1081 l 604 1081 m 292 163 q 335 177 324 163 q 349 251 346 192 q 353 478 353 310 q 349 705 353 646 q 335 778 346 764 q 292 793 324 793 q 249 778 260 793 q 234 705 238 764 q 231 478 231 646 q 234 251 231 310 q 249 177 238 192 q 292 163 260 163 m 194 1051 q 205 1096 194 1081 q 240 1119 215 1111 l 254 1124 q 308 1145 296 1138 q 321 1168 321 1153 q 311 1186 321 1183 q 267 1189 301 1189 q 131 1188 178 1189 l 131 1288 q 288 1307 215 1307 q 410 1285 368 1307 q 451 1199 451 1264 q 448 1143 451 1163 q 431 1109 444 1124 q 386 1081 417 1094 l 371 1074 q 325 1053 336 1060 q 311 1040 314 1047 q 308 1015 308 1033 l 194 1015 l 194 1051 z "},"Ỡ":{"ha":583,"x_min":39,"x_max":604,"o":"m 604 1081 l 604 1056 q 597 960 604 994 q 569 906 590 926 q 503 879 547 886 q 538 742 531 829 q 544 478 544 656 q 532 168 544 261 q 467 32 519 75 q 292 -11 415 -11 q 116 32 168 -11 q 51 167 64 75 q 39 478 39 260 q 51 788 39 696 q 116 924 64 881 q 292 967 168 967 q 400 956 361 967 l 419 956 q 475 972 461 956 q 489 1032 489 988 l 489 1081 l 604 1081 m 292 163 q 335 177 324 163 q 349 251 346 192 q 353 478 353 310 q 349 705 353 646 q 335 778 346 764 q 292 793 324 793 q 249 778 260 793 q 234 705 238 764 q 231 478 231 646 q 234 251 231 310 q 249 177 238 192 q 292 163 260 163 m 486 1233 q 481 1128 486 1163 q 456 1073 476 1093 q 390 1053 436 1053 q 283 1074 351 1053 q 255 1083 274 1076 q 224 1089 236 1089 q 207 1078 210 1089 q 204 1038 204 1068 l 96 1038 q 101 1142 96 1107 q 128 1197 107 1178 q 194 1217 149 1217 q 300 1196 235 1217 q 360 1183 344 1183 q 376 1193 374 1183 q 379 1233 379 1203 l 486 1233 z "},"Ő":{"ha":583,"x_min":39,"x_max":544,"o":"m 292 -11 q 116 32 168 -11 q 51 167 64 75 q 39 478 39 260 q 51 788 39 696 q 116 924 64 881 q 292 967 168 967 q 467 924 415 967 q 532 788 519 881 q 544 478 544 694 q 532 168 544 261 q 467 32 519 75 q 292 -11 415 -11 m 292 163 q 335 177 324 163 q 349 251 346 192 q 353 478 353 310 q 349 705 353 646 q 335 778 346 764 q 292 793 324 793 q 249 778 260 793 q 234 705 238 764 q 231 478 231 646 q 234 251 231 310 q 249 177 238 192 q 292 163 260 163 m 153 1051 l 153 1057 l 192 1213 l 335 1213 l 335 1207 l 274 1051 l 153 1051 m 331 1051 l 331 1057 l 369 1213 l 513 1213 l 513 1207 l 451 1051 l 331 1051 z "},"Ȏ":{"ha":583,"x_min":39,"x_max":544,"o":"m 292 -11 q 116 32 168 -11 q 51 167 64 75 q 39 478 39 260 q 51 788 39 696 q 116 924 64 881 q 292 967 168 967 q 467 924 415 967 q 532 788 519 881 q 544 478 544 694 q 532 168 544 261 q 467 32 519 75 q 292 -11 415 -11 m 292 163 q 335 177 324 163 q 349 251 346 192 q 353 478 353 310 q 349 705 353 646 q 335 778 346 764 q 292 793 324 793 q 249 778 260 793 q 234 705 238 764 q 231 478 231 646 q 234 251 231 310 q 249 177 238 192 q 292 163 260 163 m 121 1060 q 133 1158 121 1119 q 183 1219 146 1197 q 293 1242 221 1242 q 401 1219 364 1242 q 451 1158 439 1197 q 464 1060 464 1119 l 351 1060 q 342 1119 351 1101 q 293 1136 332 1136 q 242 1118 253 1136 q 232 1060 232 1100 l 121 1060 z "},"Ō":{"ha":583,"x_min":39,"x_max":544,"o":"m 292 -11 q 116 32 168 -11 q 51 167 64 75 q 39 478 39 260 q 51 788 39 696 q 116 924 64 881 q 292 967 168 967 q 467 924 415 967 q 532 788 519 881 q 544 478 544 694 q 532 168 544 261 q 467 32 519 75 q 292 -11 415 -11 m 292 163 q 335 177 324 163 q 349 251 346 192 q 353 478 353 310 q 349 705 353 646 q 335 778 346 764 q 292 793 324 793 q 249 778 260 793 q 234 705 238 764 q 231 478 231 646 q 234 251 231 310 q 249 177 238 192 q 292 163 260 163 m 169 1069 l 169 1233 l 414 1233 l 414 1069 l 169 1069 z "},"Ǫ":{"ha":583,"x_min":39,"x_max":544,"o":"m 389 -272 q 288 -239 319 -272 q 256 -153 256 -206 q 307 -11 256 -81 l 292 -11 q 116 32 168 -11 q 51 167 64 75 q 39 478 39 260 q 51 788 39 696 q 116 924 64 881 q 292 967 168 967 q 467 924 415 967 q 532 788 519 881 q 544 478 544 694 q 541 258 544 333 q 523 127 538 182 q 476 40 508 72 q 418 -33 444 11 q 392 -122 392 -78 q 440 -172 392 -172 l 456 -171 l 456 -267 q 389 -272 419 -272 m 292 163 q 335 177 324 163 q 349 251 346 192 q 353 478 353 310 q 349 705 353 646 q 335 778 346 764 q 292 793 324 793 q 249 778 260 793 q 234 705 238 764 q 231 478 231 646 q 234 251 231 310 q 249 177 238 192 q 292 163 260 163 z "},"Ø":{"ha":583,"x_min":39,"x_max":544,"o":"m 499 888 q 537 750 529 838 q 544 478 544 663 q 532 168 544 261 q 467 32 519 75 q 292 -11 415 -11 q 219 -7 253 -11 l 199 -76 l 39 -76 l 85 68 q 47 206 54 118 q 39 478 39 293 q 51 788 39 696 q 116 924 64 881 q 292 967 168 967 q 363 963 331 967 l 385 1032 l 544 1032 l 499 888 m 292 163 q 335 177 324 163 q 349 251 346 192 q 353 478 353 310 q 349 705 353 646 q 335 778 346 764 q 292 793 324 793 q 249 778 260 793 q 234 705 238 764 q 231 478 231 646 q 234 251 231 310 q 249 177 238 192 q 292 163 260 163 z "},"Ǿ":{"ha":583,"x_min":39,"x_max":544,"o":"m 499 888 q 537 750 529 838 q 544 478 544 663 q 532 168 544 261 q 467 32 519 75 q 292 -11 415 -11 q 219 -7 253 -11 l 199 -76 l 39 -76 l 85 68 q 47 206 54 118 q 39 478 39 293 q 51 788 39 696 q 116 924 64 881 q 292 967 168 967 q 363 963 331 967 l 385 1032 l 544 1032 l 499 888 m 292 163 q 335 177 324 163 q 349 251 346 192 q 353 478 353 310 q 349 705 353 646 q 335 778 346 764 q 292 793 324 793 q 249 778 260 793 q 234 705 238 764 q 231 478 231 646 q 234 251 231 310 q 249 177 238 192 q 292 163 260 163 m 176 1029 l 176 1036 l 226 1233 l 401 1233 l 401 1226 l 324 1029 l 176 1029 z "},"Õ":{"ha":583,"x_min":39,"x_max":544,"o":"m 292 -11 q 116 32 168 -11 q 51 167 64 75 q 39 478 39 260 q 51 788 39 696 q 116 924 64 881 q 292 967 168 967 q 467 924 415 967 q 532 788 519 881 q 544 478 544 694 q 532 168 544 261 q 467 32 519 75 q 292 -11 415 -11 m 292 163 q 335 177 324 163 q 349 251 346 192 q 353 478 353 310 q 349 705 353 646 q 335 778 346 764 q 292 793 324 793 q 249 778 260 793 q 234 705 238 764 q 231 478 231 646 q 234 251 231 310 q 249 177 238 192 q 292 163 260 163 m 488 1238 q 483 1132 488 1167 q 458 1077 478 1097 q 392 1057 438 1057 q 285 1078 353 1057 q 256 1087 275 1081 q 225 1093 238 1093 q 208 1083 211 1093 q 206 1042 206 1072 l 97 1042 q 103 1147 97 1111 q 129 1201 108 1182 q 196 1221 150 1221 q 301 1200 236 1221 q 361 1188 346 1188 q 378 1197 375 1188 q 381 1238 381 1207 l 488 1238 z "},"Œ":{"ha":817,"x_min":39,"x_max":779,"o":"m 292 0 q 116 42 168 0 q 51 175 64 85 q 39 478 39 265 q 51 781 39 690 q 116 913 64 871 q 292 956 168 956 l 779 956 l 779 782 l 589 782 q 518 789 549 782 q 535 699 529 751 q 543 569 540 647 l 756 569 l 756 396 l 544 396 q 538 258 543 313 q 518 167 532 204 q 589 172 549 172 l 779 172 l 779 0 l 292 0 m 292 172 q 335 187 324 172 q 349 258 346 201 q 353 478 353 315 q 349 696 353 639 q 335 767 346 753 q 292 782 324 782 q 249 767 260 782 q 234 696 238 753 q 231 478 231 639 q 234 258 231 315 q 249 187 238 201 q 292 172 260 172 z "},"P":{"ha":561,"x_min":54,"x_max":542,"o":"m 54 956 l 319 956 q 462 920 414 956 q 526 816 510 885 q 542 628 542 747 q 527 445 542 514 q 464 338 513 376 q 319 299 415 299 l 244 299 l 244 0 l 54 0 l 54 956 m 286 471 q 329 481 317 471 q 347 522 342 490 q 351 628 351 553 q 347 732 351 701 q 330 772 343 763 q 286 782 317 782 l 244 782 l 244 471 l 286 471 z "},"Þ":{"ha":561,"x_min":54,"x_max":542,"o":"m 54 956 l 244 956 l 244 818 l 319 818 q 462 783 414 818 q 526 678 510 747 q 542 490 542 610 q 527 308 542 376 q 464 199 513 239 q 319 160 415 160 l 244 160 l 244 0 l 54 0 l 54 956 m 286 333 q 329 343 317 333 q 347 384 342 353 q 351 490 351 415 q 347 596 351 565 q 331 635 343 626 q 286 644 318 644 l 244 644 l 244 333 l 286 333 z "},"Q":{"ha":583,"x_min":39,"x_max":601,"o":"m 325 -10 q 292 -11 314 -11 q 116 32 168 -11 q 51 167 64 75 q 39 478 39 260 q 51 788 39 696 q 116 924 64 881 q 292 967 168 967 q 467 924 415 967 q 532 788 519 881 q 544 478 544 694 q 534 192 544 282 q 483 53 524 101 l 601 -153 l 601 -160 l 404 -160 l 325 -10 m 292 163 q 335 177 324 163 q 349 251 346 192 q 353 478 353 310 q 349 705 353 646 q 335 778 346 764 q 292 793 324 793 q 249 778 260 793 q 234 705 238 764 q 231 478 231 646 q 234 251 231 310 q 249 177 238 192 q 292 163 260 163 z "},"R":{"ha":583,"x_min":54,"x_max":569,"o":"m 372 0 l 300 326 l 244 326 l 244 0 l 54 0 l 54 956 l 324 956 q 466 922 418 956 q 531 822 514 888 q 547 642 547 756 q 532 469 547 535 q 472 368 517 404 l 569 0 l 372 0 m 292 494 q 335 503 322 494 q 351 541 347 513 q 356 639 356 569 q 351 735 356 707 q 335 773 347 764 q 292 782 322 782 l 244 782 l 244 494 l 292 494 z "},"Ŕ":{"ha":583,"x_min":54,"x_max":569,"o":"m 372 0 l 300 326 l 244 326 l 244 0 l 54 0 l 54 956 l 324 956 q 466 922 418 956 q 531 822 514 888 q 547 642 547 756 q 532 469 547 535 q 472 368 517 404 l 569 0 l 372 0 m 292 494 q 335 503 322 494 q 351 541 347 513 q 356 639 356 569 q 351 735 356 707 q 335 773 347 764 q 292 782 322 782 l 244 782 l 244 494 l 292 494 m 224 1029 l 224 1036 l 274 1233 l 449 1233 l 449 1226 l 371 1029 l 224 1029 z "},"Ř":{"ha":583,"x_min":54,"x_max":569,"o":"m 372 0 l 300 326 l 244 326 l 244 0 l 54 0 l 54 956 l 324 956 q 466 922 418 956 q 531 822 514 888 q 547 642 547 756 q 532 469 547 535 q 472 368 517 404 l 569 0 l 372 0 m 292 494 q 335 503 322 494 q 351 541 347 513 q 356 639 356 569 q 351 735 356 707 q 335 773 347 764 q 292 782 322 782 l 244 782 l 244 494 l 292 494 m 201 1060 l 108 1222 l 108 1233 l 232 1233 l 290 1146 l 350 1233 l 474 1233 l 474 1222 l 379 1060 l 201 1060 z "},"Ŗ":{"ha":583,"x_min":54,"x_max":569,"o":"m 372 0 l 300 326 l 244 326 l 244 0 l 54 0 l 54 956 l 324 956 q 466 922 418 956 q 531 822 514 888 q 547 642 547 756 q 532 469 547 535 q 472 368 517 404 l 569 0 l 372 0 m 292 494 q 335 503 322 494 q 351 541 347 513 q 356 639 356 569 q 351 735 356 707 q 335 773 347 764 q 292 782 322 782 l 244 782 l 244 494 l 292 494 m 203 -310 q 258 -296 244 -310 q 271 -243 271 -282 l 271 -224 l 203 -224 l 203 -86 l 386 -86 l 386 -172 q 374 -308 386 -264 q 323 -372 361 -353 q 203 -390 285 -390 l 203 -310 z "},"Ȑ":{"ha":583,"x_min":54,"x_max":569,"o":"m 372 0 l 300 326 l 244 326 l 244 0 l 54 0 l 54 956 l 324 956 q 466 922 418 956 q 531 822 514 888 q 547 642 547 756 q 532 469 547 535 q 472 368 517 404 l 569 0 l 372 0 m 292 494 q 335 503 322 494 q 351 541 347 513 q 356 639 356 569 q 351 735 356 707 q 335 773 347 764 q 292 782 322 782 l 244 782 l 244 494 l 292 494 m 263 1051 l 142 1051 l 81 1207 l 81 1213 l 224 1213 l 263 1057 l 263 1051 m 440 1051 l 319 1051 l 258 1207 l 258 1213 l 401 1213 l 440 1057 l 440 1051 z "},"Ṛ":{"ha":583,"x_min":54,"x_max":569,"o":"m 372 0 l 300 326 l 244 326 l 244 0 l 54 0 l 54 956 l 324 956 q 466 922 418 956 q 531 822 514 888 q 547 642 547 756 q 532 469 547 535 q 472 368 517 404 l 569 0 l 372 0 m 292 494 q 335 503 322 494 q 351 541 347 513 q 356 639 356 569 q 351 735 356 707 q 335 773 347 764 q 292 782 322 782 l 244 782 l 244 494 l 292 494 m 193 -271 l 193 -86 l 388 -86 l 388 -271 l 193 -271 z "},"Ȓ":{"ha":583,"x_min":54,"x_max":569,"o":"m 372 0 l 300 326 l 244 326 l 244 0 l 54 0 l 54 956 l 324 956 q 466 922 418 956 q 531 822 514 888 q 547 642 547 756 q 532 469 547 535 q 472 368 517 404 l 569 0 l 372 0 m 292 494 q 335 503 322 494 q 351 541 347 513 q 356 639 356 569 q 351 735 356 707 q 335 773 347 764 q 292 782 322 782 l 244 782 l 244 494 l 292 494 m 121 1060 q 133 1158 121 1119 q 183 1219 146 1197 q 293 1242 221 1242 q 401 1219 364 1242 q 451 1158 439 1197 q 464 1060 464 1119 l 351 1060 q 342 1119 351 1101 q 293 1136 332 1136 q 242 1118 253 1136 q 232 1060 232 1100 l 121 1060 z "},"S":{"ha":513,"x_min":29,"x_max":488,"o":"m 247 -11 q 142 -4 200 -11 q 42 14 85 3 l 42 171 q 196 163 132 163 q 253 166 235 163 q 281 182 271 169 q 292 215 289 194 q 296 269 296 235 q 292 347 296 325 q 273 380 288 369 q 221 399 258 390 l 119 422 q 49 497 69 433 q 29 676 29 561 q 59 859 29 796 q 142 944 89 922 q 276 967 194 967 q 394 958 343 967 q 457 943 446 949 l 457 785 q 415 790 451 788 q 332 793 378 793 q 267 790 289 793 q 238 774 246 786 q 223 742 226 763 q 219 683 219 722 q 223 622 219 642 q 236 594 226 603 q 269 579 246 585 l 357 558 q 426 528 397 549 q 471 456 454 507 q 488 303 488 406 q 459 100 488 168 q 381 10 431 32 q 247 -11 331 -11 z "},"Ś":{"ha":513,"x_min":29,"x_max":488,"o":"m 247 -11 q 142 -4 200 -11 q 42 14 85 3 l 42 171 q 196 163 132 163 q 253 166 235 163 q 281 182 271 169 q 292 215 289 194 q 296 269 296 235 q 292 347 296 325 q 273 380 288 369 q 221 399 258 390 l 119 422 q 49 497 69 433 q 29 676 29 561 q 59 859 29 796 q 142 944 89 922 q 276 967 194 967 q 394 958 343 967 q 457 943 446 949 l 457 785 q 415 790 451 788 q 332 793 378 793 q 267 790 289 793 q 238 774 246 786 q 223 742 226 763 q 219 683 219 722 q 223 622 219 642 q 236 594 226 603 q 269 579 246 585 l 357 558 q 426 528 397 549 q 471 456 454 507 q 488 303 488 406 q 459 100 488 168 q 381 10 431 32 q 247 -11 331 -11 m 189 1029 l 189 1036 l 239 1233 l 414 1233 l 414 1226 l 336 1029 l 189 1029 z "},"Ꞌ":{"ha":225,"x_min":28,"x_max":197,"o":"m 28 368 l 28 956 l 197 956 l 197 726 l 160 368 l 28 368 z "},"Š":{"ha":513,"x_min":29,"x_max":488,"o":"m 247 -11 q 142 -4 200 -11 q 42 14 85 3 l 42 171 q 196 163 132 163 q 253 166 235 163 q 281 182 271 169 q 292 215 289 194 q 296 269 296 235 q 292 347 296 325 q 273 380 288 369 q 221 399 258 390 l 119 422 q 49 497 69 433 q 29 676 29 561 q 59 859 29 796 q 142 944 89 922 q 276 967 194 967 q 394 958 343 967 q 457 943 446 949 l 457 785 q 415 790 451 788 q 332 793 378 793 q 267 790 289 793 q 238 774 246 786 q 223 742 226 763 q 219 683 219 722 q 223 622 219 642 q 236 594 226 603 q 269 579 246 585 l 357 558 q 426 528 397 549 q 471 456 454 507 q 488 303 488 406 q 459 100 488 168 q 381 10 431 32 q 247 -11 331 -11 m 171 1042 l 78 1204 l 78 1215 l 201 1215 l 260 1128 l 319 1215 l 443 1215 l 443 1204 l 349 1042 l 171 1042 z "},"Ş":{"ha":513,"x_min":29,"x_max":488,"o":"m 488 303 q 467 124 488 189 q 410 29 447 58 q 314 -7 372 0 l 268 -261 l 117 -261 l 117 -254 l 196 -10 q 42 14 104 -3 l 42 171 q 196 163 132 163 q 253 166 235 163 q 281 182 271 169 q 292 215 289 194 q 296 269 296 235 q 292 347 296 325 q 273 380 288 369 q 221 399 258 390 l 119 422 q 49 497 69 433 q 29 676 29 561 q 59 859 29 796 q 142 944 89 922 q 276 967 194 967 q 394 958 343 967 q 457 943 446 949 l 457 785 q 415 790 451 788 q 332 793 378 793 q 267 790 289 793 q 238 774 246 786 q 223 742 226 763 q 219 683 219 722 q 223 622 219 642 q 236 594 226 603 q 269 579 246 585 l 357 558 q 426 528 397 549 q 471 456 454 507 q 488 303 488 406 z "},"Ŝ":{"ha":513,"x_min":29,"x_max":488,"o":"m 247 -11 q 142 -4 200 -11 q 42 14 85 3 l 42 171 q 196 163 132 163 q 253 166 235 163 q 281 182 271 169 q 292 215 289 194 q 296 269 296 235 q 292 347 296 325 q 273 380 288 369 q 221 399 258 390 l 119 422 q 49 497 69 433 q 29 676 29 561 q 59 859 29 796 q 142 944 89 922 q 276 967 194 967 q 394 958 343 967 q 457 943 446 949 l 457 785 q 415 790 451 788 q 332 793 378 793 q 267 790 289 793 q 238 774 246 786 q 223 742 226 763 q 219 683 219 722 q 223 622 219 642 q 236 594 226 603 q 269 579 246 585 l 357 558 q 426 528 397 549 q 471 456 454 507 q 488 303 488 406 q 459 100 488 168 q 381 10 431 32 q 247 -11 331 -11 m 74 1060 l 74 1071 l 167 1233 l 344 1233 l 439 1071 l 439 1060 l 315 1060 l 256 1147 l 197 1060 l 74 1060 z "},"Ș":{"ha":513,"x_min":29,"x_max":488,"o":"m 247 -11 q 142 -4 200 -11 q 42 14 85 3 l 42 171 q 196 163 132 163 q 253 166 235 163 q 281 182 271 169 q 292 215 289 194 q 296 269 296 235 q 292 347 296 325 q 273 380 288 369 q 221 399 258 390 l 119 422 q 49 497 69 433 q 29 676 29 561 q 59 859 29 796 q 142 944 89 922 q 276 967 194 967 q 394 958 343 967 q 457 943 446 949 l 457 785 q 415 790 451 788 q 332 793 378 793 q 267 790 289 793 q 238 774 246 786 q 223 742 226 763 q 219 683 219 722 q 223 622 219 642 q 236 594 226 603 q 269 579 246 585 l 357 558 q 426 528 397 549 q 471 456 454 507 q 488 303 488 406 q 459 100 488 168 q 381 10 431 32 q 247 -11 331 -11 m 168 -310 q 223 -296 210 -310 q 236 -243 236 -282 l 236 -224 l 168 -224 l 168 -86 l 351 -86 l 351 -172 q 339 -308 351 -264 q 288 -372 326 -353 q 168 -390 250 -390 l 168 -310 z "},"Ṣ":{"ha":513,"x_min":29,"x_max":488,"o":"m 247 -11 q 142 -4 200 -11 q 42 14 85 3 l 42 171 q 196 163 132 163 q 253 166 235 163 q 281 182 271 169 q 292 215 289 194 q 296 269 296 235 q 292 347 296 325 q 273 380 288 369 q 221 399 258 390 l 119 422 q 49 497 69 433 q 29 676 29 561 q 59 859 29 796 q 142 944 89 922 q 276 967 194 967 q 394 958 343 967 q 457 943 446 949 l 457 785 q 415 790 451 788 q 332 793 378 793 q 267 790 289 793 q 238 774 246 786 q 223 742 226 763 q 219 683 219 722 q 223 622 219 642 q 236 594 226 603 q 269 579 246 585 l 357 558 q 426 528 397 549 q 471 456 454 507 q 488 303 488 406 q 459 100 488 168 q 381 10 431 32 q 247 -11 331 -11 m 158 -271 l 158 -86 l 353 -86 l 353 -271 l 158 -271 z "},"ẞ":{"ha":697,"x_min":47,"x_max":668,"o":"m 503 531 q 626 453 585 517 q 668 251 668 389 q 644 96 668 153 q 570 14 621 39 q 435 -11 519 -11 q 367 -4 406 -11 q 300 13 328 3 l 300 171 q 368 163 338 163 q 440 169 418 163 q 469 199 461 176 q 478 274 478 221 q 469 355 478 329 q 438 389 460 381 q 369 397 415 397 l 313 397 l 313 539 l 433 788 q 360 793 401 793 q 275 774 299 793 q 245 697 251 756 q 239 488 239 639 l 239 0 l 47 0 l 47 488 q 69 787 47 689 q 153 926 90 885 q 351 967 217 967 q 500 958 418 967 q 635 938 582 950 l 635 797 l 503 531 z "},"Ə":{"ha":583,"x_min":39,"x_max":544,"o":"m 267 967 q 448 921 389 967 q 526 775 507 875 q 544 478 544 675 q 532 168 544 261 q 467 32 519 75 q 292 -11 415 -11 q 116 32 168 -11 q 51 167 64 75 q 39 478 39 260 l 39 569 l 353 569 q 342 721 351 676 q 306 779 332 765 q 221 793 281 793 q 96 786 149 793 l 96 942 q 267 967 165 967 m 292 163 q 340 174 326 163 q 359 231 354 185 q 365 396 364 278 l 218 396 q 224 231 219 276 q 242 174 229 185 q 292 163 256 163 z "},"T":{"ha":488,"x_min":8,"x_max":479,"o":"m 149 0 l 149 779 l 8 779 l 8 956 l 479 956 l 479 779 l 339 779 l 339 0 l 149 0 z "},"Ŧ":{"ha":488,"x_min":8,"x_max":479,"o":"m 479 779 l 339 779 l 339 569 l 444 569 l 444 417 l 339 417 l 339 0 l 149 0 l 149 417 l 43 417 l 43 569 l 149 569 l 149 779 l 8 779 l 8 956 l 479 956 l 479 779 z "},"Ť":{"ha":488,"x_min":8,"x_max":479,"o":"m 149 0 l 149 779 l 8 779 l 8 956 l 479 956 l 479 779 l 339 779 l 339 0 l 149 0 m 153 1060 l 60 1222 l 60 1233 l 183 1233 l 242 1146 l 301 1233 l 425 1233 l 425 1222 l 331 1060 l 153 1060 z "},"Ţ":{"ha":488,"x_min":8,"x_max":479,"o":"m 8 956 l 479 956 l 479 779 l 339 779 l 339 0 l 301 0 l 254 -261 l 103 -261 l 103 -254 l 185 0 l 149 0 l 149 779 l 8 779 l 8 956 z "},"Ț":{"ha":488,"x_min":8,"x_max":479,"o":"m 149 0 l 149 779 l 8 779 l 8 956 l 479 956 l 479 779 l 339 779 l 339 0 l 149 0 m 154 -310 q 209 -296 196 -310 q 222 -243 222 -282 l 222 -224 l 154 -224 l 154 -86 l 338 -86 l 338 -172 q 325 -308 338 -264 q 274 -372 313 -353 q 154 -390 236 -390 l 154 -310 z "},"Ṭ":{"ha":488,"x_min":8,"x_max":479,"o":"m 149 0 l 149 779 l 8 779 l 8 956 l 479 956 l 479 779 l 339 779 l 339 0 l 149 0 m 144 -271 l 144 -86 l 339 -86 l 339 -271 l 144 -271 z "},"U":{"ha":590,"x_min":47,"x_max":542,"o":"m 542 956 l 542 422 q 529 149 542 232 q 465 28 517 67 q 294 -11 414 -11 q 124 28 175 -11 q 60 149 72 67 q 47 422 47 232 l 47 956 l 239 956 l 239 354 q 242 219 239 254 q 255 173 244 183 q 294 163 265 163 q 334 173 324 163 q 347 219 344 183 q 350 354 350 254 l 350 956 l 542 956 z "},"Ú":{"ha":590,"x_min":47,"x_max":542,"o":"m 542 956 l 542 422 q 529 149 542 232 q 465 28 517 67 q 294 -11 414 -11 q 124 28 175 -11 q 60 149 72 67 q 47 422 47 232 l 47 956 l 239 956 l 239 354 q 242 219 239 254 q 255 173 244 183 q 294 163 265 163 q 334 173 324 163 q 347 219 344 183 q 350 354 350 254 l 350 956 l 542 956 m 217 1042 l 217 1049 l 267 1246 l 442 1246 l 442 1239 l 364 1042 l 217 1042 z "},"Ŭ":{"ha":590,"x_min":47,"x_max":542,"o":"m 542 956 l 542 422 q 529 149 542 232 q 465 28 517 67 q 294 -11 414 -11 q 124 28 175 -11 q 60 149 72 67 q 47 422 47 232 l 47 956 l 239 956 l 239 354 q 242 219 239 254 q 255 173 244 183 q 294 163 265 163 q 334 173 324 163 q 347 219 344 183 q 350 354 350 254 l 350 956 l 542 956 m 465 1233 q 453 1135 465 1174 q 403 1074 440 1096 q 293 1051 365 1051 q 185 1074 222 1051 q 135 1135 147 1096 q 122 1233 122 1174 l 235 1233 q 244 1174 235 1192 q 293 1157 254 1157 q 344 1175 333 1157 q 354 1233 354 1193 l 465 1233 z "},"Ǔ":{"ha":590,"x_min":47,"x_max":542,"o":"m 542 956 l 542 422 q 529 149 542 232 q 465 28 517 67 q 294 -11 414 -11 q 124 28 175 -11 q 60 149 72 67 q 47 422 47 232 l 47 956 l 239 956 l 239 354 q 242 219 239 254 q 255 173 244 183 q 294 163 265 163 q 334 173 324 163 q 347 219 344 183 q 350 354 350 254 l 350 956 l 542 956 m 204 1060 l 111 1222 l 111 1233 l 235 1233 l 293 1146 l 353 1233 l 476 1233 l 476 1222 l 382 1060 l 204 1060 z "},"Û":{"ha":590,"x_min":47,"x_max":542,"o":"m 542 956 l 542 422 q 529 149 542 232 q 465 28 517 67 q 294 -11 414 -11 q 124 28 175 -11 q 60 149 72 67 q 47 422 47 232 l 47 956 l 239 956 l 239 354 q 242 219 239 254 q 255 173 244 183 q 294 163 265 163 q 334 173 324 163 q 347 219 344 183 q 350 354 350 254 l 350 956 l 542 956 m 111 1042 l 111 1053 l 204 1215 l 382 1215 l 476 1053 l 476 1042 l 353 1042 l 293 1129 l 235 1042 l 111 1042 z "},"Ȕ":{"ha":590,"x_min":47,"x_max":542,"o":"m 542 956 l 542 422 q 529 149 542 232 q 465 28 517 67 q 294 -11 414 -11 q 124 28 175 -11 q 60 149 72 67 q 47 422 47 232 l 47 956 l 239 956 l 239 354 q 242 219 239 254 q 255 173 244 183 q 294 163 265 163 q 334 173 324 163 q 347 219 344 183 q 350 354 350 254 l 350 956 l 542 956 m 265 1051 l 144 1051 l 83 1207 l 83 1213 l 226 1213 l 265 1057 l 265 1051 m 443 1051 l 322 1051 l 261 1207 l 261 1213 l 404 1213 l 443 1057 l 443 1051 z "},"Ü":{"ha":590,"x_min":47,"x_max":542,"o":"m 542 956 l 542 422 q 529 149 542 232 q 465 28 517 67 q 294 -11 414 -11 q 124 28 175 -11 q 60 149 72 67 q 47 422 47 232 l 47 956 l 239 956 l 239 354 q 242 219 239 254 q 255 173 244 183 q 294 163 265 163 q 334 173 324 163 q 347 219 344 183 q 350 354 350 254 l 350 956 l 542 956 m 106 1078 l 106 1222 l 260 1222 l 260 1078 l 106 1078 m 332 1078 l 332 1222 l 486 1222 l 486 1078 l 332 1078 z "},"Ǘ":{"ha":590,"x_min":47,"x_max":542,"o":"m 258 1206 l 258 1071 l 104 1071 l 104 1215 l 231 1215 l 279 1410 l 454 1410 l 454 1403 l 381 1215 l 485 1215 l 485 1071 l 331 1071 l 331 1206 l 258 1206 m 542 956 l 542 422 q 529 149 542 232 q 465 28 517 67 q 294 -11 414 -11 q 124 28 175 -11 q 60 149 72 67 q 47 422 47 232 l 47 956 l 239 956 l 239 354 q 242 219 239 254 q 255 173 244 183 q 294 163 265 163 q 334 173 324 163 q 347 219 344 183 q 350 354 350 254 l 350 956 l 542 956 z "},"Ǚ":{"ha":590,"x_min":47,"x_max":542,"o":"m 542 956 l 542 422 q 529 149 542 232 q 465 28 517 67 q 294 -11 414 -11 q 124 28 175 -11 q 60 149 72 67 q 47 422 47 232 l 47 956 l 239 956 l 239 354 q 242 219 239 254 q 255 173 244 183 q 294 163 265 163 q 334 173 324 163 q 347 219 344 183 q 350 354 350 254 l 350 956 l 542 956 m 104 1071 l 104 1215 l 258 1215 l 258 1071 l 104 1071 m 331 1071 l 331 1215 l 485 1215 l 485 1071 l 331 1071 m 207 1236 l 114 1399 l 114 1410 l 238 1410 l 296 1322 l 356 1410 l 479 1410 l 479 1399 l 385 1236 l 207 1236 z "},"Ǜ":{"ha":590,"x_min":47,"x_max":542,"o":"m 258 1206 l 258 1071 l 104 1071 l 104 1215 l 221 1215 l 147 1403 l 147 1410 l 322 1410 l 371 1215 l 485 1215 l 485 1071 l 331 1071 l 331 1206 l 258 1206 m 542 956 l 542 422 q 529 149 542 232 q 465 28 517 67 q 294 -11 414 -11 q 124 28 175 -11 q 60 149 72 67 q 47 422 47 232 l 47 956 l 239 956 l 239 354 q 242 219 239 254 q 255 173 244 183 q 294 163 265 163 q 334 173 324 163 q 347 219 344 183 q 350 354 350 254 l 350 956 l 542 956 z "},"Ǖ":{"ha":590,"x_min":47,"x_max":542,"o":"m 175 1226 l 175 1363 l 419 1363 l 419 1226 l 175 1226 m 104 1071 l 104 1215 l 258 1215 l 258 1071 l 104 1071 m 331 1071 l 331 1215 l 485 1215 l 485 1071 l 331 1071 m 542 956 l 542 422 q 529 149 542 232 q 465 28 517 67 q 294 -11 414 -11 q 124 28 175 -11 q 60 149 72 67 q 47 422 47 232 l 47 956 l 239 956 l 239 354 q 242 219 239 254 q 255 173 244 183 q 294 163 265 163 q 334 173 324 163 q 347 219 344 183 q 350 354 350 254 l 350 956 l 542 956 z "},"Ụ":{"ha":590,"x_min":47,"x_max":542,"o":"m 542 956 l 542 422 q 529 149 542 232 q 465 28 517 67 q 294 -11 414 -11 q 124 28 175 -11 q 60 149 72 67 q 47 422 47 232 l 47 956 l 239 956 l 239 354 q 242 219 239 254 q 255 173 244 183 q 294 163 265 163 q 334 173 324 163 q 347 219 344 183 q 350 354 350 254 l 350 956 l 542 956 m 196 -271 l 196 -86 l 390 -86 l 390 -271 l 196 -271 z "},"Ù":{"ha":590,"x_min":47,"x_max":542,"o":"m 542 956 l 542 422 q 529 149 542 232 q 465 28 517 67 q 294 -11 414 -11 q 124 28 175 -11 q 60 149 72 67 q 47 422 47 232 l 47 956 l 239 956 l 239 354 q 242 219 239 254 q 255 173 244 183 q 294 163 265 163 q 334 173 324 163 q 347 219 344 183 q 350 354 350 254 l 350 956 l 542 956 m 228 1042 l 150 1239 l 150 1246 l 325 1246 l 375 1049 l 375 1042 l 228 1042 z "},"Ủ":{"ha":590,"x_min":47,"x_max":542,"o":"m 542 956 l 542 422 q 529 149 542 232 q 465 28 517 67 q 294 -11 414 -11 q 124 28 175 -11 q 60 149 72 67 q 47 422 47 232 l 47 956 l 239 956 l 239 354 q 242 219 239 254 q 255 173 244 183 q 294 163 265 163 q 334 173 324 163 q 347 219 344 183 q 350 354 350 254 l 350 956 l 542 956 m 197 1051 q 208 1096 197 1081 q 243 1119 218 1111 l 257 1124 q 311 1145 299 1138 q 324 1168 324 1153 q 314 1186 324 1183 q 269 1189 304 1189 q 133 1188 181 1189 l 133 1288 q 290 1307 218 1307 q 413 1285 371 1307 q 454 1199 454 1264 q 451 1143 454 1163 q 433 1109 447 1124 q 389 1081 419 1094 l 374 1074 q 328 1053 339 1060 q 314 1040 317 1047 q 311 1015 311 1033 l 197 1015 l 197 1051 z "},"Ư":{"ha":590,"x_min":47,"x_max":619,"o":"m 619 1081 l 619 1056 q 605 935 619 972 q 542 885 590 899 l 542 422 q 529 149 542 232 q 465 28 517 67 q 294 -11 414 -11 q 124 28 175 -11 q 60 149 72 67 q 47 422 47 232 l 47 956 l 239 956 l 239 354 q 242 219 239 254 q 255 173 244 183 q 294 163 265 163 q 334 173 324 163 q 347 219 344 183 q 350 354 350 254 l 350 956 l 435 956 q 490 972 476 956 q 504 1032 504 988 l 504 1081 l 619 1081 z "},"Ứ":{"ha":590,"x_min":47,"x_max":619,"o":"m 619 1081 l 619 1056 q 605 935 619 972 q 542 885 590 899 l 542 422 q 529 149 542 232 q 465 28 517 67 q 294 -11 414 -11 q 124 28 175 -11 q 60 149 72 67 q 47 422 47 232 l 47 956 l 239 956 l 239 354 q 242 219 239 254 q 255 173 244 183 q 294 163 265 163 q 334 173 324 163 q 347 219 344 183 q 350 354 350 254 l 350 956 l 435 956 q 490 972 476 956 q 504 1032 504 988 l 504 1081 l 619 1081 m 226 1029 l 226 1036 l 276 1233 l 451 1233 l 451 1226 l 374 1029 l 226 1029 z "},"Ự":{"ha":590,"x_min":47,"x_max":619,"o":"m 619 1081 l 619 1056 q 605 935 619 972 q 542 885 590 899 l 542 422 q 529 149 542 232 q 465 28 517 67 q 294 -11 414 -11 q 124 28 175 -11 q 60 149 72 67 q 47 422 47 232 l 47 956 l 239 956 l 239 354 q 242 219 239 254 q 255 173 244 183 q 294 163 265 163 q 334 173 324 163 q 347 219 344 183 q 350 354 350 254 l 350 956 l 435 956 q 490 972 476 956 q 504 1032 504 988 l 504 1081 l 619 1081 m 196 -271 l 196 -86 l 390 -86 l 390 -271 l 196 -271 z "},"Ừ":{"ha":590,"x_min":47,"x_max":619,"o":"m 619 1081 l 619 1056 q 605 935 619 972 q 542 885 590 899 l 542 422 q 529 149 542 232 q 465 28 517 67 q 294 -11 414 -11 q 124 28 175 -11 q 60 149 72 67 q 47 422 47 232 l 47 956 l 239 956 l 239 354 q 242 219 239 254 q 255 173 244 183 q 294 163 265 163 q 334 173 324 163 q 347 219 344 183 q 350 354 350 254 l 350 956 l 435 956 q 490 972 476 956 q 504 1032 504 988 l 504 1081 l 619 1081 m 222 1029 l 144 1226 l 144 1233 l 319 1233 l 369 1036 l 369 1029 l 222 1029 z "},"Ử":{"ha":590,"x_min":47,"x_max":619,"o":"m 619 1081 l 619 1056 q 605 935 619 972 q 542 885 590 899 l 542 422 q 529 149 542 232 q 465 28 517 67 q 294 -11 414 -11 q 124 28 175 -11 q 60 149 72 67 q 47 422 47 232 l 47 956 l 239 956 l 239 354 q 242 219 239 254 q 255 173 244 183 q 294 163 265 163 q 334 173 324 163 q 347 219 344 183 q 350 354 350 254 l 350 956 l 435 956 q 490 972 476 956 q 504 1032 504 988 l 504 1081 l 619 1081 m 197 1051 q 208 1096 197 1081 q 243 1119 218 1111 l 257 1124 q 311 1145 299 1138 q 324 1168 324 1153 q 314 1186 324 1183 q 269 1189 304 1189 q 133 1188 181 1189 l 133 1288 q 290 1307 218 1307 q 413 1285 371 1307 q 454 1199 454 1264 q 451 1143 454 1163 q 433 1109 447 1124 q 389 1081 419 1094 l 374 1074 q 328 1053 339 1060 q 314 1040 317 1047 q 311 1015 311 1033 l 197 1015 l 197 1051 z "},"Ữ":{"ha":590,"x_min":47,"x_max":619,"o":"m 619 1081 l 619 1056 q 605 935 619 972 q 542 885 590 899 l 542 422 q 529 149 542 232 q 465 28 517 67 q 294 -11 414 -11 q 124 28 175 -11 q 60 149 72 67 q 47 422 47 232 l 47 956 l 239 956 l 239 354 q 242 219 239 254 q 255 173 244 183 q 294 163 265 163 q 334 173 324 163 q 347 219 344 183 q 350 354 350 254 l 350 956 l 435 956 q 490 972 476 956 q 504 1032 504 988 l 504 1081 l 619 1081 m 489 1233 q 484 1128 489 1163 q 459 1073 479 1093 q 393 1053 439 1053 q 286 1074 354 1053 q 258 1083 276 1076 q 226 1089 239 1089 q 210 1078 213 1089 q 207 1038 207 1068 l 99 1038 q 104 1142 99 1107 q 131 1197 110 1178 q 197 1217 151 1217 q 303 1196 238 1217 q 363 1183 347 1183 q 379 1193 376 1183 q 382 1233 382 1203 l 489 1233 z "},"Ű":{"ha":590,"x_min":47,"x_max":542,"o":"m 542 956 l 542 422 q 529 149 542 232 q 465 28 517 67 q 294 -11 414 -11 q 124 28 175 -11 q 60 149 72 67 q 47 422 47 232 l 47 956 l 239 956 l 239 354 q 242 219 239 254 q 255 173 244 183 q 294 163 265 163 q 334 173 324 163 q 347 219 344 183 q 350 354 350 254 l 350 956 l 542 956 m 156 1051 l 156 1057 l 194 1213 l 338 1213 l 338 1207 l 276 1051 l 156 1051 m 333 1051 l 333 1057 l 372 1213 l 515 1213 l 515 1207 l 454 1051 l 333 1051 z "},"Ȗ":{"ha":590,"x_min":47,"x_max":542,"o":"m 542 956 l 542 422 q 529 149 542 232 q 465 28 517 67 q 294 -11 414 -11 q 124 28 175 -11 q 60 149 72 67 q 47 422 47 232 l 47 956 l 239 956 l 239 354 q 242 219 239 254 q 255 173 244 183 q 294 163 265 163 q 334 173 324 163 q 347 219 344 183 q 350 354 350 254 l 350 956 l 542 956 m 124 1060 q 136 1158 124 1119 q 186 1219 149 1197 q 296 1242 224 1242 q 404 1219 367 1242 q 454 1158 442 1197 q 467 1060 467 1119 l 354 1060 q 344 1119 354 1101 q 296 1136 335 1136 q 245 1118 256 1136 q 235 1060 235 1100 l 124 1060 z "},"Ū":{"ha":590,"x_min":47,"x_max":542,"o":"m 542 956 l 542 422 q 529 149 542 232 q 465 28 517 67 q 294 -11 414 -11 q 124 28 175 -11 q 60 149 72 67 q 47 422 47 232 l 47 956 l 239 956 l 239 354 q 242 219 239 254 q 255 173 244 183 q 294 163 265 163 q 334 173 324 163 q 347 219 344 183 q 350 354 350 254 l 350 956 l 542 956 m 172 1069 l 172 1233 l 417 1233 l 417 1069 l 172 1069 z "},"Ų":{"ha":590,"x_min":47,"x_max":542,"o":"m 542 956 l 542 422 q 538 224 542 293 q 518 105 533 154 q 468 29 503 56 q 386 -119 386 -33 q 397 -158 386 -144 q 435 -172 407 -172 l 450 -171 l 450 -267 q 381 -272 414 -272 q 281 -238 311 -272 q 250 -150 250 -204 q 306 -11 250 -83 l 294 -11 q 124 28 175 -11 q 60 149 72 67 q 47 422 47 232 l 47 956 l 239 956 l 239 354 q 242 219 239 254 q 255 173 244 183 q 294 163 265 163 q 334 173 324 163 q 347 219 344 183 q 350 354 350 254 l 350 956 l 542 956 z "},"Ů":{"ha":590,"x_min":47,"x_max":542,"o":"m 542 956 l 542 422 q 529 149 542 232 q 465 28 517 67 q 294 -11 414 -11 q 124 28 175 -11 q 60 149 72 67 q 47 422 47 232 l 47 956 l 239 956 l 239 354 q 242 219 239 254 q 255 173 244 183 q 294 163 265 163 q 334 173 324 163 q 347 219 344 183 q 350 354 350 254 l 350 956 l 542 956 m 294 1010 q 179 1026 215 1010 q 134 1071 143 1042 q 125 1158 125 1100 q 134 1247 125 1218 q 179 1292 143 1276 q 294 1308 215 1308 q 409 1292 374 1308 q 453 1247 444 1276 q 463 1158 463 1218 q 453 1071 463 1100 q 409 1026 444 1042 q 294 1010 374 1010 m 294 1103 q 330 1108 319 1103 q 343 1123 340 1113 q 346 1158 346 1133 q 343 1195 346 1185 q 330 1210 340 1206 q 294 1215 319 1215 q 258 1210 268 1215 q 245 1195 247 1206 q 243 1158 243 1185 q 245 1122 243 1132 q 258 1108 247 1113 q 294 1103 269 1103 z "},"Ũ":{"ha":590,"x_min":47,"x_max":542,"o":"m 542 956 l 542 422 q 529 149 542 232 q 465 28 517 67 q 294 -11 414 -11 q 124 28 175 -11 q 60 149 72 67 q 47 422 47 232 l 47 956 l 239 956 l 239 354 q 242 219 239 254 q 255 173 244 183 q 294 163 265 163 q 334 173 324 163 q 347 219 344 183 q 350 354 350 254 l 350 956 l 542 956 m 489 1233 q 484 1128 489 1163 q 459 1073 479 1093 q 393 1053 439 1053 q 286 1074 354 1053 q 258 1083 276 1076 q 226 1089 239 1089 q 210 1078 213 1089 q 207 1038 207 1068 l 99 1038 q 104 1142 99 1107 q 131 1197 110 1178 q 197 1217 151 1217 q 303 1196 238 1217 q 363 1183 347 1183 q 379 1193 376 1183 q 382 1233 382 1203 l 489 1233 z "},"V":{"ha":572,"x_min":13,"x_max":560,"o":"m 142 0 l 13 956 l 204 956 l 283 197 l 297 197 l 371 956 l 560 956 l 431 0 l 142 0 z "},"W":{"ha":919,"x_min":19,"x_max":900,"o":"m 532 0 l 464 667 l 456 667 l 388 0 l 117 0 l 19 956 l 213 956 l 258 197 l 269 197 l 346 956 l 581 956 l 660 197 l 671 197 l 713 956 l 900 956 l 803 0 l 532 0 z "},"Ẃ":{"ha":919,"x_min":19,"x_max":900,"o":"m 532 0 l 464 667 l 456 667 l 388 0 l 117 0 l 19 956 l 213 956 l 258 197 l 269 197 l 346 956 l 581 956 l 660 197 l 671 197 l 713 956 l 900 956 l 803 0 l 532 0 m 393 1029 l 393 1036 l 443 1233 l 618 1233 l 618 1226 l 540 1029 l 393 1029 z "},"Ŵ":{"ha":919,"x_min":19,"x_max":900,"o":"m 532 0 l 464 667 l 456 667 l 388 0 l 117 0 l 19 956 l 213 956 l 258 197 l 269 197 l 346 956 l 581 956 l 660 197 l 671 197 l 713 956 l 900 956 l 803 0 l 532 0 m 278 1060 l 278 1071 l 371 1233 l 549 1233 l 643 1071 l 643 1060 l 519 1060 l 460 1147 l 401 1060 l 278 1060 z "},"Ẅ":{"ha":919,"x_min":19,"x_max":900,"o":"m 532 0 l 464 667 l 456 667 l 388 0 l 117 0 l 19 956 l 213 956 l 258 197 l 269 197 l 346 956 l 581 956 l 660 197 l 671 197 l 713 956 l 900 956 l 803 0 l 532 0 m 271 1071 l 271 1215 l 425 1215 l 425 1071 l 271 1071 m 497 1071 l 497 1215 l 651 1215 l 651 1071 l 497 1071 z "},"Ẁ":{"ha":919,"x_min":19,"x_max":900,"o":"m 532 0 l 464 667 l 456 667 l 388 0 l 117 0 l 19 956 l 213 956 l 258 197 l 269 197 l 346 956 l 581 956 l 660 197 l 671 197 l 713 956 l 900 956 l 803 0 l 532 0 m 389 1029 l 311 1226 l 311 1233 l 486 1233 l 536 1036 l 536 1029 l 389 1029 z "},"X":{"ha":593,"x_min":11,"x_max":582,"o":"m 381 0 l 300 350 l 288 350 l 206 0 l 11 0 l 156 481 l 14 956 l 214 956 l 293 622 l 304 622 l 385 956 l 579 956 l 436 486 l 582 0 l 381 0 z "},"Y":{"ha":550,"x_min":-3,"x_max":553,"o":"m 179 0 l 179 332 l -3 956 l 189 956 l 274 542 l 288 542 l 367 956 l 553 956 l 371 332 l 371 0 l 179 0 z "},"Ý":{"ha":550,"x_min":-3,"x_max":553,"o":"m 179 0 l 179 332 l -3 956 l 189 956 l 274 542 l 288 542 l 367 956 l 553 956 l 371 332 l 371 0 l 179 0 m 204 1042 l 204 1049 l 254 1246 l 429 1246 l 429 1239 l 351 1042 l 204 1042 z "},"Ŷ":{"ha":550,"x_min":-3,"x_max":553,"o":"m 179 0 l 179 332 l -3 956 l 189 956 l 274 542 l 288 542 l 367 956 l 553 956 l 371 332 l 371 0 l 179 0 m 92 1060 l 92 1071 l 185 1233 l 363 1233 l 457 1071 l 457 1060 l 333 1060 l 274 1147 l 215 1060 l 92 1060 z "},"Ÿ":{"ha":550,"x_min":-3,"x_max":553,"o":"m 179 0 l 179 332 l -3 956 l 189 956 l 274 542 l 288 542 l 367 956 l 553 956 l 371 332 l 371 0 l 179 0 m 90 1078 l 90 1222 l 244 1222 l 244 1078 l 90 1078 m 317 1078 l 317 1222 l 471 1222 l 471 1078 l 317 1078 z "},"Ỵ":{"ha":550,"x_min":-3,"x_max":553,"o":"m 179 0 l 179 332 l -3 956 l 189 956 l 274 542 l 288 542 l 367 956 l 553 956 l 371 332 l 371 0 l 179 0 m 176 -271 l 176 -86 l 371 -86 l 371 -271 l 176 -271 z "},"Ỳ":{"ha":550,"x_min":-3,"x_max":553,"o":"m 179 0 l 179 332 l -3 956 l 189 956 l 274 542 l 288 542 l 367 956 l 553 956 l 371 332 l 371 0 l 179 0 m 203 1029 l 125 1226 l 125 1233 l 300 1233 l 350 1036 l 350 1029 l 203 1029 z "},"Ỷ":{"ha":550,"x_min":-3,"x_max":553,"o":"m 179 0 l 179 332 l -3 956 l 189 956 l 274 542 l 288 542 l 367 956 l 553 956 l 371 332 l 371 0 l 179 0 m 178 1051 q 188 1096 178 1081 q 224 1119 199 1111 l 238 1124 q 292 1145 279 1138 q 304 1168 304 1153 q 294 1186 304 1183 q 250 1189 285 1189 q 114 1188 161 1189 l 114 1288 q 271 1307 199 1307 q 393 1285 351 1307 q 435 1199 435 1264 q 431 1143 435 1163 q 414 1109 428 1124 q 369 1081 400 1094 l 354 1074 q 308 1053 319 1060 q 294 1040 297 1047 q 292 1015 292 1033 l 178 1015 l 178 1051 z "},"Ȳ":{"ha":550,"x_min":-3,"x_max":553,"o":"m 179 0 l 179 332 l -3 956 l 189 956 l 274 542 l 288 542 l 367 956 l 553 956 l 371 332 l 371 0 l 179 0 m 153 1069 l 153 1233 l 397 1233 l 397 1069 l 153 1069 z "},"Ỹ":{"ha":550,"x_min":-3,"x_max":553,"o":"m 179 0 l 179 332 l -3 956 l 189 956 l 274 542 l 288 542 l 367 956 l 553 956 l 371 332 l 371 0 l 179 0 m 469 1233 q 465 1128 469 1163 q 440 1073 460 1093 q 374 1053 419 1053 q 267 1074 335 1053 q 238 1083 257 1076 q 207 1089 219 1089 q 190 1078 193 1089 q 188 1038 188 1068 l 79 1038 q 85 1142 79 1107 q 111 1197 90 1178 q 178 1217 132 1217 q 283 1196 218 1217 q 343 1183 328 1183 q 360 1193 357 1183 q 363 1233 363 1203 l 469 1233 z "},"Z":{"ha":510,"x_min":33,"x_max":474,"o":"m 33 0 l 33 161 l 269 782 l 42 782 l 42 956 l 474 956 l 474 794 l 238 172 l 474 172 l 474 0 l 33 0 z "},"Ź":{"ha":510,"x_min":33,"x_max":474,"o":"m 33 0 l 33 161 l 269 782 l 42 782 l 42 956 l 474 956 l 474 794 l 238 172 l 474 172 l 474 0 l 33 0 m 186 1029 l 186 1036 l 236 1233 l 411 1233 l 411 1226 l 333 1029 l 186 1029 z "},"Ž":{"ha":510,"x_min":33,"x_max":474,"o":"m 33 0 l 33 161 l 269 782 l 42 782 l 42 956 l 474 956 l 474 794 l 238 172 l 474 172 l 474 0 l 33 0 m 174 1043 l 81 1206 l 81 1217 l 204 1217 l 263 1129 l 322 1217 l 446 1217 l 446 1206 l 351 1043 l 174 1043 z "},"Ż":{"ha":510,"x_min":33,"x_max":474,"o":"m 33 0 l 33 161 l 269 782 l 42 782 l 42 956 l 474 956 l 474 794 l 238 172 l 474 172 l 474 0 l 33 0 m 176 1071 l 176 1215 l 331 1215 l 331 1071 l 176 1071 z "},"Ẓ":{"ha":510,"x_min":33,"x_max":474,"o":"m 33 0 l 33 161 l 269 782 l 42 782 l 42 956 l 474 956 l 474 794 l 238 172 l 474 172 l 474 0 l 33 0 m 156 -271 l 156 -86 l 350 -86 l 350 -271 l 156 -271 z "},"a":{"ha":515,"x_min":24,"x_max":471,"o":"m 167 -11 q 54 41 85 -11 q 24 206 24 93 q 39 334 24 288 q 91 402 54 381 q 192 424 128 424 q 292 417 226 424 l 292 453 q 285 531 292 508 q 259 560 279 553 q 188 567 239 567 q 53 560 104 567 l 53 701 q 243 719 157 719 q 383 692 335 719 q 451 605 432 665 q 471 435 471 544 l 471 0 l 299 0 l 293 82 l 282 82 q 239 13 271 36 q 167 -11 207 -11 m 239 151 q 268 156 257 151 q 285 178 279 161 q 292 261 292 206 l 292 301 l 242 301 q 204 286 214 301 q 194 222 194 271 q 202 166 194 181 q 239 151 210 151 z "},"á":{"ha":515,"x_min":24,"x_max":471,"o":"m 167 -11 q 54 41 85 -11 q 24 206 24 93 q 39 334 24 288 q 91 402 54 381 q 192 424 128 424 q 292 417 226 424 l 292 453 q 285 531 292 508 q 259 560 279 553 q 188 567 239 567 q 53 560 104 567 l 53 701 q 243 719 157 719 q 383 692 335 719 q 451 605 432 665 q 471 435 471 544 l 471 0 l 299 0 l 293 82 l 282 82 q 239 13 271 36 q 167 -11 207 -11 m 239 151 q 268 156 257 151 q 285 178 279 161 q 292 261 292 206 l 292 301 l 242 301 q 204 286 214 301 q 194 222 194 271 q 202 166 194 181 q 239 151 210 151 m 183 828 l 183 835 l 233 1032 l 408 1032 l 408 1025 l 331 828 l 183 828 z "},"ă":{"ha":515,"x_min":24,"x_max":471,"o":"m 167 -11 q 54 41 85 -11 q 24 206 24 93 q 39 334 24 288 q 91 402 54 381 q 192 424 128 424 q 292 417 226 424 l 292 453 q 285 531 292 508 q 259 560 279 553 q 188 567 239 567 q 53 560 104 567 l 53 701 q 243 719 157 719 q 383 692 335 719 q 451 605 432 665 q 471 435 471 544 l 471 0 l 299 0 l 293 82 l 282 82 q 239 13 271 36 q 167 -11 207 -11 m 239 151 q 268 156 257 151 q 285 178 279 161 q 292 261 292 206 l 292 301 l 242 301 q 204 286 214 301 q 194 222 194 271 q 202 166 194 181 q 239 151 210 151 m 429 1032 q 417 933 429 972 q 367 872 404 894 q 257 850 329 850 q 149 872 186 850 q 99 933 111 894 q 86 1032 86 972 l 199 1032 q 208 973 199 990 q 257 956 218 956 q 308 974 297 956 q 318 1032 318 992 l 429 1032 z "},"ắ":{"ha":515,"x_min":24,"x_max":471,"o":"m 167 -11 q 54 41 85 -11 q 24 206 24 93 q 39 334 24 288 q 91 402 54 381 q 192 424 128 424 q 292 417 226 424 l 292 453 q 285 531 292 508 q 259 560 279 553 q 188 567 239 567 q 53 560 104 567 l 53 701 q 243 719 157 719 q 383 692 335 719 q 451 605 432 665 q 471 435 471 544 l 471 0 l 299 0 l 293 82 l 282 82 q 239 13 271 36 q 167 -11 207 -11 m 239 151 q 268 156 257 151 q 285 178 279 161 q 292 261 292 206 l 292 301 l 242 301 q 204 286 214 301 q 194 222 194 271 q 202 166 194 181 q 239 151 210 151 m 429 1032 q 417 933 429 972 q 367 872 404 894 q 257 850 329 850 q 149 872 186 850 q 99 933 111 894 q 86 1032 86 972 l 199 1032 q 208 973 199 990 q 257 956 218 956 q 308 974 297 956 q 318 1032 318 992 l 429 1032 m 178 1068 l 178 1075 l 228 1272 l 403 1272 l 403 1265 l 325 1068 l 178 1068 z "},"ặ":{"ha":515,"x_min":24,"x_max":471,"o":"m 167 -11 q 54 41 85 -11 q 24 206 24 93 q 39 334 24 288 q 91 402 54 381 q 192 424 128 424 q 292 417 226 424 l 292 453 q 285 531 292 508 q 259 560 279 553 q 188 567 239 567 q 53 560 104 567 l 53 701 q 243 719 157 719 q 383 692 335 719 q 451 605 432 665 q 471 435 471 544 l 471 0 l 299 0 l 293 82 l 282 82 q 239 13 271 36 q 167 -11 207 -11 m 239 151 q 268 156 257 151 q 285 178 279 161 q 292 261 292 206 l 292 301 l 242 301 q 204 286 214 301 q 194 222 194 271 q 202 166 194 181 q 239 151 210 151 m 160 -271 l 160 -86 l 354 -86 l 354 -271 l 160 -271 m 429 1032 q 417 933 429 972 q 367 872 404 894 q 257 850 329 850 q 149 872 186 850 q 99 933 111 894 q 86 1032 86 972 l 199 1032 q 208 973 199 990 q 257 956 218 956 q 308 974 297 956 q 318 1032 318 992 l 429 1032 z "},"ằ":{"ha":515,"x_min":24,"x_max":471,"o":"m 167 -11 q 54 41 85 -11 q 24 206 24 93 q 39 334 24 288 q 91 402 54 381 q 192 424 128 424 q 292 417 226 424 l 292 453 q 285 531 292 508 q 259 560 279 553 q 188 567 239 567 q 53 560 104 567 l 53 701 q 243 719 157 719 q 383 692 335 719 q 451 605 432 665 q 471 435 471 544 l 471 0 l 299 0 l 293 82 l 282 82 q 239 13 271 36 q 167 -11 207 -11 m 239 151 q 268 156 257 151 q 285 178 279 161 q 292 261 292 206 l 292 301 l 242 301 q 204 286 214 301 q 194 222 194 271 q 202 166 194 181 q 239 151 210 151 m 429 1032 q 417 933 429 972 q 367 872 404 894 q 257 850 329 850 q 149 872 186 850 q 99 933 111 894 q 86 1032 86 972 l 199 1032 q 208 973 199 990 q 257 956 218 956 q 308 974 297 956 q 318 1032 318 992 l 429 1032 m 185 1068 l 107 1265 l 107 1272 l 282 1272 l 332 1075 l 332 1068 l 185 1068 z "},"ẳ":{"ha":515,"x_min":24,"x_max":471,"o":"m 167 -11 q 54 41 85 -11 q 24 206 24 93 q 39 334 24 288 q 91 402 54 381 q 192 424 128 424 q 292 417 226 424 l 292 453 q 285 531 292 508 q 259 560 279 553 q 188 567 239 567 q 53 560 104 567 l 53 701 q 243 719 157 719 q 383 692 335 719 q 451 605 432 665 q 471 435 471 544 l 471 0 l 299 0 l 293 82 l 282 82 q 239 13 271 36 q 167 -11 207 -11 m 239 151 q 268 156 257 151 q 285 178 279 161 q 292 261 292 206 l 292 301 l 242 301 q 204 286 214 301 q 194 222 194 271 q 202 166 194 181 q 239 151 210 151 m 415 1032 q 403 933 415 972 q 353 872 390 894 q 243 850 315 850 q 135 872 172 850 q 85 933 97 894 q 72 1032 72 972 l 185 1032 q 194 973 185 990 q 243 956 204 956 q 294 974 283 956 q 304 1032 304 992 l 415 1032 m 185 1076 q 194 1121 185 1106 q 231 1144 204 1136 l 244 1150 q 299 1172 286 1164 q 311 1194 311 1179 q 301 1212 311 1208 q 257 1215 290 1215 q 121 1214 168 1215 l 121 1314 q 278 1333 218 1333 q 400 1312 358 1333 q 442 1224 442 1290 q 438 1168 442 1188 q 421 1134 435 1149 q 376 1107 407 1119 l 361 1100 q 316 1080 328 1086 q 301 1066 304 1074 q 299 1040 299 1058 l 185 1040 l 185 1076 z "},"ẵ":{"ha":515,"x_min":24,"x_max":471,"o":"m 167 -11 q 54 41 85 -11 q 24 206 24 93 q 39 334 24 288 q 91 402 54 381 q 192 424 128 424 q 292 417 226 424 l 292 453 q 285 531 292 508 q 259 560 279 553 q 188 567 239 567 q 53 560 104 567 l 53 701 q 243 719 157 719 q 383 692 335 719 q 451 605 432 665 q 471 435 471 544 l 471 0 l 299 0 l 293 82 l 282 82 q 239 13 271 36 q 167 -11 207 -11 m 239 151 q 268 156 257 151 q 285 178 279 161 q 292 261 292 206 l 292 301 l 242 301 q 204 286 214 301 q 194 222 194 271 q 202 166 194 181 q 239 151 210 151 m 426 1032 q 414 933 426 972 q 364 872 401 894 q 254 850 326 850 q 146 872 183 850 q 96 933 108 894 q 83 1032 83 972 l 196 1032 q 206 973 196 990 q 254 956 215 956 q 305 974 294 956 q 315 1032 315 992 l 426 1032 m 453 1272 q 448 1167 453 1201 q 423 1112 443 1132 q 357 1092 403 1092 q 250 1113 318 1092 q 222 1122 240 1115 q 190 1128 203 1128 q 174 1117 176 1128 q 171 1076 171 1107 l 63 1076 q 68 1181 63 1146 q 94 1236 74 1217 q 161 1256 115 1256 q 267 1235 201 1256 q 326 1222 311 1222 q 343 1232 340 1222 q 346 1272 346 1242 l 453 1272 z "},"ǎ":{"ha":515,"x_min":24,"x_max":471,"o":"m 167 -11 q 54 41 85 -11 q 24 206 24 93 q 39 334 24 288 q 91 402 54 381 q 192 424 128 424 q 292 417 226 424 l 292 453 q 285 531 292 508 q 259 560 279 553 q 188 567 239 567 q 53 560 104 567 l 53 701 q 243 719 157 719 q 383 692 335 719 q 451 605 432 665 q 471 435 471 544 l 471 0 l 299 0 l 293 82 l 282 82 q 239 13 271 36 q 167 -11 207 -11 m 239 151 q 268 156 257 151 q 285 178 279 161 q 292 261 292 206 l 292 301 l 242 301 q 204 286 214 301 q 194 222 194 271 q 202 166 194 181 q 239 151 210 151 m 168 858 l 75 1021 l 75 1032 l 199 1032 l 257 944 l 317 1032 l 440 1032 l 440 1021 l 346 858 l 168 858 z "},"â":{"ha":515,"x_min":24,"x_max":471,"o":"m 167 -11 q 54 41 85 -11 q 24 206 24 93 q 39 334 24 288 q 91 402 54 381 q 192 424 128 424 q 292 417 226 424 l 292 453 q 285 531 292 508 q 259 560 279 553 q 188 567 239 567 q 53 560 104 567 l 53 701 q 243 719 157 719 q 383 692 335 719 q 451 605 432 665 q 471 435 471 544 l 471 0 l 299 0 l 293 82 l 282 82 q 239 13 271 36 q 167 -11 207 -11 m 239 151 q 268 156 257 151 q 285 178 279 161 q 292 261 292 206 l 292 301 l 242 301 q 204 286 214 301 q 194 222 194 271 q 202 166 194 181 q 239 151 210 151 m 78 858 l 78 869 l 171 1032 l 349 1032 l 443 869 l 443 858 l 319 858 l 260 946 l 201 858 l 78 858 z "},"ấ":{"ha":515,"x_min":24,"x_max":521,"o":"m 167 -11 q 54 41 85 -11 q 24 206 24 93 q 39 334 24 288 q 91 402 54 381 q 192 424 128 424 q 292 417 226 424 l 292 453 q 285 531 292 508 q 259 560 279 553 q 188 567 239 567 q 53 560 104 567 l 53 701 q 243 719 157 719 q 383 692 335 719 q 451 605 432 665 q 471 435 471 544 l 471 0 l 299 0 l 293 82 l 282 82 q 239 13 271 36 q 167 -11 207 -11 m 239 151 q 268 156 257 151 q 285 178 279 161 q 292 261 292 206 l 292 301 l 242 301 q 204 286 214 301 q 194 222 194 271 q 202 166 194 181 q 239 151 210 151 m 76 858 l 76 869 l 169 1032 l 347 1032 l 442 869 l 442 858 l 318 858 l 258 946 l 200 858 l 76 858 m 296 1061 l 296 1068 l 346 1265 l 521 1265 l 521 1258 l 443 1061 l 296 1061 z "},"ậ":{"ha":515,"x_min":24,"x_max":471,"o":"m 167 -11 q 54 41 85 -11 q 24 206 24 93 q 39 334 24 288 q 91 402 54 381 q 192 424 128 424 q 292 417 226 424 l 292 453 q 285 531 292 508 q 259 560 279 553 q 188 567 239 567 q 53 560 104 567 l 53 701 q 243 719 157 719 q 383 692 335 719 q 451 605 432 665 q 471 435 471 544 l 471 0 l 299 0 l 293 82 l 282 82 q 239 13 271 36 q 167 -11 207 -11 m 239 151 q 268 156 257 151 q 285 178 279 161 q 292 261 292 206 l 292 301 l 242 301 q 204 286 214 301 q 194 222 194 271 q 202 166 194 181 q 239 151 210 151 m 160 -271 l 160 -86 l 354 -86 l 354 -271 l 160 -271 m 75 858 l 75 869 l 168 1032 l 346 1032 l 440 869 l 440 858 l 317 858 l 257 946 l 199 858 l 75 858 z "},"ầ":{"ha":515,"x_min":24,"x_max":471,"o":"m 167 -11 q 54 41 85 -11 q 24 206 24 93 q 39 334 24 288 q 91 402 54 381 q 192 424 128 424 q 292 417 226 424 l 292 453 q 285 531 292 508 q 259 560 279 553 q 188 567 239 567 q 53 560 104 567 l 53 701 q 243 719 157 719 q 383 692 335 719 q 451 605 432 665 q 471 435 471 544 l 471 0 l 299 0 l 293 82 l 282 82 q 239 13 271 36 q 167 -11 207 -11 m 239 151 q 268 156 257 151 q 285 178 279 161 q 292 261 292 206 l 292 301 l 242 301 q 204 286 214 301 q 194 222 194 271 q 202 166 194 181 q 239 151 210 151 m 61 858 l 61 869 l 154 1032 l 332 1032 l 426 869 l 426 858 l 303 858 l 243 946 l 185 858 l 61 858 m 307 1061 l 229 1258 l 229 1265 l 404 1265 l 454 1068 l 454 1061 l 307 1061 z "},"ẩ":{"ha":515,"x_min":24,"x_max":589,"o":"m 167 -11 q 54 41 85 -11 q 24 206 24 93 q 39 334 24 288 q 91 402 54 381 q 192 424 128 424 q 292 417 226 424 l 292 453 q 285 531 292 508 q 259 560 279 553 q 188 567 239 567 q 53 560 104 567 l 53 701 q 243 719 157 719 q 383 692 335 719 q 451 605 432 665 q 471 435 471 544 l 471 0 l 299 0 l 293 82 l 282 82 q 239 13 271 36 q 167 -11 207 -11 m 239 151 q 268 156 257 151 q 285 178 279 161 q 292 261 292 206 l 292 301 l 242 301 q 204 286 214 301 q 194 222 194 271 q 202 166 194 181 q 239 151 210 151 m 75 858 l 75 869 l 168 1032 l 346 1032 l 440 869 l 440 858 l 317 858 l 257 946 l 199 858 l 75 858 m 332 1093 q 342 1138 332 1122 q 378 1161 351 1153 l 392 1167 q 446 1188 433 1181 q 458 1211 458 1196 q 448 1228 458 1225 q 404 1232 438 1232 q 268 1231 315 1232 l 268 1331 q 425 1350 365 1350 q 547 1328 506 1350 q 589 1240 589 1307 q 585 1185 589 1204 q 568 1151 582 1165 q 524 1124 554 1136 l 508 1117 q 463 1097 475 1103 q 449 1083 451 1090 q 446 1057 446 1075 l 332 1057 l 332 1093 z "},"ẫ":{"ha":515,"x_min":24,"x_max":471,"o":"m 167 -11 q 54 41 85 -11 q 24 206 24 93 q 39 334 24 288 q 91 402 54 381 q 192 424 128 424 q 292 417 226 424 l 292 453 q 285 531 292 508 q 259 560 279 553 q 188 567 239 567 q 53 560 104 567 l 53 701 q 243 719 157 719 q 383 692 335 719 q 451 605 432 665 q 471 435 471 544 l 471 0 l 299 0 l 293 82 l 282 82 q 239 13 271 36 q 167 -11 207 -11 m 239 151 q 268 156 257 151 q 285 178 279 161 q 292 261 292 206 l 292 301 l 242 301 q 204 286 214 301 q 194 222 194 271 q 202 166 194 181 q 239 151 210 151 m 72 858 l 72 869 l 165 1032 l 343 1032 l 438 869 l 438 858 l 314 858 l 254 946 l 196 858 l 72 858 m 453 1272 q 448 1167 453 1201 q 423 1112 443 1132 q 357 1092 403 1092 q 250 1113 318 1092 q 222 1122 240 1115 q 190 1128 203 1128 q 174 1117 176 1128 q 171 1076 171 1107 l 63 1076 q 68 1181 63 1146 q 94 1236 74 1217 q 161 1256 115 1256 q 267 1235 201 1256 q 326 1222 311 1222 q 343 1232 340 1222 q 346 1272 346 1242 l 453 1272 z "},"ȁ":{"ha":515,"x_min":24,"x_max":471,"o":"m 167 -11 q 54 41 85 -11 q 24 206 24 93 q 39 334 24 288 q 91 402 54 381 q 192 424 128 424 q 292 417 226 424 l 292 453 q 285 531 292 508 q 259 560 279 553 q 188 567 239 567 q 53 560 104 567 l 53 701 q 243 719 157 719 q 383 692 335 719 q 451 605 432 665 q 471 435 471 544 l 471 0 l 299 0 l 293 82 l 282 82 q 239 13 271 36 q 167 -11 207 -11 m 239 151 q 268 156 257 151 q 285 178 279 161 q 292 261 292 206 l 292 301 l 242 301 q 204 286 214 301 q 194 222 194 271 q 202 166 194 181 q 239 151 210 151 m 229 850 l 108 850 l 47 1006 l 47 1011 l 190 1011 l 229 856 l 229 850 m 407 850 l 286 850 l 225 1006 l 225 1011 l 368 1011 l 407 856 l 407 850 z "},"ä":{"ha":515,"x_min":24,"x_max":471,"o":"m 167 -11 q 54 41 85 -11 q 24 206 24 93 q 39 334 24 288 q 91 402 54 381 q 192 424 128 424 q 292 417 226 424 l 292 453 q 285 531 292 508 q 259 560 279 553 q 188 567 239 567 q 53 560 104 567 l 53 701 q 243 719 157 719 q 383 692 335 719 q 451 605 432 665 q 471 435 471 544 l 471 0 l 299 0 l 293 82 l 282 82 q 239 13 271 36 q 167 -11 207 -11 m 239 151 q 268 156 257 151 q 285 178 279 161 q 292 261 292 206 l 292 301 l 242 301 q 204 286 214 301 q 194 222 194 271 q 202 166 194 181 q 239 151 210 151 m 71 869 l 71 1014 l 225 1014 l 225 869 l 71 869 m 297 869 l 297 1014 l 451 1014 l 451 869 l 297 869 z "},"ạ":{"ha":515,"x_min":24,"x_max":471,"o":"m 167 -11 q 54 41 85 -11 q 24 206 24 93 q 39 334 24 288 q 91 402 54 381 q 192 424 128 424 q 292 417 226 424 l 292 453 q 285 531 292 508 q 259 560 279 553 q 188 567 239 567 q 53 560 104 567 l 53 701 q 243 719 157 719 q 383 692 335 719 q 451 605 432 665 q 471 435 471 544 l 471 0 l 299 0 l 293 82 l 282 82 q 239 13 271 36 q 167 -11 207 -11 m 239 151 q 268 156 257 151 q 285 178 279 161 q 292 261 292 206 l 292 301 l 242 301 q 204 286 214 301 q 194 222 194 271 q 202 166 194 181 q 239 151 210 151 m 160 -271 l 160 -86 l 354 -86 l 354 -271 l 160 -271 z "},"à":{"ha":515,"x_min":24,"x_max":471,"o":"m 167 -11 q 54 41 85 -11 q 24 206 24 93 q 39 334 24 288 q 91 402 54 381 q 192 424 128 424 q 292 417 226 424 l 292 453 q 285 531 292 508 q 259 560 279 553 q 188 567 239 567 q 53 560 104 567 l 53 701 q 243 719 157 719 q 383 692 335 719 q 451 605 432 665 q 471 435 471 544 l 471 0 l 299 0 l 293 82 l 282 82 q 239 13 271 36 q 167 -11 207 -11 m 239 151 q 268 156 257 151 q 285 178 279 161 q 292 261 292 206 l 292 301 l 242 301 q 204 286 214 301 q 194 222 194 271 q 202 166 194 181 q 239 151 210 151 m 196 828 l 118 1025 l 118 1032 l 293 1032 l 343 835 l 343 828 l 196 828 z "},"ả":{"ha":515,"x_min":24,"x_max":471,"o":"m 167 -11 q 54 41 85 -11 q 24 206 24 93 q 39 334 24 288 q 91 402 54 381 q 192 424 128 424 q 292 417 226 424 l 292 453 q 285 531 292 508 q 259 560 279 553 q 188 567 239 567 q 53 560 104 567 l 53 701 q 243 719 157 719 q 383 692 335 719 q 451 605 432 665 q 471 435 471 544 l 471 0 l 299 0 l 293 82 l 282 82 q 239 13 271 36 q 167 -11 207 -11 m 239 151 q 268 156 257 151 q 285 178 279 161 q 292 261 292 206 l 292 301 l 242 301 q 204 286 214 301 q 194 222 194 271 q 202 166 194 181 q 239 151 210 151 m 161 889 q 171 933 161 918 q 207 957 181 949 l 221 963 q 275 984 263 976 q 288 1007 288 992 q 277 1024 288 1021 q 233 1028 267 1028 q 97 1026 144 1028 l 97 1126 q 254 1146 194 1146 q 376 1124 335 1146 q 418 1036 418 1103 q 415 981 418 1000 q 397 947 411 961 q 353 919 383 932 l 338 913 q 292 892 304 899 q 278 878 281 886 q 275 853 275 871 l 161 853 l 161 889 z "},"ȃ":{"ha":515,"x_min":24,"x_max":471,"o":"m 167 -11 q 54 41 85 -11 q 24 206 24 93 q 39 334 24 288 q 91 402 54 381 q 192 424 128 424 q 292 417 226 424 l 292 453 q 285 531 292 508 q 259 560 279 553 q 188 567 239 567 q 53 560 104 567 l 53 701 q 243 719 157 719 q 383 692 335 719 q 451 605 432 665 q 471 435 471 544 l 471 0 l 299 0 l 293 82 l 282 82 q 239 13 271 36 q 167 -11 207 -11 m 239 151 q 268 156 257 151 q 285 178 279 161 q 292 261 292 206 l 292 301 l 242 301 q 204 286 214 301 q 194 222 194 271 q 202 166 194 181 q 239 151 210 151 m 88 858 q 100 957 88 918 q 150 1018 113 996 q 260 1040 188 1040 q 368 1018 331 1040 q 418 957 406 996 q 431 858 431 918 l 318 858 q 308 917 318 900 q 260 935 299 935 q 209 917 219 935 q 199 858 199 899 l 88 858 z "},"ā":{"ha":515,"x_min":24,"x_max":471,"o":"m 167 -11 q 54 41 85 -11 q 24 206 24 93 q 39 334 24 288 q 91 402 54 381 q 192 424 128 424 q 292 417 226 424 l 292 453 q 285 531 292 508 q 259 560 279 553 q 188 567 239 567 q 53 560 104 567 l 53 701 q 243 719 157 719 q 383 692 335 719 q 451 605 432 665 q 471 435 471 544 l 471 0 l 299 0 l 293 82 l 282 82 q 239 13 271 36 q 167 -11 207 -11 m 239 151 q 268 156 257 151 q 285 178 279 161 q 292 261 292 206 l 292 301 l 242 301 q 204 286 214 301 q 194 222 194 271 q 202 166 194 181 q 239 151 210 151 m 136 868 l 136 1032 l 381 1032 l 381 868 l 136 868 z "},"ą":{"ha":515,"x_min":24,"x_max":471,"o":"m 471 0 q 427 -55 447 -21 q 407 -124 407 -89 q 456 -172 407 -172 l 471 -171 l 471 -267 q 404 -272 438 -272 q 303 -238 335 -272 q 271 -154 271 -204 q 291 -73 271 -112 q 346 0 311 -33 l 299 0 l 293 82 l 282 82 q 239 13 271 36 q 167 -11 207 -11 q 54 41 85 -11 q 24 206 24 93 q 39 334 24 288 q 91 402 54 381 q 192 424 128 424 q 292 417 226 424 l 292 453 q 285 531 292 508 q 259 560 279 553 q 188 567 239 567 q 110 564 150 567 q 53 560 69 561 l 53 701 q 243 719 157 719 q 383 692 335 719 q 451 605 432 665 q 471 435 471 544 l 471 0 m 292 301 l 242 301 q 204 286 214 301 q 194 222 194 271 q 202 166 194 181 q 239 151 210 151 q 268 156 257 151 q 285 178 279 161 q 292 261 292 206 l 292 301 z "},"å":{"ha":515,"x_min":24,"x_max":471,"o":"m 167 -11 q 54 41 85 -11 q 24 206 24 93 q 39 334 24 288 q 91 402 54 381 q 192 424 128 424 q 292 417 226 424 l 292 453 q 285 531 292 508 q 259 560 279 553 q 188 567 239 567 q 53 560 104 567 l 53 701 q 243 719 157 719 q 383 692 335 719 q 451 605 432 665 q 471 435 471 544 l 471 0 l 299 0 l 293 82 l 282 82 q 239 13 271 36 q 167 -11 207 -11 m 239 151 q 268 156 257 151 q 285 178 279 161 q 292 261 292 206 l 292 301 l 242 301 q 204 286 214 301 q 194 222 194 271 q 202 166 194 181 q 239 151 210 151 m 258 818 q 143 834 179 818 q 98 879 107 850 q 89 967 89 908 q 98 1056 89 1026 q 143 1101 107 1085 q 258 1117 179 1117 q 373 1101 338 1117 q 417 1056 408 1085 q 426 967 426 1026 q 417 879 426 908 q 373 834 408 850 q 258 818 338 818 m 258 911 q 294 916 283 911 q 307 931 304 921 q 310 967 310 942 q 307 1003 310 993 q 294 1019 304 1014 q 258 1024 283 1024 q 222 1019 232 1024 q 209 1003 211 1014 q 207 967 207 993 q 209 931 207 940 q 222 916 211 921 q 258 911 233 911 z "},"ǻ":{"ha":515,"x_min":24,"x_max":471,"o":"m 167 -11 q 54 41 85 -11 q 24 206 24 93 q 39 334 24 288 q 91 402 54 381 q 192 424 128 424 q 292 417 226 424 l 292 453 q 285 531 292 508 q 259 560 279 553 q 188 567 239 567 q 53 560 104 567 l 53 701 q 243 719 157 719 q 383 692 335 719 q 451 605 432 665 q 471 435 471 544 l 471 0 l 299 0 l 293 82 l 282 82 q 239 13 271 36 q 167 -11 207 -11 m 239 151 q 268 156 257 151 q 285 178 279 161 q 292 261 292 206 l 292 301 l 242 301 q 204 286 214 301 q 194 222 194 271 q 202 166 194 181 q 239 151 210 151 m 258 850 q 143 866 179 850 q 98 911 107 882 q 89 999 89 940 q 98 1088 89 1058 q 143 1133 107 1117 q 258 1149 179 1149 q 373 1133 338 1149 q 417 1088 408 1117 q 426 999 426 1058 q 417 911 426 940 q 373 866 408 882 q 258 850 338 850 m 258 943 q 294 948 283 943 q 307 963 304 953 q 310 999 310 974 q 307 1035 310 1025 q 294 1051 304 1046 q 258 1056 283 1056 q 222 1051 232 1056 q 209 1035 211 1046 q 207 999 207 1025 q 209 963 207 972 q 222 948 211 953 q 258 943 233 943 m 183 1185 l 183 1192 l 233 1389 l 408 1389 l 408 1382 l 331 1185 l 183 1185 z "},"ã":{"ha":515,"x_min":24,"x_max":471,"o":"m 167 -11 q 54 41 85 -11 q 24 206 24 93 q 39 334 24 288 q 91 402 54 381 q 192 424 128 424 q 292 417 226 424 l 292 453 q 285 531 292 508 q 259 560 279 553 q 188 567 239 567 q 53 560 104 567 l 53 701 q 243 719 157 719 q 383 692 335 719 q 451 605 432 665 q 471 435 471 544 l 471 0 l 299 0 l 293 82 l 282 82 q 239 13 271 36 q 167 -11 207 -11 m 239 151 q 268 156 257 151 q 285 178 279 161 q 292 261 292 206 l 292 301 l 242 301 q 204 286 214 301 q 194 222 194 271 q 202 166 194 181 q 239 151 210 151 m 453 1032 q 448 926 453 961 q 423 872 443 892 q 357 851 403 851 q 250 872 318 851 q 222 881 240 875 q 190 888 203 888 q 174 877 176 888 q 171 836 171 867 l 63 836 q 68 941 63 906 q 94 996 74 976 q 161 1015 115 1015 q 267 994 201 1015 q 326 982 311 982 q 343 992 340 982 q 346 1032 346 1001 l 453 1032 z "},"æ":{"ha":768,"x_min":24,"x_max":733,"o":"m 733 301 l 471 301 q 476 191 471 221 q 500 151 481 161 q 569 142 519 142 q 721 147 640 142 l 721 8 q 632 -6 686 0 q 528 -11 578 -11 q 371 43 419 -11 q 297 2 342 15 q 203 -11 253 -11 q 63 41 101 -11 q 24 206 24 93 q 39 333 24 286 q 91 401 54 381 q 192 422 128 422 q 292 418 208 422 l 292 453 q 285 531 292 508 q 259 560 279 553 q 188 567 239 567 q 53 560 113 567 l 53 701 q 243 719 161 719 q 382 674 336 719 q 519 719 428 719 q 668 684 624 719 q 723 579 713 649 q 733 354 733 510 l 733 301 m 519 567 q 488 558 497 567 q 474 521 478 550 q 471 422 471 492 l 567 422 l 567 425 q 563 522 567 494 q 551 558 560 550 q 519 567 542 567 m 292 301 l 240 301 q 204 285 214 301 q 194 222 194 269 q 202 159 194 176 q 239 142 210 142 q 270 149 260 142 q 286 178 281 156 q 292 257 292 204 l 292 301 z "},"ǽ":{"ha":768,"x_min":24,"x_max":733,"o":"m 733 301 l 471 301 q 476 191 471 221 q 500 151 481 161 q 569 142 519 142 q 721 147 640 142 l 721 8 q 632 -6 686 0 q 528 -11 578 -11 q 371 43 419 -11 q 297 2 342 15 q 203 -11 253 -11 q 63 41 101 -11 q 24 206 24 93 q 39 333 24 286 q 91 401 54 381 q 192 422 128 422 q 292 418 208 422 l 292 453 q 285 531 292 508 q 259 560 279 553 q 188 567 239 567 q 53 560 113 567 l 53 701 q 243 719 161 719 q 382 674 336 719 q 519 719 428 719 q 668 684 624 719 q 723 579 713 649 q 733 354 733 510 l 733 301 m 519 567 q 488 558 497 567 q 474 521 478 550 q 471 422 471 492 l 567 422 l 567 425 q 563 522 567 494 q 551 558 560 550 q 519 567 542 567 m 292 301 l 240 301 q 204 285 214 301 q 194 222 194 269 q 202 159 194 176 q 239 142 210 142 q 270 149 260 142 q 286 178 281 156 q 292 257 292 204 l 292 301 m 307 828 l 307 835 l 357 1032 l 532 1032 l 532 1025 l 454 828 l 307 828 z "},"b":{"ha":542,"x_min":47,"x_max":507,"o":"m 353 -11 q 280 10 313 -11 q 236 82 247 32 l 225 82 l 219 0 l 47 0 l 47 1032 l 226 1032 l 226 633 l 239 633 q 356 719 261 719 q 449 686 417 719 q 494 575 482 653 q 507 354 507 497 q 493 128 507 206 q 447 19 479 50 q 353 -11 414 -11 m 278 151 q 313 162 303 151 q 325 211 322 172 q 328 354 328 250 q 325 497 328 458 q 313 547 322 536 q 278 557 303 557 q 249 550 258 557 q 233 521 239 543 q 226 354 226 475 q 232 193 226 233 q 247 159 238 167 q 278 151 257 151 z "},"c":{"ha":404,"x_min":35,"x_max":379,"o":"m 379 8 q 244 -11 313 -11 q 110 27 156 -11 q 50 142 65 65 q 35 354 35 218 q 52 570 35 493 q 114 683 69 647 q 244 719 158 719 q 376 703 322 719 l 376 561 q 299 567 343 567 q 243 554 260 567 q 220 499 226 542 q 214 354 214 457 q 220 208 214 250 q 242 153 226 165 q 299 142 258 142 q 379 147 344 142 l 379 8 z "},"ć":{"ha":404,"x_min":35,"x_max":379,"o":"m 379 8 q 244 -11 313 -11 q 110 27 156 -11 q 50 142 65 65 q 35 354 35 218 q 52 570 35 493 q 114 683 69 647 q 244 719 158 719 q 376 703 322 719 l 376 561 q 299 567 343 567 q 243 554 260 567 q 220 499 226 542 q 214 354 214 457 q 220 208 214 250 q 242 153 226 165 q 299 142 258 142 q 379 147 344 142 l 379 8 m 125 828 l 125 835 l 175 1032 l 350 1032 l 350 1025 l 272 828 l 125 828 z "},"č":{"ha":404,"x_min":19,"x_max":385,"o":"m 379 8 q 244 -11 313 -11 q 110 27 156 -11 q 50 142 65 65 q 35 354 35 218 q 52 570 35 493 q 114 683 69 647 q 244 719 158 719 q 376 703 322 719 l 376 561 q 299 567 343 567 q 243 554 260 567 q 220 499 226 542 q 214 354 214 457 q 220 208 214 250 q 242 153 226 165 q 299 142 258 142 q 379 147 344 142 l 379 8 m 113 858 l 19 1021 l 19 1032 l 143 1032 l 201 944 l 261 1032 l 385 1032 l 385 1021 l 290 858 l 113 858 z "},"ç":{"ha":404,"x_min":35,"x_max":379,"o":"m 379 8 q 260 -11 322 -8 l 214 -261 l 63 -261 l 63 -254 l 147 6 q 57 114 79 33 q 35 354 35 194 q 52 570 35 493 q 114 683 69 647 q 244 719 158 719 q 376 703 322 719 l 376 561 q 299 567 343 567 q 243 554 260 567 q 220 499 226 542 q 214 354 214 457 q 220 208 214 250 q 242 153 226 165 q 299 142 258 142 q 379 147 344 142 l 379 8 z "},"ĉ":{"ha":404,"x_min":19,"x_max":385,"o":"m 379 8 q 244 -11 313 -11 q 110 27 156 -11 q 50 142 65 65 q 35 354 35 218 q 52 570 35 493 q 114 683 69 647 q 244 719 158 719 q 376 703 322 719 l 376 561 q 299 567 343 567 q 243 554 260 567 q 220 499 226 542 q 214 354 214 457 q 220 208 214 250 q 242 153 226 165 q 299 142 258 142 q 379 147 344 142 l 379 8 m 19 858 l 19 869 l 113 1032 l 290 1032 l 385 869 l 385 858 l 261 858 l 201 946 l 143 858 l 19 858 z "},"ċ":{"ha":404,"x_min":35,"x_max":379,"o":"m 379 8 q 244 -11 313 -11 q 110 27 156 -11 q 50 142 65 65 q 35 354 35 218 q 52 570 35 493 q 114 683 69 647 q 244 719 158 719 q 376 703 322 719 l 376 561 q 299 567 343 567 q 243 554 260 567 q 220 499 226 542 q 214 354 214 457 q 220 208 214 250 q 242 153 226 165 q 299 142 258 142 q 379 147 344 142 l 379 8 m 125 869 l 125 1014 l 279 1014 l 279 869 l 125 869 z "},"d":{"ha":542,"x_min":35,"x_max":494,"o":"m 189 -11 q 95 19 128 -11 q 49 128 63 50 q 35 354 35 206 q 47 575 35 497 q 92 686 60 653 q 186 719 125 719 q 303 633 282 719 l 315 633 l 315 1032 l 494 1032 l 494 0 l 322 0 l 317 82 l 306 82 q 262 10 294 32 q 189 -11 229 -11 m 264 151 q 296 160 286 151 q 310 200 306 169 q 315 357 315 250 q 311 501 315 460 q 296 547 306 536 q 264 557 286 557 q 229 547 239 557 q 217 497 219 536 q 214 354 214 458 q 217 211 214 250 q 229 162 219 172 q 264 151 239 151 z "},"ð":{"ha":529,"x_min":35,"x_max":493,"o":"m 265 -11 q 110 21 158 -11 q 49 125 63 53 q 35 353 35 197 q 47 564 35 488 q 95 680 58 640 q 206 719 132 719 q 279 707 250 719 l 283 711 q 249 836 272 769 l 139 819 l 139 924 l 206 933 q 150 1026 182 978 l 150 1032 l 329 1032 q 376 958 354 999 l 483 975 l 483 871 l 419 861 q 476 631 454 772 q 493 354 493 524 q 480 125 493 197 q 419 21 467 53 q 265 -11 371 -11 m 264 142 q 300 153 290 142 q 312 203 310 165 q 314 354 314 242 q 312 502 314 464 q 300 553 310 540 q 264 567 290 567 q 228 555 238 567 q 217 504 219 543 q 214 354 214 465 q 217 205 214 244 q 228 153 219 165 q 264 142 238 142 z "},"ď":{"ha":672,"x_min":35,"x_max":726,"o":"m 189 -11 q 95 19 128 -11 q 49 128 63 50 q 35 354 35 206 q 47 575 35 497 q 92 686 60 653 q 186 719 125 719 q 303 633 282 719 l 315 633 l 315 1032 l 494 1032 l 494 0 l 322 0 l 317 82 l 306 82 q 262 10 294 32 q 189 -11 229 -11 m 264 151 q 296 160 286 151 q 310 200 306 169 q 315 357 315 250 q 311 501 315 460 q 296 547 306 536 q 264 557 286 557 q 229 547 239 557 q 217 497 219 536 q 214 354 214 458 q 217 211 214 250 q 229 162 219 172 q 264 151 239 151 m 536 590 l 557 888 l 557 956 l 726 956 l 726 888 l 668 590 l 536 590 z "},"đ":{"ha":542,"x_min":35,"x_max":542,"o":"m 542 803 l 494 803 l 494 0 l 322 0 l 317 82 l 306 82 q 262 10 294 32 q 189 -11 229 -11 q 95 19 128 -11 q 49 128 63 50 q 35 354 35 206 q 47 575 35 497 q 92 686 60 653 q 186 719 125 719 q 303 633 282 719 l 315 633 l 315 803 l 201 803 l 201 956 l 315 956 l 315 1032 l 494 1032 l 494 956 l 542 956 l 542 803 m 310 200 q 315 357 315 250 q 311 501 315 460 q 296 547 306 536 q 264 557 286 557 q 229 547 239 557 q 217 497 219 536 q 214 354 214 458 q 217 211 214 250 q 229 162 219 172 q 264 151 239 151 q 296 160 286 151 q 310 200 306 169 z "},"ḍ":{"ha":542,"x_min":35,"x_max":494,"o":"m 189 -11 q 95 19 128 -11 q 49 128 63 50 q 35 354 35 206 q 47 575 35 497 q 92 686 60 653 q 186 719 125 719 q 303 633 282 719 l 315 633 l 315 1032 l 494 1032 l 494 0 l 322 0 l 317 82 l 306 82 q 262 10 294 32 q 189 -11 229 -11 m 264 151 q 296 160 286 151 q 310 200 306 169 q 315 357 315 250 q 311 501 315 460 q 296 547 306 536 q 264 557 286 557 q 229 547 239 557 q 217 497 219 536 q 214 354 214 458 q 217 211 214 250 q 229 162 219 172 q 264 151 239 151 m 172 -271 l 172 -86 l 367 -86 l 367 -271 l 172 -271 z "},"ǳ":{"ha":1017,"x_min":35,"x_max":981,"o":"m 189 -11 q 95 19 128 -11 q 49 128 63 50 q 35 354 35 206 q 47 575 35 497 q 92 686 60 653 q 186 719 125 719 q 303 633 282 719 l 315 633 l 315 1032 l 494 1032 l 494 0 l 322 0 l 317 82 l 306 82 q 262 10 294 32 q 189 -11 229 -11 m 264 151 q 296 160 286 151 q 310 200 306 169 q 315 357 315 250 q 311 501 315 460 q 296 547 306 536 q 264 557 286 557 q 229 547 239 557 q 217 497 219 536 q 214 354 214 458 q 217 211 214 250 q 229 162 219 172 q 264 151 239 151 m 576 0 l 576 140 l 779 556 l 583 556 l 583 708 l 979 708 l 979 568 l 778 153 l 981 153 l 981 0 l 576 0 z "},"ǆ":{"ha":1017,"x_min":35,"x_max":981,"o":"m 189 -11 q 95 19 128 -11 q 49 128 63 50 q 35 354 35 206 q 47 575 35 497 q 92 686 60 653 q 186 719 125 719 q 303 633 282 719 l 315 633 l 315 1032 l 494 1032 l 494 0 l 322 0 l 317 82 l 306 82 q 262 10 294 32 q 189 -11 229 -11 m 264 151 q 296 160 286 151 q 310 200 306 169 q 315 357 315 250 q 311 501 315 460 q 296 547 306 536 q 264 557 286 557 q 229 547 239 557 q 217 497 219 536 q 214 354 214 458 q 217 211 214 250 q 229 162 219 172 q 264 151 239 151 m 576 0 l 576 140 l 779 556 l 583 556 l 583 708 l 979 708 l 979 568 l 778 153 l 981 153 l 981 0 l 576 0 m 678 858 l 585 1021 l 585 1032 l 708 1032 l 767 944 l 826 1032 l 950 1032 l 950 1021 l 856 858 l 678 858 z "},"e":{"ha":513,"x_min":35,"x_max":478,"o":"m 478 300 l 214 300 q 219 191 214 221 q 244 151 225 161 q 314 142 264 142 q 465 147 374 142 l 465 8 q 377 -6 432 0 q 271 -11 322 -11 q 111 27 161 -11 q 48 137 61 65 q 35 353 35 208 q 49 569 35 496 q 111 681 63 643 q 264 719 160 719 q 413 684 368 719 q 467 579 457 649 q 478 353 478 510 l 478 300 m 264 567 q 231 558 240 567 q 217 521 221 550 q 214 421 214 492 l 311 421 l 311 425 q 308 522 311 494 q 295 558 304 550 q 264 567 286 567 z "},"é":{"ha":513,"x_min":35,"x_max":478,"o":"m 478 300 l 214 300 q 219 191 214 221 q 244 151 225 161 q 314 142 264 142 q 465 147 374 142 l 465 8 q 377 -6 432 0 q 271 -11 322 -11 q 111 27 161 -11 q 48 137 61 65 q 35 353 35 208 q 49 569 35 496 q 111 681 63 643 q 264 719 160 719 q 413 684 368 719 q 467 579 457 649 q 478 353 478 510 l 478 300 m 264 567 q 231 558 240 567 q 217 521 221 550 q 214 421 214 492 l 311 421 l 311 425 q 308 522 311 494 q 295 558 304 550 q 264 567 286 567 m 193 828 l 193 835 l 243 1032 l 418 1032 l 418 1025 l 340 828 l 193 828 z "},"ĕ":{"ha":513,"x_min":35,"x_max":478,"o":"m 478 300 l 214 300 q 219 191 214 221 q 244 151 225 161 q 314 142 264 142 q 465 147 374 142 l 465 8 q 377 -6 432 0 q 271 -11 322 -11 q 111 27 161 -11 q 48 137 61 65 q 35 353 35 208 q 49 569 35 496 q 111 681 63 643 q 264 719 160 719 q 413 684 368 719 q 467 579 457 649 q 478 353 478 510 l 478 300 m 264 567 q 231 558 240 567 q 217 521 221 550 q 214 421 214 492 l 311 421 l 311 425 q 308 522 311 494 q 295 558 304 550 q 264 567 286 567 m 428 1032 q 415 933 428 972 q 365 872 403 894 q 256 850 328 850 q 147 872 185 850 q 97 933 110 894 q 85 1032 85 972 l 197 1032 q 207 973 197 990 q 256 956 217 956 q 306 974 296 956 q 317 1032 317 992 l 428 1032 z "},"ě":{"ha":513,"x_min":35,"x_max":478,"o":"m 478 300 l 214 300 q 219 191 214 221 q 244 151 225 161 q 314 142 264 142 q 465 147 374 142 l 465 8 q 377 -6 432 0 q 271 -11 322 -11 q 111 27 161 -11 q 48 137 61 65 q 35 353 35 208 q 49 569 35 496 q 111 681 63 643 q 264 719 160 719 q 413 684 368 719 q 467 579 457 649 q 478 353 478 510 l 478 300 m 264 567 q 231 558 240 567 q 217 521 221 550 q 214 421 214 492 l 311 421 l 311 425 q 308 522 311 494 q 295 558 304 550 q 264 567 286 567 m 167 858 l 74 1021 l 74 1032 l 197 1032 l 256 944 l 315 1032 l 439 1032 l 439 1021 l 344 858 l 167 858 z "},"ê":{"ha":513,"x_min":35,"x_max":478,"o":"m 478 300 l 214 300 q 219 191 214 221 q 244 151 225 161 q 314 142 264 142 q 465 147 374 142 l 465 8 q 377 -6 432 0 q 271 -11 322 -11 q 111 27 161 -11 q 48 137 61 65 q 35 353 35 208 q 49 569 35 496 q 111 681 63 643 q 264 719 160 719 q 413 684 368 719 q 467 579 457 649 q 478 353 478 510 l 478 300 m 264 567 q 231 558 240 567 q 217 521 221 550 q 214 421 214 492 l 311 421 l 311 425 q 308 522 311 494 q 295 558 304 550 q 264 567 286 567 m 86 858 l 86 869 l 179 1032 l 357 1032 l 451 869 l 451 858 l 328 858 l 268 946 l 210 858 l 86 858 z "},"ế":{"ha":513,"x_min":35,"x_max":519,"o":"m 478 300 l 214 300 q 219 191 214 221 q 244 151 225 161 q 314 142 264 142 q 465 147 374 142 l 465 8 q 377 -6 432 0 q 271 -11 322 -11 q 111 27 161 -11 q 48 137 61 65 q 35 353 35 208 q 49 569 35 496 q 111 681 63 643 q 264 719 160 719 q 413 684 368 719 q 467 579 457 649 q 478 353 478 510 l 478 300 m 264 567 q 231 558 240 567 q 217 521 221 550 q 214 421 214 492 l 311 421 l 311 425 q 308 522 311 494 q 295 558 304 550 q 264 567 286 567 m 75 858 l 75 869 l 168 1032 l 346 1032 l 440 869 l 440 858 l 317 858 l 257 946 l 199 858 l 75 858 m 294 1061 l 294 1068 l 344 1265 l 519 1265 l 519 1258 l 442 1061 l 294 1061 z "},"ệ":{"ha":513,"x_min":35,"x_max":478,"o":"m 478 300 l 214 300 q 219 191 214 221 q 244 151 225 161 q 314 142 264 142 q 465 147 374 142 l 465 8 q 377 -6 432 0 q 271 -11 322 -11 q 111 27 161 -11 q 48 137 61 65 q 35 353 35 208 q 49 569 35 496 q 111 681 63 643 q 264 719 160 719 q 413 684 368 719 q 467 579 457 649 q 478 353 478 510 l 478 300 m 264 567 q 231 558 240 567 q 217 521 221 550 q 214 421 214 492 l 311 421 l 311 425 q 308 522 311 494 q 295 558 304 550 q 264 567 286 567 m 158 -271 l 158 -86 l 353 -86 l 353 -271 l 158 -271 m 74 858 l 74 869 l 167 1032 l 344 1032 l 439 869 l 439 858 l 315 858 l 256 946 l 197 858 l 74 858 z "},"ề":{"ha":513,"x_min":35,"x_max":478,"o":"m 478 300 l 214 300 q 219 191 214 221 q 244 151 225 161 q 314 142 264 142 q 465 147 374 142 l 465 8 q 377 -6 432 0 q 271 -11 322 -11 q 111 27 161 -11 q 48 137 61 65 q 35 353 35 208 q 49 569 35 496 q 111 681 63 643 q 264 719 160 719 q 413 684 368 719 q 467 579 457 649 q 478 353 478 510 l 478 300 m 264 567 q 231 558 240 567 q 217 521 221 550 q 214 421 214 492 l 311 421 l 311 425 q 308 522 311 494 q 295 558 304 550 q 264 567 286 567 m 60 858 l 60 869 l 153 1032 l 331 1032 l 425 869 l 425 858 l 301 858 l 242 946 l 183 858 l 60 858 m 306 1061 l 228 1258 l 228 1265 l 403 1265 l 453 1068 l 453 1061 l 306 1061 z "},"ể":{"ha":513,"x_min":35,"x_max":588,"o":"m 478 300 l 214 300 q 219 191 214 221 q 244 151 225 161 q 314 142 264 142 q 465 147 374 142 l 465 8 q 377 -6 432 0 q 271 -11 322 -11 q 111 27 161 -11 q 48 137 61 65 q 35 353 35 208 q 49 569 35 496 q 111 681 63 643 q 264 719 160 719 q 413 684 368 719 q 467 579 457 649 q 478 353 478 510 l 478 300 m 264 567 q 231 558 240 567 q 217 521 221 550 q 214 421 214 492 l 311 421 l 311 425 q 308 522 311 494 q 295 558 304 550 q 264 567 286 567 m 74 858 l 74 869 l 167 1032 l 344 1032 l 439 869 l 439 858 l 315 858 l 256 946 l 197 858 l 74 858 m 331 1093 q 340 1138 331 1122 q 376 1161 350 1153 l 390 1167 q 444 1188 432 1181 q 457 1211 457 1196 q 447 1228 457 1225 q 403 1232 436 1232 q 267 1231 314 1232 l 267 1331 q 424 1350 364 1350 q 546 1328 504 1350 q 588 1240 588 1307 q 584 1185 588 1204 q 567 1151 581 1165 q 522 1124 553 1136 l 507 1117 q 462 1097 474 1103 q 447 1083 450 1090 q 444 1057 444 1075 l 331 1057 l 331 1093 z "},"ễ":{"ha":513,"x_min":35,"x_max":478,"o":"m 478 300 l 214 300 q 219 191 214 221 q 244 151 225 161 q 314 142 264 142 q 465 147 374 142 l 465 8 q 377 -6 432 0 q 271 -11 322 -11 q 111 27 161 -11 q 48 137 61 65 q 35 353 35 208 q 49 569 35 496 q 111 681 63 643 q 264 719 160 719 q 413 684 368 719 q 467 579 457 649 q 478 353 478 510 l 478 300 m 264 567 q 231 558 240 567 q 217 521 221 550 q 214 421 214 492 l 311 421 l 311 425 q 308 522 311 494 q 295 558 304 550 q 264 567 286 567 m 71 858 l 71 869 l 164 1032 l 342 1032 l 436 869 l 436 858 l 313 858 l 253 946 l 194 858 l 71 858 m 451 1272 q 447 1167 451 1201 q 422 1112 442 1132 q 356 1092 401 1092 q 249 1113 317 1092 q 220 1122 239 1115 q 189 1128 201 1128 q 172 1117 175 1128 q 169 1076 169 1107 l 61 1076 q 67 1181 61 1146 q 93 1236 72 1217 q 160 1256 114 1256 q 265 1235 200 1256 q 325 1222 310 1222 q 342 1232 339 1222 q 344 1272 344 1242 l 451 1272 z "},"ȅ":{"ha":513,"x_min":35,"x_max":478,"o":"m 478 300 l 214 300 q 219 191 214 221 q 244 151 225 161 q 314 142 264 142 q 465 147 374 142 l 465 8 q 377 -6 432 0 q 271 -11 322 -11 q 111 27 161 -11 q 48 137 61 65 q 35 353 35 208 q 49 569 35 496 q 111 681 63 643 q 264 719 160 719 q 413 684 368 719 q 467 579 457 649 q 478 353 478 510 l 478 300 m 264 567 q 231 558 240 567 q 217 521 221 550 q 214 421 214 492 l 311 421 l 311 425 q 308 522 311 494 q 295 558 304 550 q 264 567 286 567 m 228 850 l 107 850 l 46 1006 l 46 1011 l 189 1011 l 228 856 l 228 850 m 406 850 l 285 850 l 224 1006 l 224 1011 l 367 1011 l 406 856 l 406 850 z "},"ë":{"ha":513,"x_min":35,"x_max":478,"o":"m 478 300 l 214 300 q 219 191 214 221 q 244 151 225 161 q 314 142 264 142 q 465 147 374 142 l 465 8 q 377 -6 432 0 q 271 -11 322 -11 q 111 27 161 -11 q 48 137 61 65 q 35 353 35 208 q 49 569 35 496 q 111 681 63 643 q 264 719 160 719 q 413 684 368 719 q 467 579 457 649 q 478 353 478 510 l 478 300 m 264 567 q 231 558 240 567 q 217 521 221 550 q 214 421 214 492 l 311 421 l 311 425 q 308 522 311 494 q 295 558 304 550 q 264 567 286 567 m 76 869 l 76 1014 l 231 1014 l 231 869 l 76 869 m 303 869 l 303 1014 l 457 1014 l 457 869 l 303 869 z "},"ė":{"ha":513,"x_min":35,"x_max":478,"o":"m 478 300 l 214 300 q 219 191 214 221 q 244 151 225 161 q 314 142 264 142 q 465 147 374 142 l 465 8 q 377 -6 432 0 q 271 -11 322 -11 q 111 27 161 -11 q 48 137 61 65 q 35 353 35 208 q 49 569 35 496 q 111 681 63 643 q 264 719 160 719 q 413 684 368 719 q 467 579 457 649 q 478 353 478 510 l 478 300 m 264 567 q 231 558 240 567 q 217 521 221 550 q 214 421 214 492 l 311 421 l 311 425 q 308 522 311 494 q 295 558 304 550 q 264 567 286 567 m 179 869 l 179 1014 l 333 1014 l 333 869 l 179 869 z "},"ẹ":{"ha":513,"x_min":35,"x_max":478,"o":"m 478 300 l 214 300 q 219 191 214 221 q 244 151 225 161 q 314 142 264 142 q 465 147 374 142 l 465 8 q 377 -6 432 0 q 271 -11 322 -11 q 111 27 161 -11 q 48 137 61 65 q 35 353 35 208 q 49 569 35 496 q 111 681 63 643 q 264 719 160 719 q 413 684 368 719 q 467 579 457 649 q 478 353 478 510 l 478 300 m 264 567 q 231 558 240 567 q 217 521 221 550 q 214 421 214 492 l 311 421 l 311 425 q 308 522 311 494 q 295 558 304 550 q 264 567 286 567 m 158 -271 l 158 -86 l 353 -86 l 353 -271 l 158 -271 z "},"è":{"ha":513,"x_min":35,"x_max":478,"o":"m 478 300 l 214 300 q 219 191 214 221 q 244 151 225 161 q 314 142 264 142 q 465 147 374 142 l 465 8 q 377 -6 432 0 q 271 -11 322 -11 q 111 27 161 -11 q 48 137 61 65 q 35 353 35 208 q 49 569 35 496 q 111 681 63 643 q 264 719 160 719 q 413 684 368 719 q 467 579 457 649 q 478 353 478 510 l 478 300 m 264 567 q 231 558 240 567 q 217 521 221 550 q 214 421 214 492 l 311 421 l 311 425 q 308 522 311 494 q 295 558 304 550 q 264 567 286 567 m 200 828 l 122 1025 l 122 1032 l 297 1032 l 347 835 l 347 828 l 200 828 z "},"ẻ":{"ha":513,"x_min":35,"x_max":478,"o":"m 478 300 l 214 300 q 219 191 214 221 q 244 151 225 161 q 314 142 264 142 q 465 147 374 142 l 465 8 q 377 -6 432 0 q 271 -11 322 -11 q 111 27 161 -11 q 48 137 61 65 q 35 353 35 208 q 49 569 35 496 q 111 681 63 643 q 264 719 160 719 q 413 684 368 719 q 467 579 457 649 q 478 353 478 510 l 478 300 m 264 567 q 231 558 240 567 q 217 521 221 550 q 214 421 214 492 l 311 421 l 311 425 q 308 522 311 494 q 295 558 304 550 q 264 567 286 567 m 160 889 q 169 933 160 918 q 206 957 179 949 l 219 963 q 274 984 261 976 q 286 1007 286 992 q 276 1024 286 1021 q 232 1028 265 1028 q 96 1026 143 1028 l 96 1126 q 253 1146 193 1146 q 375 1124 333 1146 q 417 1036 417 1103 q 413 981 417 1000 q 396 947 410 961 q 351 919 382 932 l 336 913 q 291 892 303 899 q 276 878 279 886 q 274 853 274 871 l 160 853 l 160 889 z "},"ȇ":{"ha":513,"x_min":35,"x_max":478,"o":"m 478 300 l 214 300 q 219 191 214 221 q 244 151 225 161 q 314 142 264 142 q 465 147 374 142 l 465 8 q 377 -6 432 0 q 271 -11 322 -11 q 111 27 161 -11 q 48 137 61 65 q 35 353 35 208 q 49 569 35 496 q 111 681 63 643 q 264 719 160 719 q 413 684 368 719 q 467 579 457 649 q 478 353 478 510 l 478 300 m 264 567 q 231 558 240 567 q 217 521 221 550 q 214 421 214 492 l 311 421 l 311 425 q 308 522 311 494 q 295 558 304 550 q 264 567 286 567 m 86 858 q 99 957 86 918 q 149 1018 111 996 q 258 1040 186 1040 q 367 1018 329 1040 q 417 957 404 996 q 429 858 429 918 l 317 858 q 307 917 317 900 q 258 935 297 935 q 208 917 218 935 q 197 858 197 899 l 86 858 z "},"ē":{"ha":513,"x_min":35,"x_max":478,"o":"m 478 300 l 214 300 q 219 191 214 221 q 244 151 225 161 q 314 142 264 142 q 465 147 374 142 l 465 8 q 377 -6 432 0 q 271 -11 322 -11 q 111 27 161 -11 q 48 137 61 65 q 35 353 35 208 q 49 569 35 496 q 111 681 63 643 q 264 719 160 719 q 413 684 368 719 q 467 579 457 649 q 478 353 478 510 l 478 300 m 264 567 q 231 558 240 567 q 217 521 221 550 q 214 421 214 492 l 311 421 l 311 425 q 308 522 311 494 q 295 558 304 550 q 264 567 286 567 m 135 868 l 135 1032 l 379 1032 l 379 868 l 135 868 z "},"ę":{"ha":513,"x_min":35,"x_max":478,"o":"m 478 300 l 214 300 q 219 191 214 221 q 244 151 225 161 q 314 142 264 142 q 465 147 374 142 l 465 8 q 415 -50 439 -14 q 392 -124 392 -86 q 440 -172 392 -172 l 456 -171 l 456 -267 q 389 -272 419 -272 q 287 -239 318 -272 q 256 -154 256 -206 q 322 -10 256 -82 q 271 -11 304 -11 q 111 27 161 -11 q 48 137 61 65 q 35 353 35 208 q 49 569 35 496 q 111 681 63 643 q 264 719 160 719 q 413 684 368 719 q 467 579 457 649 q 478 353 478 510 l 478 300 m 264 567 q 231 558 240 567 q 217 521 221 550 q 214 421 214 492 l 311 421 l 311 425 q 308 522 311 494 q 295 558 304 550 q 264 567 286 567 z "},"ẽ":{"ha":513,"x_min":35,"x_max":478,"o":"m 478 300 l 214 300 q 219 191 214 221 q 244 151 225 161 q 314 142 264 142 q 465 147 374 142 l 465 8 q 377 -6 432 0 q 271 -11 322 -11 q 111 27 161 -11 q 48 137 61 65 q 35 353 35 208 q 49 569 35 496 q 111 681 63 643 q 264 719 160 719 q 413 684 368 719 q 467 579 457 649 q 478 353 478 510 l 478 300 m 264 567 q 231 558 240 567 q 217 521 221 550 q 214 421 214 492 l 311 421 l 311 425 q 308 522 311 494 q 295 558 304 550 q 264 567 286 567 m 451 1032 q 447 926 451 961 q 422 872 442 892 q 356 851 401 851 q 249 872 317 851 q 220 881 239 875 q 189 888 201 888 q 172 877 175 888 q 169 836 169 867 l 61 836 q 67 941 61 906 q 93 996 72 976 q 160 1015 114 1015 q 265 994 200 1015 q 325 982 310 982 q 342 992 339 982 q 344 1032 344 1001 l 451 1032 z "},"ə":{"ha":513,"x_min":35,"x_max":478,"o":"m 242 719 q 401 681 351 719 q 465 572 451 643 q 478 356 478 500 q 464 139 478 213 q 401 27 450 65 q 249 -11 353 -11 q 100 24 144 -11 q 45 129 56 60 q 35 356 35 199 l 35 408 l 299 408 q 293 517 299 488 q 268 557 288 547 q 199 567 249 567 q 47 561 139 567 l 47 700 q 135 714 81 708 q 242 719 190 719 m 249 142 q 282 150 272 142 q 295 188 292 158 q 299 288 299 217 l 201 288 l 201 283 q 205 186 201 214 q 217 150 208 158 q 249 142 226 142 z "},"f":{"ha":378,"x_min":15,"x_max":356,"o":"m 83 556 l 15 556 l 15 708 l 83 708 l 83 739 q 103 938 83 879 q 176 1015 122 997 q 356 1032 229 1032 l 356 899 q 293 892 311 899 q 269 863 275 886 q 263 785 263 840 l 263 708 l 356 708 l 356 556 l 263 556 l 263 0 l 83 0 l 83 556 z "},"g":{"ha":542,"x_min":35,"x_max":494,"o":"m 256 -285 q 74 -271 153 -285 l 74 -132 l 213 -133 q 284 -123 264 -133 q 310 -82 304 -112 q 315 29 315 -51 l 315 92 l 303 92 q 186 6 282 6 q 92 38 125 6 q 47 147 60 71 q 35 364 35 222 q 49 584 35 508 q 95 690 63 660 q 189 719 128 719 q 262 698 229 719 q 306 626 294 676 l 317 626 l 322 708 l 494 708 l 494 83 q 481 -134 494 -61 q 417 -246 468 -207 q 256 -285 367 -285 m 264 168 q 294 176 285 168 q 310 211 304 185 q 315 364 315 246 q 311 503 315 464 q 296 547 306 538 q 264 557 286 557 q 229 547 239 557 q 217 500 219 538 q 214 364 214 463 q 217 226 214 264 q 229 178 219 188 q 264 168 239 168 z "},"ǵ":{"ha":542,"x_min":35,"x_max":494,"o":"m 256 -285 q 74 -271 153 -285 l 74 -132 l 213 -133 q 284 -123 264 -133 q 310 -82 304 -112 q 315 29 315 -51 l 315 92 l 303 92 q 186 6 282 6 q 92 38 125 6 q 47 147 60 71 q 35 364 35 222 q 49 584 35 508 q 95 690 63 660 q 189 719 128 719 q 262 698 229 719 q 306 626 294 676 l 317 626 l 322 708 l 494 708 l 494 83 q 481 -134 494 -61 q 417 -246 468 -207 q 256 -285 367 -285 m 264 168 q 294 176 285 168 q 310 211 304 185 q 315 364 315 246 q 311 503 315 464 q 296 547 306 538 q 264 557 286 557 q 229 547 239 557 q 217 500 219 538 q 214 364 214 463 q 217 226 214 264 q 229 178 219 188 q 264 168 239 168 m 193 828 l 193 835 l 243 1032 l 418 1032 l 418 1025 l 340 828 l 193 828 z "},"ğ":{"ha":542,"x_min":35,"x_max":494,"o":"m 256 -285 q 74 -271 153 -285 l 74 -132 l 213 -133 q 284 -123 264 -133 q 310 -82 304 -112 q 315 29 315 -51 l 315 92 l 303 92 q 186 6 282 6 q 92 38 125 6 q 47 147 60 71 q 35 364 35 222 q 49 584 35 508 q 95 690 63 660 q 189 719 128 719 q 262 698 229 719 q 306 626 294 676 l 317 626 l 322 708 l 494 708 l 494 83 q 481 -134 494 -61 q 417 -246 468 -207 q 256 -285 367 -285 m 264 168 q 294 176 285 168 q 310 211 304 185 q 315 364 315 246 q 311 503 315 464 q 296 547 306 538 q 264 557 286 557 q 229 547 239 557 q 217 500 219 538 q 214 364 214 463 q 217 226 214 264 q 229 178 219 188 q 264 168 239 168 m 442 1032 q 429 933 442 972 q 379 872 417 894 q 269 850 342 850 q 161 872 199 850 q 111 933 124 894 q 99 1032 99 972 l 211 1032 q 221 973 211 990 q 269 956 231 956 q 320 974 310 956 q 331 1032 331 992 l 442 1032 z "},"ǧ":{"ha":542,"x_min":35,"x_max":494,"o":"m 256 -285 q 74 -271 153 -285 l 74 -132 l 213 -133 q 284 -123 264 -133 q 310 -82 304 -112 q 315 29 315 -51 l 315 92 l 303 92 q 186 6 282 6 q 92 38 125 6 q 47 147 60 71 q 35 364 35 222 q 49 584 35 508 q 95 690 63 660 q 189 719 128 719 q 262 698 229 719 q 306 626 294 676 l 317 626 l 322 708 l 494 708 l 494 83 q 481 -134 494 -61 q 417 -246 468 -207 q 256 -285 367 -285 m 264 168 q 294 176 285 168 q 310 211 304 185 q 315 364 315 246 q 311 503 315 464 q 296 547 306 538 q 264 557 286 557 q 229 547 239 557 q 217 500 219 538 q 214 364 214 463 q 217 226 214 264 q 229 178 219 188 q 264 168 239 168 m 181 858 l 88 1021 l 88 1032 l 211 1032 l 269 944 l 329 1032 l 453 1032 l 453 1021 l 358 858 l 181 858 z "},"ĝ":{"ha":542,"x_min":35,"x_max":494,"o":"m 256 -285 q 74 -271 153 -285 l 74 -132 l 213 -133 q 284 -123 264 -133 q 310 -82 304 -112 q 315 29 315 -51 l 315 92 l 303 92 q 186 6 282 6 q 92 38 125 6 q 47 147 60 71 q 35 364 35 222 q 49 584 35 508 q 95 690 63 660 q 189 719 128 719 q 262 698 229 719 q 306 626 294 676 l 317 626 l 322 708 l 494 708 l 494 83 q 481 -134 494 -61 q 417 -246 468 -207 q 256 -285 367 -285 m 264 168 q 294 176 285 168 q 310 211 304 185 q 315 364 315 246 q 311 503 315 464 q 296 547 306 538 q 264 557 286 557 q 229 547 239 557 q 217 500 219 538 q 214 364 214 463 q 217 226 214 264 q 229 178 219 188 q 264 168 239 168 m 88 858 l 88 869 l 181 1032 l 358 1032 l 453 869 l 453 858 l 329 858 l 269 946 l 211 858 l 88 858 z "},"ģ":{"ha":542,"x_min":35,"x_max":494,"o":"m 256 -285 q 74 -271 153 -285 l 74 -132 l 213 -133 q 284 -123 264 -133 q 310 -82 304 -112 q 315 29 315 -51 l 315 92 l 303 92 q 186 6 282 6 q 92 38 125 6 q 47 147 60 71 q 35 364 35 222 q 49 584 35 508 q 95 690 63 660 q 189 719 128 719 q 262 698 229 719 q 306 626 294 676 l 317 626 l 322 708 l 494 708 l 494 83 q 481 -134 494 -61 q 417 -246 468 -207 q 256 -285 367 -285 m 264 168 q 294 176 285 168 q 310 211 304 185 q 315 364 315 246 q 311 503 315 464 q 296 547 306 538 q 264 557 286 557 q 229 547 239 557 q 217 500 219 538 q 214 364 214 463 q 217 226 214 264 q 229 178 219 188 q 264 168 239 168 m 363 1053 q 308 1039 321 1053 q 294 986 294 1025 l 294 967 l 363 967 l 363 829 l 179 829 l 179 915 q 192 1051 179 1007 q 242 1115 204 1096 q 363 1133 281 1133 l 363 1053 z "},"ġ":{"ha":542,"x_min":35,"x_max":494,"o":"m 256 -285 q 74 -271 153 -285 l 74 -132 l 213 -133 q 284 -123 264 -133 q 310 -82 304 -112 q 315 29 315 -51 l 315 92 l 303 92 q 186 6 282 6 q 92 38 125 6 q 47 147 60 71 q 35 364 35 222 q 49 584 35 508 q 95 690 63 660 q 189 719 128 719 q 262 698 229 719 q 306 626 294 676 l 317 626 l 322 708 l 494 708 l 494 83 q 481 -134 494 -61 q 417 -246 468 -207 q 256 -285 367 -285 m 264 168 q 294 176 285 168 q 310 211 304 185 q 315 364 315 246 q 311 503 315 464 q 296 547 306 538 q 264 557 286 557 q 229 547 239 557 q 217 500 219 538 q 214 364 214 463 q 217 226 214 264 q 229 178 219 188 q 264 168 239 168 m 193 869 l 193 1014 l 347 1014 l 347 869 l 193 869 z "},"h":{"ha":546,"x_min":47,"x_max":500,"o":"m 321 388 q 318 508 321 475 q 307 549 315 540 q 275 557 299 557 q 241 544 250 557 q 229 492 232 531 q 226 353 226 453 l 226 0 l 47 0 l 47 1032 l 226 1032 l 226 628 l 239 628 q 368 719 267 719 q 453 695 425 719 q 490 620 481 671 q 500 476 500 569 l 500 0 l 321 0 l 321 388 z "},"ħ":{"ha":546,"x_min":0,"x_max":500,"o":"m 368 719 q 453 695 425 719 q 490 620 481 671 q 500 476 500 569 l 500 0 l 321 0 l 321 388 q 318 508 321 475 q 307 549 315 540 q 275 557 299 557 q 241 544 250 557 q 229 492 232 531 q 226 353 226 453 l 226 0 l 47 0 l 47 803 l 0 803 l 0 956 l 47 956 l 47 1032 l 226 1032 l 226 956 l 340 956 l 340 803 l 226 803 l 226 628 l 239 628 q 368 719 267 719 z "},"ĥ":{"ha":546,"x_min":-46,"x_max":500,"o":"m 321 388 q 318 508 321 475 q 307 549 315 540 q 275 557 299 557 q 241 544 250 557 q 229 492 232 531 q 226 353 226 453 l 226 0 l 47 0 l 47 1032 l 226 1032 l 226 628 l 239 628 q 368 719 267 719 q 453 695 425 719 q 490 620 481 671 q 500 476 500 569 l 500 0 l 321 0 l 321 388 m -46 1106 l -46 1117 l 47 1279 l 225 1279 l 319 1117 l 319 1106 l 196 1106 l 136 1193 l 78 1106 l -46 1106 z "},"ḥ":{"ha":546,"x_min":47,"x_max":500,"o":"m 321 388 q 318 508 321 475 q 307 549 315 540 q 275 557 299 557 q 241 544 250 557 q 229 492 232 531 q 226 353 226 453 l 226 0 l 47 0 l 47 1032 l 226 1032 l 226 628 l 239 628 q 368 719 267 719 q 453 695 425 719 q 490 620 481 671 q 500 476 500 569 l 500 0 l 321 0 l 321 388 m 174 -271 l 174 -86 l 368 -86 l 368 -271 l 174 -271 z "},"i":{"ha":275,"x_min":47,"x_max":228,"o":"m 47 861 l 47 1032 l 228 1032 l 228 861 l 47 861 m 47 0 l 47 708 l 226 708 l 226 0 l 47 0 z "},"ı":{"ha":275,"x_min":47,"x_max":226,"o":"m 47 0 l 47 708 l 226 708 l 226 0 l 47 0 z "},"í":{"ha":275,"x_min":47,"x_max":272,"o":"m 47 0 l 47 708 l 226 708 l 226 0 l 47 0 m 47 828 l 47 835 l 97 1032 l 272 1032 l 272 1025 l 194 828 l 47 828 z "},"ĭ":{"ha":275,"x_min":-35,"x_max":308,"o":"m 47 0 l 47 708 l 226 708 l 226 0 l 47 0 m 308 1032 q 296 933 308 972 q 246 872 283 894 q 136 850 208 850 q 28 872 65 850 q -22 933 -10 894 q -35 1032 -35 972 l 78 1032 q 88 973 78 990 q 136 956 97 956 q 187 974 176 956 q 197 1032 197 992 l 308 1032 z "},"ǐ":{"ha":275,"x_min":-46,"x_max":319,"o":"m 47 0 l 47 708 l 226 708 l 226 0 l 47 0 m 47 858 l -46 1021 l -46 1032 l 78 1032 l 136 944 l 196 1032 l 319 1032 l 319 1021 l 225 858 l 47 858 z "},"î":{"ha":275,"x_min":-46,"x_max":319,"o":"m 47 0 l 47 708 l 226 708 l 226 0 l 47 0 m -46 858 l -46 869 l 47 1032 l 225 1032 l 319 869 l 319 858 l 196 858 l 136 946 l 78 858 l -46 858 z "},"ȉ":{"ha":275,"x_min":-74,"x_max":286,"o":"m 47 0 l 47 708 l 226 708 l 226 0 l 47 0 m 108 850 l -12 850 l -74 1006 l -74 1011 l 69 1011 l 108 856 l 108 850 m 286 850 l 165 850 l 104 1006 l 104 1011 l 247 1011 l 286 856 l 286 850 z "},"ï":{"ha":275,"x_min":-53,"x_max":328,"o":"m 47 0 l 47 708 l 226 708 l 226 0 l 47 0 m -53 869 l -53 1014 l 101 1014 l 101 869 l -53 869 m 174 869 l 174 1014 l 328 1014 l 328 869 l 174 869 z "},"ị":{"ha":275,"x_min":47,"x_max":257,"o":"m 47 861 l 47 1032 l 228 1032 l 228 861 l 47 861 m 47 0 l 47 708 l 226 708 l 226 0 l 47 0 m 63 -271 l 63 -86 l 257 -86 l 257 -271 l 63 -271 z "},"ì":{"ha":275,"x_min":1,"x_max":226,"o":"m 47 0 l 47 708 l 226 708 l 226 0 l 47 0 m 79 828 l 1 1025 l 1 1032 l 176 1032 l 226 835 l 226 828 l 79 828 z "},"ỉ":{"ha":275,"x_min":-24,"x_max":297,"o":"m 47 0 l 47 708 l 226 708 l 226 0 l 47 0 m 40 889 q 50 933 40 918 q 86 957 60 949 l 100 963 q 154 984 142 976 q 167 1007 167 992 q 156 1024 167 1021 q 113 1028 146 1028 q -24 1026 24 1028 l -24 1126 q 133 1146 74 1146 q 256 1124 214 1146 q 297 1036 297 1103 q 294 981 297 1000 q 276 947 290 961 q 232 919 263 932 l 217 913 q 172 892 183 899 q 157 878 160 886 q 154 853 154 871 l 40 853 l 40 889 z "},"ȋ":{"ha":275,"x_min":-33,"x_max":310,"o":"m 47 0 l 47 708 l 226 708 l 226 0 l 47 0 m -33 858 q -21 957 -33 918 q 29 1018 -8 996 q 139 1040 67 1040 q 247 1018 210 1040 q 297 957 285 996 q 310 858 310 918 l 197 858 q 188 917 197 900 q 139 935 178 935 q 88 917 99 935 q 78 858 78 899 l -33 858 z "},"ĳ":{"ha":550,"x_min":47,"x_max":503,"o":"m 47 861 l 47 1032 l 228 1032 l 228 861 l 47 861 m 47 0 l 47 708 l 226 708 l 226 0 l 47 0 m 322 861 l 322 1032 l 503 1032 l 503 861 l 322 861 m 256 -137 q 301 -131 288 -137 q 319 -110 315 -124 q 322 -67 322 -96 l 322 708 l 501 708 l 501 24 q 481 -176 501 -114 q 412 -256 461 -237 q 256 -274 363 -274 l 256 -137 z "},"ī":{"ha":275,"x_min":15,"x_max":260,"o":"m 47 0 l 47 708 l 226 708 l 226 0 l 47 0 m 15 868 l 15 1032 l 260 1032 l 260 868 l 15 868 z "},"į":{"ha":275,"x_min":28,"x_max":228,"o":"m 214 1014 l 214 869 l 61 869 l 61 1014 l 214 1014 m 228 -171 l 228 -267 q 161 -272 192 -272 q 59 -239 90 -272 q 28 -154 28 -206 q 48 -72 28 -112 q 103 0 68 -32 l 47 0 l 47 708 l 226 708 l 226 0 q 183 -56 203 -22 q 164 -124 164 -89 q 213 -172 164 -172 l 228 -171 z "},"ĩ":{"ha":275,"x_min":-58,"x_max":332,"o":"m 47 0 l 47 708 l 226 708 l 226 0 l 47 0 m 332 1032 q 327 926 332 961 q 302 872 322 892 q 236 851 282 851 q 129 872 197 851 q 101 881 119 875 q 69 888 82 888 q 53 877 56 888 q 50 836 50 867 l -58 836 q -53 941 -58 906 q -26 996 -47 976 q 40 1015 -6 1015 q 146 994 81 1015 q 206 982 190 982 q 222 992 219 982 q 225 1032 225 1001 l 332 1032 z "},"j":{"ha":275,"x_min":-19,"x_max":228,"o":"m 47 861 l 47 1032 l 228 1032 l 228 861 l 47 861 m -19 -137 q 26 -131 13 -137 q 44 -110 40 -124 q 47 -67 47 -96 l 47 708 l 226 708 l 226 24 q 206 -176 226 -114 q 137 -256 186 -237 q -19 -274 88 -274 l -19 -137 z "},"ȷ":{"ha":275,"x_min":-19,"x_max":226,"o":"m -19 -137 q 26 -131 13 -137 q 44 -110 40 -124 q 47 -67 47 -96 l 47 708 l 226 708 l 226 24 q 206 -176 226 -114 q 137 -256 186 -237 q -19 -274 88 -274 l -19 -137 z "},"ĵ":{"ha":275,"x_min":-46,"x_max":319,"o":"m -19 -137 q 26 -131 13 -137 q 44 -110 40 -124 q 47 -67 47 -96 l 47 708 l 226 708 l 226 24 q 206 -176 226 -114 q 137 -256 186 -237 q -19 -274 88 -274 l -19 -137 m -46 858 l -46 869 l 47 1032 l 225 1032 l 319 869 l 319 858 l 196 858 l 136 946 l 78 858 l -46 858 z "},"k":{"ha":524,"x_min":47,"x_max":517,"o":"m 333 0 l 256 275 l 226 275 l 226 0 l 47 0 l 47 1032 l 226 1032 l 226 428 l 256 428 l 339 708 l 517 708 l 406 372 l 517 0 l 333 0 z "},"ķ":{"ha":524,"x_min":47,"x_max":517,"o":"m 333 0 l 256 275 l 226 275 l 226 0 l 47 0 l 47 1032 l 226 1032 l 226 428 l 256 428 l 339 708 l 517 708 l 406 372 l 517 0 l 333 0 m 172 -310 q 227 -296 214 -310 q 240 -243 240 -282 l 240 -224 l 172 -224 l 172 -86 l 356 -86 l 356 -172 q 343 -308 356 -264 q 292 -372 331 -353 q 172 -390 254 -390 l 172 -310 z "},"ĸ":{"ha":524,"x_min":47,"x_max":517,"o":"m 333 0 l 256 275 l 226 275 l 226 0 l 47 0 l 47 708 l 226 708 l 226 428 l 256 428 l 339 708 l 517 708 l 406 372 l 517 0 l 333 0 z "},"l":{"ha":275,"x_min":47,"x_max":226,"o":"m 47 0 l 47 1032 l 226 1032 l 226 0 l 47 0 z "},"ĺ":{"ha":275,"x_min":47,"x_max":285,"o":"m 47 0 l 47 1032 l 226 1032 l 226 0 l 47 0 m 60 1075 l 60 1082 l 110 1279 l 285 1279 l 285 1272 l 207 1075 l 60 1075 z "},"ľ":{"ha":417,"x_min":47,"x_max":460,"o":"m 47 0 l 47 1032 l 226 1032 l 226 0 l 47 0 m 269 590 l 290 888 l 290 956 l 460 956 l 460 888 l 401 590 l 269 590 z "},"ļ":{"ha":275,"x_min":47,"x_max":232,"o":"m 47 0 l 47 1032 l 226 1032 l 226 0 l 47 0 m 49 -310 q 103 -296 90 -310 q 117 -243 117 -282 l 117 -224 l 49 -224 l 49 -86 l 232 -86 l 232 -172 q 219 -308 232 -264 q 169 -372 207 -353 q 49 -390 131 -390 l 49 -310 z "},"ŀ":{"ha":417,"x_min":47,"x_max":429,"o":"m 47 0 l 47 1032 l 226 1032 l 226 0 l 47 0 m 267 322 l 267 507 l 429 507 l 429 322 l 267 322 z "},"ǉ":{"ha":550,"x_min":47,"x_max":503,"o":"m 47 0 l 47 1032 l 226 1032 l 226 0 l 47 0 m 322 861 l 322 1032 l 503 1032 l 503 861 l 322 861 m 256 -137 q 301 -131 288 -137 q 319 -110 315 -124 q 322 -67 322 -96 l 322 708 l 501 708 l 501 24 q 481 -176 501 -114 q 412 -256 461 -237 q 256 -274 363 -274 l 256 -137 z "},"ł":{"ha":285,"x_min":6,"x_max":279,"o":"m 50 0 l 50 386 l 6 371 l 6 532 l 50 547 l 50 1032 l 229 1032 l 229 613 l 279 631 l 279 469 l 229 451 l 229 0 l 50 0 z "},"m":{"ha":814,"x_min":47,"x_max":769,"o":"m 590 388 q 588 508 590 475 q 576 549 585 540 q 544 557 568 557 q 512 544 521 557 q 501 494 503 531 q 499 353 499 457 l 499 0 l 319 0 l 319 388 q 317 508 319 475 q 306 549 314 540 q 274 557 297 557 q 240 544 250 557 q 228 492 231 531 q 226 353 226 453 l 226 0 l 47 0 l 47 708 l 219 708 l 225 626 l 236 626 q 287 699 254 678 q 369 719 319 719 q 451 697 422 719 q 489 626 479 674 l 501 626 q 552 699 519 678 q 635 719 585 719 q 718 696 689 719 q 758 623 747 672 q 769 488 769 574 l 769 0 l 590 0 l 590 388 z "},"n":{"ha":546,"x_min":47,"x_max":500,"o":"m 321 388 q 318 508 321 475 q 307 549 315 540 q 275 557 299 557 q 241 544 250 557 q 229 492 232 531 q 226 353 226 453 l 226 0 l 47 0 l 47 708 l 219 708 l 225 626 l 236 626 q 368 719 264 719 q 453 695 425 719 q 490 620 481 671 q 500 476 500 569 l 500 0 l 321 0 l 321 388 z "},"ń":{"ha":546,"x_min":47,"x_max":500,"o":"m 321 388 q 318 508 321 475 q 307 549 315 540 q 275 557 299 557 q 241 544 250 557 q 229 492 232 531 q 226 353 226 453 l 226 0 l 47 0 l 47 708 l 219 708 l 225 626 l 236 626 q 368 719 264 719 q 453 695 425 719 q 490 620 481 671 q 500 476 500 569 l 500 0 l 321 0 l 321 388 m 194 828 l 194 835 l 244 1032 l 419 1032 l 419 1025 l 342 828 l 194 828 z "},"ŉ":{"ha":706,"x_min":24,"x_max":660,"o":"m 24 774 q 78 795 65 774 q 92 876 92 817 l 92 894 l 24 894 l 24 1032 l 207 1032 l 207 947 q 194 789 207 840 q 144 715 182 738 q 24 693 106 693 l 24 774 m 481 388 q 478 508 481 475 q 467 549 475 540 q 435 557 458 557 q 401 544 410 557 q 389 492 392 531 q 386 353 386 453 l 386 0 l 207 0 l 207 708 l 379 708 l 385 626 l 396 626 q 528 719 424 719 q 613 695 585 719 q 650 620 640 671 q 660 476 660 569 l 660 0 l 481 0 l 481 388 z "},"ň":{"ha":546,"x_min":47,"x_max":500,"o":"m 321 388 q 318 508 321 475 q 307 549 315 540 q 275 557 299 557 q 241 544 250 557 q 229 492 232 531 q 226 353 226 453 l 226 0 l 47 0 l 47 708 l 219 708 l 225 626 l 236 626 q 368 719 264 719 q 453 695 425 719 q 490 620 481 671 q 500 476 500 569 l 500 0 l 321 0 l 321 388 m 182 858 l 89 1021 l 89 1032 l 213 1032 l 271 944 l 331 1032 l 454 1032 l 454 1021 l 360 858 l 182 858 z "},"ņ":{"ha":546,"x_min":47,"x_max":500,"o":"m 321 388 q 318 508 321 475 q 307 549 315 540 q 275 557 299 557 q 241 544 250 557 q 229 492 232 531 q 226 353 226 453 l 226 0 l 47 0 l 47 708 l 219 708 l 225 626 l 236 626 q 368 719 264 719 q 453 695 425 719 q 490 620 481 671 q 500 476 500 569 l 500 0 l 321 0 l 321 388 m 183 -310 q 238 -296 225 -310 q 251 -243 251 -282 l 251 -224 l 183 -224 l 183 -86 l 367 -86 l 367 -172 q 354 -308 367 -264 q 303 -372 342 -353 q 183 -390 265 -390 l 183 -310 z "},"ṅ":{"ha":546,"x_min":47,"x_max":500,"o":"m 321 388 q 318 508 321 475 q 307 549 315 540 q 275 557 299 557 q 241 544 250 557 q 229 492 232 531 q 226 353 226 453 l 226 0 l 47 0 l 47 708 l 219 708 l 225 626 l 236 626 q 368 719 264 719 q 453 695 425 719 q 490 620 481 671 q 500 476 500 569 l 500 0 l 321 0 l 321 388 m 194 869 l 194 1014 l 349 1014 l 349 869 l 194 869 z "},"ŋ":{"ha":546,"x_min":47,"x_max":500,"o":"m 368 719 q 453 695 425 719 q 490 620 481 671 q 500 476 500 569 l 500 24 q 480 -176 500 -114 q 410 -256 460 -237 q 254 -274 361 -274 l 254 -137 q 300 -131 286 -137 q 317 -110 314 -124 q 321 -67 321 -96 l 321 388 q 318 508 321 475 q 307 549 315 540 q 275 557 299 557 q 241 544 250 557 q 229 492 232 531 q 226 353 226 453 l 226 0 l 47 0 l 47 708 l 219 708 l 225 626 l 236 626 q 368 719 264 719 z "},"ɲ":{"ha":546,"x_min":-19,"x_max":500,"o":"m -19 -137 q 26 -131 13 -137 q 44 -110 40 -124 q 47 -67 47 -96 l 47 708 l 219 708 l 225 626 l 236 626 q 368 719 264 719 q 453 695 425 719 q 490 620 481 671 q 500 476 500 569 l 500 0 l 321 0 l 321 388 q 318 508 321 475 q 307 549 315 540 q 275 557 299 557 q 241 544 250 557 q 229 492 232 531 q 226 356 226 454 l 226 24 q 206 -176 226 -114 q 137 -256 186 -237 q -19 -274 88 -274 l -19 -137 z "},"ǌ":{"ha":821,"x_min":47,"x_max":774,"o":"m 321 388 q 318 508 321 475 q 307 549 315 540 q 275 557 299 557 q 241 544 250 557 q 229 492 232 531 q 226 353 226 453 l 226 0 l 47 0 l 47 708 l 219 708 l 225 626 l 236 626 q 368 719 264 719 q 453 695 425 719 q 490 620 481 671 q 500 476 500 569 l 500 0 l 321 0 l 321 388 m 593 861 l 593 1032 l 774 1032 l 774 861 l 593 861 m 526 -137 q 572 -131 558 -137 q 590 -110 586 -124 q 593 -67 593 -96 l 593 708 l 772 708 l 772 24 q 752 -176 772 -114 q 683 -256 732 -237 q 526 -274 633 -274 l 526 -137 z "},"ñ":{"ha":546,"x_min":47,"x_max":500,"o":"m 321 388 q 318 508 321 475 q 307 549 315 540 q 275 557 299 557 q 241 544 250 557 q 229 492 232 531 q 226 353 226 453 l 226 0 l 47 0 l 47 708 l 219 708 l 225 626 l 236 626 q 368 719 264 719 q 453 695 425 719 q 490 620 481 671 q 500 476 500 569 l 500 0 l 321 0 l 321 388 m 471 1032 q 466 926 471 961 q 441 872 461 892 q 375 851 421 851 q 268 872 336 851 q 240 881 258 875 q 208 888 221 888 q 192 877 194 888 q 189 836 189 867 l 81 836 q 86 941 81 906 q 113 996 92 976 q 179 1015 133 1015 q 285 994 219 1015 q 344 982 329 982 q 361 992 358 982 q 364 1032 364 1001 l 471 1032 z "},"o":{"ha":529,"x_min":35,"x_max":493,"o":"m 264 -11 q 111 19 158 -11 q 49 123 64 50 q 35 354 35 196 q 49 585 35 513 q 111 689 64 658 q 264 719 158 719 q 418 689 371 719 q 479 586 465 658 q 493 354 493 514 q 479 122 493 194 q 418 19 465 50 q 264 -11 371 -11 m 264 142 q 299 153 290 142 q 311 204 308 165 q 314 354 314 243 q 311 504 314 465 q 299 555 308 543 q 264 567 290 567 q 229 555 239 567 q 217 503 219 543 q 214 354 214 463 q 217 206 214 246 q 229 153 219 165 q 264 142 239 142 z "},"ó":{"ha":529,"x_min":35,"x_max":493,"o":"m 264 -11 q 111 19 158 -11 q 49 123 64 50 q 35 354 35 196 q 49 585 35 513 q 111 689 64 658 q 264 719 158 719 q 418 689 371 719 q 479 586 465 658 q 493 354 493 514 q 479 122 493 194 q 418 19 465 50 q 264 -11 371 -11 m 264 142 q 299 153 290 142 q 311 204 308 165 q 314 354 314 243 q 311 504 314 465 q 299 555 308 543 q 264 567 290 567 q 229 555 239 567 q 217 503 219 543 q 214 354 214 463 q 217 206 214 246 q 229 153 219 165 q 264 142 239 142 m 181 828 l 181 835 l 231 1032 l 406 1032 l 406 1025 l 328 828 l 181 828 z "},"ŏ":{"ha":529,"x_min":35,"x_max":493,"o":"m 264 -11 q 111 19 158 -11 q 49 123 64 50 q 35 354 35 196 q 49 585 35 513 q 111 689 64 658 q 264 719 158 719 q 418 689 371 719 q 479 586 465 658 q 493 354 493 514 q 479 122 493 194 q 418 19 465 50 q 264 -11 371 -11 m 264 142 q 299 153 290 142 q 311 204 308 165 q 314 354 314 243 q 311 504 314 465 q 299 555 308 543 q 264 567 290 567 q 229 555 239 567 q 217 503 219 543 q 214 354 214 463 q 217 206 214 246 q 229 153 219 165 q 264 142 239 142 m 435 1032 q 422 933 435 972 q 372 872 410 894 q 263 850 335 850 q 154 872 192 850 q 104 933 117 894 q 92 1032 92 972 l 204 1032 q 214 973 204 990 q 263 956 224 956 q 313 974 303 956 q 324 1032 324 992 l 435 1032 z "},"ǒ":{"ha":529,"x_min":35,"x_max":493,"o":"m 264 -11 q 111 19 158 -11 q 49 123 64 50 q 35 354 35 196 q 49 585 35 513 q 111 689 64 658 q 264 719 158 719 q 418 689 371 719 q 479 586 465 658 q 493 354 493 514 q 479 122 493 194 q 418 19 465 50 q 264 -11 371 -11 m 264 142 q 299 153 290 142 q 311 204 308 165 q 314 354 314 243 q 311 504 314 465 q 299 555 308 543 q 264 567 290 567 q 229 555 239 567 q 217 503 219 543 q 214 354 214 463 q 217 206 214 246 q 229 153 219 165 q 264 142 239 142 m 174 858 l 81 1021 l 81 1032 l 204 1032 l 263 944 l 322 1032 l 446 1032 l 446 1021 l 351 858 l 174 858 z "},"ô":{"ha":529,"x_min":35,"x_max":493,"o":"m 264 -11 q 111 19 158 -11 q 49 123 64 50 q 35 354 35 196 q 49 585 35 513 q 111 689 64 658 q 264 719 158 719 q 418 689 371 719 q 479 586 465 658 q 493 354 493 514 q 479 122 493 194 q 418 19 465 50 q 264 -11 371 -11 m 264 142 q 299 153 290 142 q 311 204 308 165 q 314 354 314 243 q 311 504 314 465 q 299 555 308 543 q 264 567 290 567 q 229 555 239 567 q 217 503 219 543 q 214 354 214 463 q 217 206 214 246 q 229 153 219 165 q 264 142 239 142 m 83 858 l 83 869 l 176 1032 l 354 1032 l 449 869 l 449 858 l 325 858 l 265 946 l 207 858 l 83 858 z "},"ố":{"ha":529,"x_min":35,"x_max":526,"o":"m 264 -11 q 111 19 158 -11 q 49 123 64 50 q 35 354 35 196 q 49 585 35 513 q 111 689 64 658 q 264 719 158 719 q 418 689 371 719 q 479 586 465 658 q 493 354 493 514 q 479 122 493 194 q 418 19 465 50 q 264 -11 371 -11 m 264 142 q 299 153 290 142 q 311 204 308 165 q 314 354 314 243 q 311 504 314 465 q 299 555 308 543 q 264 567 290 567 q 229 555 239 567 q 217 503 219 543 q 214 354 214 463 q 217 206 214 246 q 229 153 219 165 q 264 142 239 142 m 82 858 l 82 869 l 175 1032 l 353 1032 l 447 869 l 447 858 l 324 858 l 264 946 l 206 858 l 82 858 m 301 1061 l 301 1068 l 351 1265 l 526 1265 l 526 1258 l 449 1061 l 301 1061 z "},"ộ":{"ha":529,"x_min":35,"x_max":493,"o":"m 264 -11 q 111 19 158 -11 q 49 123 64 50 q 35 354 35 196 q 49 585 35 513 q 111 689 64 658 q 264 719 158 719 q 418 689 371 719 q 479 586 465 658 q 493 354 493 514 q 479 122 493 194 q 418 19 465 50 q 264 -11 371 -11 m 264 142 q 299 153 290 142 q 311 204 308 165 q 314 354 314 243 q 311 504 314 465 q 299 555 308 543 q 264 567 290 567 q 229 555 239 567 q 217 503 219 543 q 214 354 214 463 q 217 206 214 246 q 229 153 219 165 q 264 142 239 142 m 165 -271 l 165 -86 l 360 -86 l 360 -271 l 165 -271 m 81 858 l 81 869 l 174 1032 l 351 1032 l 446 869 l 446 858 l 322 858 l 263 946 l 204 858 l 81 858 z "},"ồ":{"ha":529,"x_min":35,"x_max":493,"o":"m 264 -11 q 111 19 158 -11 q 49 123 64 50 q 35 354 35 196 q 49 585 35 513 q 111 689 64 658 q 264 719 158 719 q 418 689 371 719 q 479 586 465 658 q 493 354 493 514 q 479 122 493 194 q 418 19 465 50 q 264 -11 371 -11 m 264 142 q 299 153 290 142 q 311 204 308 165 q 314 354 314 243 q 311 504 314 465 q 299 555 308 543 q 264 567 290 567 q 229 555 239 567 q 217 503 219 543 q 214 354 214 463 q 217 206 214 246 q 229 153 219 165 q 264 142 239 142 m 67 858 l 67 869 l 160 1032 l 338 1032 l 432 869 l 432 858 l 308 858 l 249 946 l 190 858 l 67 858 m 313 1061 l 235 1258 l 235 1265 l 410 1265 l 460 1068 l 460 1061 l 313 1061 z "},"ổ":{"ha":529,"x_min":35,"x_max":594,"o":"m 264 -11 q 111 19 158 -11 q 49 123 64 50 q 35 354 35 196 q 49 585 35 513 q 111 689 64 658 q 264 719 158 719 q 418 689 371 719 q 479 586 465 658 q 493 354 493 514 q 479 122 493 194 q 418 19 465 50 q 264 -11 371 -11 m 264 142 q 299 153 290 142 q 311 204 308 165 q 314 354 314 243 q 311 504 314 465 q 299 555 308 543 q 264 567 290 567 q 229 555 239 567 q 217 503 219 543 q 214 354 214 463 q 217 206 214 246 q 229 153 219 165 q 264 142 239 142 m 81 858 l 81 869 l 174 1032 l 351 1032 l 446 869 l 446 858 l 322 858 l 263 946 l 204 858 l 81 858 m 338 1093 q 347 1138 338 1122 q 383 1161 357 1153 l 397 1167 q 451 1188 439 1181 q 464 1211 464 1196 q 453 1228 464 1225 q 410 1232 443 1232 q 274 1231 321 1232 l 274 1331 q 431 1350 371 1350 q 553 1328 511 1350 q 594 1240 594 1307 q 591 1185 594 1204 q 574 1151 588 1165 q 529 1124 560 1136 l 514 1117 q 469 1097 481 1103 q 454 1083 457 1090 q 451 1057 451 1075 l 338 1057 l 338 1093 z "},"ỗ":{"ha":529,"x_min":35,"x_max":493,"o":"m 264 -11 q 111 19 158 -11 q 49 123 64 50 q 35 354 35 196 q 49 585 35 513 q 111 689 64 658 q 264 719 158 719 q 418 689 371 719 q 479 586 465 658 q 493 354 493 514 q 479 122 493 194 q 418 19 465 50 q 264 -11 371 -11 m 264 142 q 299 153 290 142 q 311 204 308 165 q 314 354 314 243 q 311 504 314 465 q 299 555 308 543 q 264 567 290 567 q 229 555 239 567 q 217 503 219 543 q 214 354 214 463 q 217 206 214 246 q 229 153 219 165 q 264 142 239 142 m 78 858 l 78 869 l 171 1032 l 349 1032 l 443 869 l 443 858 l 319 858 l 260 946 l 201 858 l 78 858 m 458 1272 q 453 1167 458 1201 q 428 1112 449 1132 q 363 1092 408 1092 q 256 1113 324 1092 q 227 1122 246 1115 q 196 1128 208 1128 q 179 1117 182 1128 q 176 1076 176 1107 l 68 1076 q 74 1181 68 1146 q 100 1236 79 1217 q 167 1256 121 1256 q 272 1235 207 1256 q 332 1222 317 1222 q 349 1232 346 1222 q 351 1272 351 1242 l 458 1272 z "},"ȍ":{"ha":529,"x_min":35,"x_max":493,"o":"m 264 -11 q 111 19 158 -11 q 49 123 64 50 q 35 354 35 196 q 49 585 35 513 q 111 689 64 658 q 264 719 158 719 q 418 689 371 719 q 479 586 465 658 q 493 354 493 514 q 479 122 493 194 q 418 19 465 50 q 264 -11 371 -11 m 264 142 q 299 153 290 142 q 311 204 308 165 q 314 354 314 243 q 311 504 314 465 q 299 555 308 543 q 264 567 290 567 q 229 555 239 567 q 217 503 219 543 q 214 354 214 463 q 217 206 214 246 q 229 153 219 165 q 264 142 239 142 m 235 850 l 114 850 l 53 1006 l 53 1011 l 196 1011 l 235 856 l 235 850 m 413 850 l 292 850 l 231 1006 l 231 1011 l 374 1011 l 413 856 l 413 850 z "},"ö":{"ha":529,"x_min":35,"x_max":493,"o":"m 264 -11 q 111 19 158 -11 q 49 123 64 50 q 35 354 35 196 q 49 585 35 513 q 111 689 64 658 q 264 719 158 719 q 418 689 371 719 q 479 586 465 658 q 493 354 493 514 q 479 122 493 194 q 418 19 465 50 q 264 -11 371 -11 m 264 142 q 299 153 290 142 q 311 204 308 165 q 314 354 314 243 q 311 504 314 465 q 299 555 308 543 q 264 567 290 567 q 229 555 239 567 q 217 503 219 543 q 214 354 214 463 q 217 206 214 246 q 229 153 219 165 q 264 142 239 142 m 76 869 l 76 1014 l 231 1014 l 231 869 l 76 869 m 303 869 l 303 1014 l 457 1014 l 457 869 l 303 869 z "},"ọ":{"ha":529,"x_min":35,"x_max":493,"o":"m 264 -11 q 111 19 158 -11 q 49 123 64 50 q 35 354 35 196 q 49 585 35 513 q 111 689 64 658 q 264 719 158 719 q 418 689 371 719 q 479 586 465 658 q 493 354 493 514 q 479 122 493 194 q 418 19 465 50 q 264 -11 371 -11 m 264 142 q 299 153 290 142 q 311 204 308 165 q 314 354 314 243 q 311 504 314 465 q 299 555 308 543 q 264 567 290 567 q 229 555 239 567 q 217 503 219 543 q 214 354 214 463 q 217 206 214 246 q 229 153 219 165 q 264 142 239 142 m 165 -271 l 165 -86 l 360 -86 l 360 -271 l 165 -271 z "},"ò":{"ha":529,"x_min":35,"x_max":493,"o":"m 264 -11 q 111 19 158 -11 q 49 123 64 50 q 35 354 35 196 q 49 585 35 513 q 111 689 64 658 q 264 719 158 719 q 418 689 371 719 q 479 586 465 658 q 493 354 493 514 q 479 122 493 194 q 418 19 465 50 q 264 -11 371 -11 m 264 142 q 299 153 290 142 q 311 204 308 165 q 314 354 314 243 q 311 504 314 465 q 299 555 308 543 q 264 567 290 567 q 229 555 239 567 q 217 503 219 543 q 214 354 214 463 q 217 206 214 246 q 229 153 219 165 q 264 142 239 142 m 194 828 l 117 1025 l 117 1032 l 292 1032 l 342 835 l 342 828 l 194 828 z "},"ỏ":{"ha":529,"x_min":35,"x_max":493,"o":"m 264 -11 q 111 19 158 -11 q 49 123 64 50 q 35 354 35 196 q 49 585 35 513 q 111 689 64 658 q 264 719 158 719 q 418 689 371 719 q 479 586 465 658 q 493 354 493 514 q 479 122 493 194 q 418 19 465 50 q 264 -11 371 -11 m 264 142 q 299 153 290 142 q 311 204 308 165 q 314 354 314 243 q 311 504 314 465 q 299 555 308 543 q 264 567 290 567 q 229 555 239 567 q 217 503 219 543 q 214 354 214 463 q 217 206 214 246 q 229 153 219 165 q 264 142 239 142 m 167 889 q 176 933 167 918 q 213 957 186 949 l 226 963 q 281 984 268 976 q 293 1007 293 992 q 283 1024 293 1021 q 239 1028 272 1028 q 103 1026 150 1028 l 103 1126 q 260 1146 200 1146 q 382 1124 340 1146 q 424 1036 424 1103 q 420 981 424 1000 q 403 947 417 961 q 358 919 389 932 l 343 913 q 298 892 310 899 q 283 878 286 886 q 281 853 281 871 l 167 853 l 167 889 z "},"ơ":{"ha":529,"x_min":35,"x_max":554,"o":"m 554 833 l 554 808 q 538 683 554 721 q 464 633 521 646 q 488 530 482 594 q 493 354 493 465 q 479 122 493 194 q 418 19 465 50 q 264 -11 371 -11 q 111 19 158 -11 q 49 123 64 50 q 35 354 35 196 q 49 585 35 513 q 111 689 64 658 q 264 719 158 719 q 372 708 333 719 q 426 726 413 710 q 439 785 439 742 l 439 833 l 554 833 m 264 142 q 299 153 290 142 q 311 204 308 165 q 314 354 314 243 q 311 504 314 465 q 299 555 308 543 q 264 567 290 567 q 229 555 239 567 q 217 503 219 543 q 214 354 214 463 q 217 206 214 246 q 229 153 219 165 q 264 142 239 142 z "},"ớ":{"ha":529,"x_min":35,"x_max":554,"o":"m 554 833 l 554 808 q 538 683 554 721 q 464 633 521 646 q 488 530 482 594 q 493 354 493 465 q 479 122 493 194 q 418 19 465 50 q 264 -11 371 -11 q 111 19 158 -11 q 49 123 64 50 q 35 354 35 196 q 49 585 35 513 q 111 689 64 658 q 264 719 158 719 q 372 708 333 719 q 426 726 413 710 q 439 785 439 742 l 439 833 l 554 833 m 264 142 q 299 153 290 142 q 311 204 308 165 q 314 354 314 243 q 311 504 314 465 q 299 555 308 543 q 264 567 290 567 q 229 555 239 567 q 217 503 219 543 q 214 354 214 463 q 217 206 214 246 q 229 153 219 165 q 264 142 239 142 m 186 828 l 186 835 l 236 1032 l 411 1032 l 411 1025 l 333 828 l 186 828 z "},"ợ":{"ha":529,"x_min":35,"x_max":554,"o":"m 554 833 l 554 808 q 538 683 554 721 q 464 633 521 646 q 488 530 482 594 q 493 354 493 465 q 479 122 493 194 q 418 19 465 50 q 264 -11 371 -11 q 111 19 158 -11 q 49 123 64 50 q 35 354 35 196 q 49 585 35 513 q 111 689 64 658 q 264 719 158 719 q 372 708 333 719 q 426 726 413 710 q 439 785 439 742 l 439 833 l 554 833 m 264 142 q 299 153 290 142 q 311 204 308 165 q 314 354 314 243 q 311 504 314 465 q 299 555 308 543 q 264 567 290 567 q 229 555 239 567 q 217 503 219 543 q 214 354 214 463 q 217 206 214 246 q 229 153 219 165 q 264 142 239 142 m 165 -271 l 165 -86 l 360 -86 l 360 -271 l 165 -271 z "},"ờ":{"ha":529,"x_min":35,"x_max":554,"o":"m 554 833 l 554 808 q 538 683 554 721 q 464 633 521 646 q 488 530 482 594 q 493 354 493 465 q 479 122 493 194 q 418 19 465 50 q 264 -11 371 -11 q 111 19 158 -11 q 49 123 64 50 q 35 354 35 196 q 49 585 35 513 q 111 689 64 658 q 264 719 158 719 q 372 708 333 719 q 426 726 413 710 q 439 785 439 742 l 439 833 l 554 833 m 264 142 q 299 153 290 142 q 311 204 308 165 q 314 354 314 243 q 311 504 314 465 q 299 555 308 543 q 264 567 290 567 q 229 555 239 567 q 217 503 219 543 q 214 354 214 463 q 217 206 214 246 q 229 153 219 165 q 264 142 239 142 m 188 828 l 110 1025 l 110 1032 l 285 1032 l 335 835 l 335 828 l 188 828 z "},"ở":{"ha":529,"x_min":35,"x_max":554,"o":"m 554 833 l 554 808 q 538 683 554 721 q 464 633 521 646 q 488 530 482 594 q 493 354 493 465 q 479 122 493 194 q 418 19 465 50 q 264 -11 371 -11 q 111 19 158 -11 q 49 123 64 50 q 35 354 35 196 q 49 585 35 513 q 111 689 64 658 q 264 719 158 719 q 372 708 333 719 q 426 726 413 710 q 439 785 439 742 l 439 833 l 554 833 m 264 142 q 299 153 290 142 q 311 204 308 165 q 314 354 314 243 q 311 504 314 465 q 299 555 308 543 q 264 567 290 567 q 229 555 239 567 q 217 503 219 543 q 214 354 214 463 q 217 206 214 246 q 229 153 219 165 q 264 142 239 142 m 167 889 q 176 933 167 918 q 213 957 186 949 l 226 963 q 281 984 268 976 q 293 1007 293 992 q 283 1024 293 1021 q 239 1028 272 1028 q 103 1026 150 1028 l 103 1126 q 260 1146 200 1146 q 382 1124 340 1146 q 424 1036 424 1103 q 420 981 424 1000 q 403 947 417 961 q 358 919 389 932 l 343 913 q 298 892 310 899 q 283 878 286 886 q 281 853 281 871 l 167 853 l 167 889 z "},"ỡ":{"ha":529,"x_min":35,"x_max":554,"o":"m 554 833 l 554 808 q 538 683 554 721 q 464 633 521 646 q 488 530 482 594 q 493 354 493 465 q 479 122 493 194 q 418 19 465 50 q 264 -11 371 -11 q 111 19 158 -11 q 49 123 64 50 q 35 354 35 196 q 49 585 35 513 q 111 689 64 658 q 264 719 158 719 q 372 708 333 719 q 426 726 413 710 q 439 785 439 742 l 439 833 l 554 833 m 264 142 q 299 153 290 142 q 311 204 308 165 q 314 354 314 243 q 311 504 314 465 q 299 555 308 543 q 264 567 290 567 q 229 555 239 567 q 217 503 219 543 q 214 354 214 463 q 217 206 214 246 q 229 153 219 165 q 264 142 239 142 m 458 1032 q 453 926 458 961 q 428 872 449 892 q 363 851 408 851 q 256 872 324 851 q 227 881 246 875 q 196 888 208 888 q 179 877 182 888 q 176 836 176 867 l 68 836 q 74 941 68 906 q 100 996 79 976 q 167 1015 121 1015 q 272 994 207 1015 q 332 982 317 982 q 349 992 346 982 q 351 1032 351 1001 l 458 1032 z "},"ő":{"ha":529,"x_min":35,"x_max":493,"o":"m 264 -11 q 111 19 158 -11 q 49 123 64 50 q 35 354 35 196 q 49 585 35 513 q 111 689 64 658 q 264 719 158 719 q 418 689 371 719 q 479 586 465 658 q 493 354 493 514 q 479 122 493 194 q 418 19 465 50 q 264 -11 371 -11 m 264 142 q 299 153 290 142 q 311 204 308 165 q 314 354 314 243 q 311 504 314 465 q 299 555 308 543 q 264 567 290 567 q 229 555 239 567 q 217 503 219 543 q 214 354 214 463 q 217 206 214 246 q 229 153 219 165 q 264 142 239 142 m 126 850 l 126 856 l 165 1011 l 308 1011 l 308 1006 l 247 850 l 126 850 m 304 850 l 304 856 l 343 1011 l 486 1011 l 486 1006 l 425 850 l 304 850 z "},"ȏ":{"ha":529,"x_min":35,"x_max":493,"o":"m 264 -11 q 111 19 158 -11 q 49 123 64 50 q 35 354 35 196 q 49 585 35 513 q 111 689 64 658 q 264 719 158 719 q 418 689 371 719 q 479 586 465 658 q 493 354 493 514 q 479 122 493 194 q 418 19 465 50 q 264 -11 371 -11 m 264 142 q 299 153 290 142 q 311 204 308 165 q 314 354 314 243 q 311 504 314 465 q 299 555 308 543 q 264 567 290 567 q 229 555 239 567 q 217 503 219 543 q 214 354 214 463 q 217 206 214 246 q 229 153 219 165 q 264 142 239 142 m 93 858 q 106 957 93 918 q 156 1018 118 996 q 265 1040 193 1040 q 374 1018 336 1040 q 424 957 411 996 q 436 858 436 918 l 324 858 q 314 917 324 900 q 265 935 304 935 q 215 917 225 935 q 204 858 204 899 l 93 858 z "},"ō":{"ha":529,"x_min":35,"x_max":493,"o":"m 264 -11 q 111 19 158 -11 q 49 123 64 50 q 35 354 35 196 q 49 585 35 513 q 111 689 64 658 q 264 719 158 719 q 418 689 371 719 q 479 586 465 658 q 493 354 493 514 q 479 122 493 194 q 418 19 465 50 q 264 -11 371 -11 m 264 142 q 299 153 290 142 q 311 204 308 165 q 314 354 314 243 q 311 504 314 465 q 299 555 308 543 q 264 567 290 567 q 229 555 239 567 q 217 503 219 543 q 214 354 214 463 q 217 206 214 246 q 229 153 219 165 q 264 142 239 142 m 142 868 l 142 1032 l 386 1032 l 386 868 l 142 868 z "},"ǫ":{"ha":529,"x_min":35,"x_max":493,"o":"m 264 719 q 418 689 371 719 q 479 586 465 658 q 493 354 493 514 q 481 135 493 206 q 432 29 469 64 q 380 -41 397 -1 q 363 -121 363 -81 q 411 -172 363 -172 l 426 -171 l 426 -267 q 360 -272 393 -272 q 258 -238 290 -272 q 226 -151 226 -204 q 275 -11 226 -83 l 264 -11 q 111 19 158 -11 q 49 123 64 50 q 35 354 35 196 q 49 585 35 513 q 111 689 64 658 q 264 719 158 719 m 214 354 q 217 206 214 246 q 229 153 219 165 q 264 142 239 142 q 299 153 290 142 q 311 204 308 165 q 314 354 314 243 q 311 504 314 465 q 299 555 308 543 q 264 567 290 567 q 229 555 239 567 q 217 503 219 543 q 214 354 214 463 z "},"ø":{"ha":529,"x_min":35,"x_max":493,"o":"m 79 50 q 43 156 51 88 q 35 354 35 224 q 49 585 35 513 q 111 689 64 658 q 264 719 158 719 q 310 715 289 719 l 333 785 l 493 785 l 450 658 q 485 552 476 621 q 493 354 493 483 q 479 122 493 194 q 418 19 465 50 q 264 -11 371 -11 q 219 -7 239 -11 l 196 -76 l 35 -76 l 79 50 m 264 142 q 299 153 290 142 q 311 204 308 165 q 314 354 314 243 q 311 504 314 465 q 299 555 308 543 q 264 567 290 567 q 229 555 239 567 q 217 503 219 543 q 214 354 214 463 q 217 206 214 246 q 229 153 219 165 q 264 142 239 142 z "},"ǿ":{"ha":529,"x_min":35,"x_max":493,"o":"m 79 50 q 43 156 51 88 q 35 354 35 224 q 49 585 35 513 q 111 689 64 658 q 264 719 158 719 q 310 715 289 719 l 333 785 l 493 785 l 450 658 q 485 552 476 621 q 493 354 493 483 q 479 122 493 194 q 418 19 465 50 q 264 -11 371 -11 q 219 -7 239 -11 l 196 -76 l 35 -76 l 79 50 m 264 142 q 299 153 290 142 q 311 204 308 165 q 314 354 314 243 q 311 504 314 465 q 299 555 308 543 q 264 567 290 567 q 229 555 239 567 q 217 503 219 543 q 214 354 214 463 q 217 206 214 246 q 229 153 219 165 q 264 142 239 142 m 186 828 l 186 835 l 236 1032 l 411 1032 l 411 1025 l 333 828 l 186 828 z "},"õ":{"ha":529,"x_min":35,"x_max":493,"o":"m 264 -11 q 111 19 158 -11 q 49 123 64 50 q 35 354 35 196 q 49 585 35 513 q 111 689 64 658 q 264 719 158 719 q 418 689 371 719 q 479 586 465 658 q 493 354 493 514 q 479 122 493 194 q 418 19 465 50 q 264 -11 371 -11 m 264 142 q 299 153 290 142 q 311 204 308 165 q 314 354 314 243 q 311 504 314 465 q 299 555 308 543 q 264 567 290 567 q 229 555 239 567 q 217 503 219 543 q 214 354 214 463 q 217 206 214 246 q 229 153 219 165 q 264 142 239 142 m 461 1032 q 456 926 461 961 q 431 872 451 892 q 365 851 411 851 q 258 872 326 851 q 230 881 249 875 q 199 888 211 888 q 182 877 185 888 q 179 836 179 867 l 71 836 q 76 941 71 906 q 103 996 82 976 q 169 1015 124 1015 q 275 994 210 1015 q 335 982 319 982 q 351 992 349 982 q 354 1032 354 1001 l 461 1032 z "},"œ":{"ha":792,"x_min":35,"x_max":757,"o":"m 757 300 l 493 300 q 499 191 493 221 q 524 151 504 161 q 593 142 543 142 q 670 143 628 142 q 744 147 713 144 l 744 8 q 656 -6 711 0 q 551 -11 601 -11 q 468 -1 503 -11 q 408 31 433 8 q 264 -11 363 -11 q 111 19 158 -11 q 49 123 64 50 q 35 354 35 196 q 49 585 35 513 q 111 689 64 658 q 264 719 158 719 q 410 678 364 719 q 543 719 456 719 q 692 684 647 719 q 747 579 736 649 q 757 353 757 510 l 757 300 m 264 142 q 299 153 290 142 q 311 204 308 165 q 314 354 314 243 q 311 504 314 465 q 299 555 308 543 q 264 567 290 567 q 229 555 239 567 q 217 503 219 543 q 214 354 214 463 q 217 206 214 246 q 229 153 219 165 q 264 142 239 142 m 543 567 q 510 558 519 567 q 497 521 500 550 q 493 421 493 492 l 590 421 l 590 425 q 587 522 590 494 q 574 558 583 550 q 543 567 565 567 z "},"p":{"ha":542,"x_min":47,"x_max":507,"o":"m 47 708 l 219 708 l 225 626 l 236 626 q 280 698 247 676 q 353 719 313 719 q 447 689 414 719 q 493 581 479 658 q 507 354 507 503 q 494 133 507 211 q 449 22 482 56 q 356 -11 417 -11 q 239 75 261 -11 l 226 75 l 226 -275 l 47 -275 l 47 708 m 278 151 q 313 162 303 151 q 325 211 322 172 q 328 354 328 250 q 325 497 328 458 q 313 547 322 536 q 278 557 303 557 q 247 549 257 557 q 231 513 236 540 q 226 354 226 474 q 231 203 226 232 q 247 161 236 171 q 278 151 257 151 z "},"þ":{"ha":542,"x_min":47,"x_max":507,"o":"m 47 1032 l 226 1032 l 226 629 l 239 629 q 280 698 249 676 q 353 719 311 719 q 447 689 414 719 q 493 581 479 658 q 507 354 507 503 q 494 133 507 211 q 449 22 482 56 q 356 -11 417 -11 q 239 75 261 -11 l 226 75 l 226 -262 l 47 -262 l 47 1032 m 278 151 q 313 162 303 151 q 325 211 322 172 q 328 354 328 250 q 325 497 328 458 q 313 547 322 536 q 278 557 303 557 q 246 547 256 557 q 231 501 236 536 q 226 354 226 458 q 229 214 226 258 q 245 163 235 174 q 278 151 256 151 z "},"q":{"ha":542,"x_min":35,"x_max":494,"o":"m 315 75 l 303 75 q 186 -11 282 -11 q 92 22 125 -11 q 47 133 60 56 q 35 354 35 211 q 49 581 35 503 q 95 689 63 658 q 189 719 128 719 q 262 698 229 719 q 306 626 294 676 l 317 626 l 322 708 l 494 708 l 494 -275 l 315 -275 l 315 75 m 264 151 q 294 160 283 151 q 310 193 304 168 q 315 354 315 238 q 310 517 315 474 q 294 549 304 542 q 264 557 285 557 q 229 547 239 557 q 217 497 219 536 q 214 354 214 458 q 217 211 214 250 q 229 162 219 172 q 264 151 239 151 z "},"r":{"ha":386,"x_min":47,"x_max":374,"o":"m 47 708 l 219 708 l 225 594 l 236 594 q 288 692 256 664 q 374 719 319 719 l 374 526 q 263 488 299 526 q 226 342 226 450 l 226 0 l 47 0 l 47 708 z "},"ŕ":{"ha":386,"x_min":47,"x_max":374,"o":"m 47 708 l 219 708 l 225 594 l 236 594 q 288 692 256 664 q 374 719 319 719 l 374 526 q 263 488 299 526 q 226 342 226 450 l 226 0 l 47 0 l 47 708 m 117 828 l 117 835 l 167 1032 l 342 1032 l 342 1025 l 264 828 l 117 828 z "},"ř":{"ha":386,"x_min":11,"x_max":376,"o":"m 47 708 l 219 708 l 225 594 l 236 594 q 288 692 256 664 q 374 719 319 719 l 374 526 q 263 488 299 526 q 226 342 226 450 l 226 0 l 47 0 l 47 708 m 104 858 l 11 1021 l 11 1032 l 135 1032 l 193 944 l 253 1032 l 376 1032 l 376 1021 l 282 858 l 104 858 z "},"ŗ":{"ha":386,"x_min":47,"x_max":374,"o":"m 47 708 l 219 708 l 225 594 l 236 594 q 288 692 256 664 q 374 719 319 719 l 374 526 q 263 488 299 526 q 226 342 226 450 l 226 0 l 47 0 l 47 708 m 49 -310 q 103 -296 90 -310 q 117 -243 117 -282 l 117 -224 l 49 -224 l 49 -86 l 232 -86 l 232 -172 q 219 -308 232 -264 q 169 -372 207 -353 q 49 -390 131 -390 l 49 -310 z "},"ȑ":{"ha":386,"x_min":-17,"x_max":374,"o":"m 47 708 l 219 708 l 225 594 l 236 594 q 288 692 256 664 q 374 719 319 719 l 374 526 q 263 488 299 526 q 226 342 226 450 l 226 0 l 47 0 l 47 708 m 165 850 l 44 850 l -17 1006 l -17 1011 l 126 1011 l 165 856 l 165 850 m 343 850 l 222 850 l 161 1006 l 161 1011 l 304 1011 l 343 856 l 343 850 z "},"ṛ":{"ha":386,"x_min":39,"x_max":374,"o":"m 47 708 l 219 708 l 225 594 l 236 594 q 288 692 256 664 q 374 719 319 719 l 374 526 q 263 488 299 526 q 226 342 226 450 l 226 0 l 47 0 l 47 708 m 39 -271 l 39 -86 l 233 -86 l 233 -271 l 39 -271 z "},"ȓ":{"ha":386,"x_min":24,"x_max":374,"o":"m 47 708 l 219 708 l 225 594 l 236 594 q 288 692 256 664 q 374 719 319 719 l 374 526 q 263 488 299 526 q 226 342 226 450 l 226 0 l 47 0 l 47 708 m 24 858 q 36 957 24 918 q 86 1018 49 996 q 196 1040 124 1040 q 304 1018 267 1040 q 354 957 342 996 q 367 858 367 918 l 254 858 q 244 917 254 900 q 196 935 235 935 q 145 917 156 935 q 135 858 135 899 l 24 858 z "},"s":{"ha":438,"x_min":21,"x_max":419,"o":"m 217 -11 q 122 -4 174 -11 q 35 13 71 3 l 35 150 q 161 142 107 142 q 226 154 207 142 q 244 207 244 167 q 241 251 244 238 q 229 269 238 264 q 199 279 221 275 l 106 299 q 41 353 61 307 q 21 504 21 399 q 74 668 21 617 q 229 719 126 719 q 315 713 269 719 q 388 697 360 707 l 388 557 q 269 567 322 567 q 214 555 228 567 q 200 507 200 543 q 202 465 200 478 q 211 449 204 453 q 236 440 218 444 l 313 424 q 367 402 344 418 q 404 344 389 386 q 419 224 419 301 q 370 40 419 92 q 217 -11 321 -11 z "},"ś":{"ha":438,"x_min":21,"x_max":419,"o":"m 217 -11 q 122 -4 174 -11 q 35 13 71 3 l 35 150 q 161 142 107 142 q 226 154 207 142 q 244 207 244 167 q 241 251 244 238 q 229 269 238 264 q 199 279 221 275 l 106 299 q 41 353 61 307 q 21 504 21 399 q 74 668 21 617 q 229 719 126 719 q 315 713 269 719 q 388 697 360 707 l 388 557 q 269 567 322 567 q 214 555 228 567 q 200 507 200 543 q 202 465 200 478 q 211 449 204 453 q 236 440 218 444 l 313 424 q 367 402 344 418 q 404 344 389 386 q 419 224 419 301 q 370 40 419 92 q 217 -11 321 -11 m 142 828 l 142 835 l 192 1032 l 367 1032 l 367 1025 l 289 828 l 142 828 z "},"ꞌ":{"ha":225,"x_min":28,"x_max":197,"o":"m 28 368 l 28 1032 l 197 1032 l 197 726 l 160 368 l 28 368 z "},"š":{"ha":438,"x_min":21,"x_max":419,"o":"m 217 -11 q 122 -4 174 -11 q 35 13 71 3 l 35 150 q 161 142 107 142 q 226 154 207 142 q 244 207 244 167 q 241 251 244 238 q 229 269 238 264 q 199 279 221 275 l 106 299 q 41 353 61 307 q 21 504 21 399 q 74 668 21 617 q 229 719 126 719 q 315 713 269 719 q 388 697 360 707 l 388 557 q 269 567 322 567 q 214 555 228 567 q 200 507 200 543 q 202 465 200 478 q 211 449 204 453 q 236 440 218 444 l 313 424 q 367 402 344 418 q 404 344 389 386 q 419 224 419 301 q 370 40 419 92 q 217 -11 321 -11 m 133 858 l 40 1021 l 40 1032 l 164 1032 l 222 944 l 282 1032 l 406 1032 l 406 1021 l 311 858 l 133 858 z "},"ş":{"ha":438,"x_min":21,"x_max":419,"o":"m 419 224 q 385 59 419 113 q 278 -7 350 6 l 231 -261 l 79 -261 l 79 -254 l 158 -8 q 35 13 90 -1 l 35 150 q 161 142 107 142 q 226 154 207 142 q 244 207 244 167 q 241 251 244 238 q 229 269 238 264 q 199 279 221 275 l 106 299 q 41 353 61 307 q 21 504 21 399 q 74 668 21 617 q 229 719 126 719 q 315 713 269 719 q 388 697 360 707 l 388 557 q 269 567 322 567 q 214 555 228 567 q 200 507 200 543 q 202 465 200 478 q 211 449 204 453 q 236 440 218 444 l 313 424 q 367 402 344 418 q 404 344 389 386 q 419 224 419 301 z "},"ŝ":{"ha":438,"x_min":21,"x_max":419,"o":"m 217 -11 q 122 -4 174 -11 q 35 13 71 3 l 35 150 q 161 142 107 142 q 226 154 207 142 q 244 207 244 167 q 241 251 244 238 q 229 269 238 264 q 199 279 221 275 l 106 299 q 41 353 61 307 q 21 504 21 399 q 74 668 21 617 q 229 719 126 719 q 315 713 269 719 q 388 697 360 707 l 388 557 q 269 567 322 567 q 214 555 228 567 q 200 507 200 543 q 202 465 200 478 q 211 449 204 453 q 236 440 218 444 l 313 424 q 367 402 344 418 q 404 344 389 386 q 419 224 419 301 q 370 40 419 92 q 217 -11 321 -11 m 36 858 l 36 869 l 129 1032 l 307 1032 l 401 869 l 401 858 l 278 858 l 218 946 l 160 858 l 36 858 z "},"ș":{"ha":438,"x_min":21,"x_max":419,"o":"m 217 -11 q 122 -4 174 -11 q 35 13 71 3 l 35 150 q 161 142 107 142 q 226 154 207 142 q 244 207 244 167 q 241 251 244 238 q 229 269 238 264 q 199 279 221 275 l 106 299 q 41 353 61 307 q 21 504 21 399 q 74 668 21 617 q 229 719 126 719 q 315 713 269 719 q 388 697 360 707 l 388 557 q 269 567 322 567 q 214 555 228 567 q 200 507 200 543 q 202 465 200 478 q 211 449 204 453 q 236 440 218 444 l 313 424 q 367 402 344 418 q 404 344 389 386 q 419 224 419 301 q 370 40 419 92 q 217 -11 321 -11 m 131 -310 q 185 -296 172 -310 q 199 -243 199 -282 l 199 -224 l 131 -224 l 131 -86 l 314 -86 l 314 -172 q 301 -308 314 -264 q 251 -372 289 -353 q 131 -390 213 -390 l 131 -310 z "},"ṣ":{"ha":438,"x_min":21,"x_max":419,"o":"m 217 -11 q 122 -4 174 -11 q 35 13 71 3 l 35 150 q 161 142 107 142 q 226 154 207 142 q 244 207 244 167 q 241 251 244 238 q 229 269 238 264 q 199 279 221 275 l 106 299 q 41 353 61 307 q 21 504 21 399 q 74 668 21 617 q 229 719 126 719 q 315 713 269 719 q 388 697 360 707 l 388 557 q 269 567 322 567 q 214 555 228 567 q 200 507 200 543 q 202 465 200 478 q 211 449 204 453 q 236 440 218 444 l 313 424 q 367 402 344 418 q 404 344 389 386 q 419 224 419 301 q 370 40 419 92 q 217 -11 321 -11 m 121 -271 l 121 -86 l 315 -86 l 315 -271 l 121 -271 z "},"ß":{"ha":547,"x_min":47,"x_max":513,"o":"m 276 0 l 276 153 l 283 153 q 318 164 308 153 q 331 215 328 175 q 333 360 333 254 q 330 484 333 447 q 317 532 326 521 q 283 543 307 543 l 276 543 l 276 696 l 283 696 q 312 702 303 696 q 324 728 321 708 q 326 793 326 749 q 322 855 326 835 q 307 882 317 875 q 278 889 297 889 q 245 880 256 889 q 231 843 235 871 q 226 753 226 815 l 226 0 l 47 0 l 47 751 q 68 918 47 856 q 140 1011 89 981 q 278 1042 190 1042 q 453 990 399 1042 q 507 821 507 938 q 479 690 507 736 q 392 629 451 643 l 392 624 q 484 544 456 607 q 513 346 513 482 q 497 147 513 219 q 433 38 481 75 q 294 0 386 0 l 276 0 z "},"ſ":{"ha":360,"x_min":15,"x_max":356,"o":"m 83 556 l 15 556 l 15 708 l 83 708 l 83 739 q 103 938 83 879 q 176 1015 122 997 q 356 1032 229 1032 l 356 899 q 293 892 311 899 q 269 863 275 886 q 263 785 263 840 l 263 0 l 83 0 l 83 556 z "},"t":{"ha":369,"x_min":15,"x_max":356,"o":"m 83 0 l 83 556 l 15 556 l 15 708 l 83 708 l 83 914 l 263 914 l 263 708 l 356 708 l 356 556 l 263 556 l 263 0 l 83 0 z "},"ŧ":{"ha":369,"x_min":15,"x_max":356,"o":"m 356 556 l 263 556 l 263 444 l 354 444 l 354 292 l 263 292 l 263 0 l 83 0 l 83 292 l 17 292 l 17 444 l 83 444 l 83 556 l 15 556 l 15 708 l 83 708 l 83 914 l 263 914 l 263 708 l 356 708 l 356 556 z "},"ť":{"ha":536,"x_min":15,"x_max":588,"o":"m 83 0 l 83 556 l 15 556 l 15 708 l 83 708 l 83 914 l 263 914 l 263 708 l 356 708 l 356 556 l 263 556 l 263 0 l 83 0 m 397 590 l 418 888 l 418 956 l 588 956 l 588 888 l 529 590 l 397 590 z "},"ţ":{"ha":369,"x_min":15,"x_max":356,"o":"m 263 708 l 356 708 l 356 556 l 263 556 l 263 0 l 231 0 l 183 -261 l 32 -261 l 32 -254 l 114 0 l 83 0 l 83 556 l 15 556 l 15 708 l 83 708 l 83 914 l 263 914 l 263 708 z "},"ț":{"ha":369,"x_min":15,"x_max":356,"o":"m 83 0 l 83 556 l 15 556 l 15 708 l 83 708 l 83 914 l 263 914 l 263 708 l 356 708 l 356 556 l 263 556 l 263 0 l 83 0 m 83 -310 q 138 -296 125 -310 q 151 -243 151 -282 l 151 -224 l 83 -224 l 83 -86 l 267 -86 l 267 -172 q 254 -308 267 -264 q 203 -372 242 -353 q 83 -390 165 -390 l 83 -310 z "},"ṭ":{"ha":369,"x_min":15,"x_max":356,"o":"m 83 0 l 83 556 l 15 556 l 15 708 l 83 708 l 83 914 l 263 914 l 263 708 l 356 708 l 356 556 l 263 556 l 263 0 l 83 0 m 74 -271 l 74 -86 l 268 -86 l 268 -271 l 74 -271 z "},"u":{"ha":546,"x_min":44,"x_max":497,"o":"m 321 82 l 308 82 q 178 -11 282 -11 q 92 13 121 -11 q 54 88 64 38 q 44 232 44 139 l 44 708 l 224 708 l 224 321 q 226 201 224 233 q 238 160 229 168 q 269 151 246 151 q 304 165 294 151 q 316 215 314 178 q 318 356 318 253 l 318 708 l 497 708 l 497 0 l 326 0 l 321 82 z "},"ú":{"ha":546,"x_min":44,"x_max":497,"o":"m 321 82 l 308 82 q 178 -11 282 -11 q 92 13 121 -11 q 54 88 64 38 q 44 232 44 139 l 44 708 l 224 708 l 224 321 q 226 201 224 233 q 238 160 229 168 q 269 151 246 151 q 304 165 294 151 q 316 215 314 178 q 318 356 318 253 l 318 708 l 497 708 l 497 0 l 326 0 l 321 82 m 192 828 l 192 835 l 242 1032 l 417 1032 l 417 1025 l 339 828 l 192 828 z "},"ŭ":{"ha":546,"x_min":44,"x_max":497,"o":"m 321 82 l 308 82 q 178 -11 282 -11 q 92 13 121 -11 q 54 88 64 38 q 44 232 44 139 l 44 708 l 224 708 l 224 321 q 226 201 224 233 q 238 160 229 168 q 269 151 246 151 q 304 165 294 151 q 316 215 314 178 q 318 356 318 253 l 318 708 l 497 708 l 497 0 l 326 0 l 321 82 m 443 1032 q 431 933 443 972 q 381 872 418 894 q 271 850 343 850 q 163 872 200 850 q 113 933 125 894 q 100 1032 100 972 l 213 1032 q 222 973 213 990 q 271 956 232 956 q 322 974 311 956 q 332 1032 332 992 l 443 1032 z "},"ǔ":{"ha":546,"x_min":44,"x_max":497,"o":"m 321 82 l 308 82 q 178 -11 282 -11 q 92 13 121 -11 q 54 88 64 38 q 44 232 44 139 l 44 708 l 224 708 l 224 321 q 226 201 224 233 q 238 160 229 168 q 269 151 246 151 q 304 165 294 151 q 316 215 314 178 q 318 356 318 253 l 318 708 l 497 708 l 497 0 l 326 0 l 321 82 m 182 858 l 89 1021 l 89 1032 l 213 1032 l 271 944 l 331 1032 l 454 1032 l 454 1021 l 360 858 l 182 858 z "},"û":{"ha":546,"x_min":44,"x_max":497,"o":"m 321 82 l 308 82 q 178 -11 282 -11 q 92 13 121 -11 q 54 88 64 38 q 44 232 44 139 l 44 708 l 224 708 l 224 321 q 226 201 224 233 q 238 160 229 168 q 269 151 246 151 q 304 165 294 151 q 316 215 314 178 q 318 356 318 253 l 318 708 l 497 708 l 497 0 l 326 0 l 321 82 m 89 858 l 89 869 l 182 1032 l 360 1032 l 454 869 l 454 858 l 331 858 l 271 946 l 213 858 l 89 858 z "},"ȕ":{"ha":546,"x_min":44,"x_max":497,"o":"m 321 82 l 308 82 q 178 -11 282 -11 q 92 13 121 -11 q 54 88 64 38 q 44 232 44 139 l 44 708 l 224 708 l 224 321 q 226 201 224 233 q 238 160 229 168 q 269 151 246 151 q 304 165 294 151 q 316 215 314 178 q 318 356 318 253 l 318 708 l 497 708 l 497 0 l 326 0 l 321 82 m 243 850 l 122 850 l 61 1006 l 61 1011 l 204 1011 l 243 856 l 243 850 m 421 850 l 300 850 l 239 1006 l 239 1011 l 382 1011 l 421 856 l 421 850 z "},"ü":{"ha":546,"x_min":44,"x_max":497,"o":"m 321 82 l 308 82 q 178 -11 282 -11 q 92 13 121 -11 q 54 88 64 38 q 44 232 44 139 l 44 708 l 224 708 l 224 321 q 226 201 224 233 q 238 160 229 168 q 269 151 246 151 q 304 165 294 151 q 316 215 314 178 q 318 356 318 253 l 318 708 l 497 708 l 497 0 l 326 0 l 321 82 m 82 869 l 82 1014 l 236 1014 l 236 869 l 82 869 m 308 869 l 308 1014 l 463 1014 l 463 869 l 308 869 z "},"ǘ":{"ha":546,"x_min":44,"x_max":497,"o":"m 321 82 l 308 82 q 178 -11 282 -11 q 92 13 121 -11 q 54 88 64 38 q 44 232 44 139 l 44 708 l 224 708 l 224 321 q 226 201 224 233 q 238 160 229 168 q 269 151 246 151 q 304 165 294 151 q 316 215 314 178 q 318 356 318 253 l 318 708 l 497 708 l 497 0 l 326 0 l 321 82 m 82 869 l 82 1014 l 236 1014 l 236 869 l 82 869 m 308 869 l 308 1014 l 463 1014 l 463 869 l 308 869 m 197 1050 l 197 1057 l 247 1254 l 422 1254 l 422 1247 l 344 1050 l 197 1050 z "},"ǚ":{"ha":546,"x_min":44,"x_max":497,"o":"m 321 82 l 308 82 q 178 -11 282 -11 q 92 13 121 -11 q 54 88 64 38 q 44 232 44 139 l 44 708 l 224 708 l 224 321 q 226 201 224 233 q 238 160 229 168 q 269 151 246 151 q 304 165 294 151 q 316 215 314 178 q 318 356 318 253 l 318 708 l 497 708 l 497 0 l 326 0 l 321 82 m 82 869 l 82 1014 l 236 1014 l 236 869 l 82 869 m 308 869 l 308 1014 l 463 1014 l 463 869 l 308 869 m 185 1081 l 92 1243 l 92 1254 l 215 1254 l 274 1167 l 333 1254 l 457 1254 l 457 1243 l 363 1081 l 185 1081 z "},"ǜ":{"ha":546,"x_min":44,"x_max":497,"o":"m 321 82 l 308 82 q 178 -11 282 -11 q 92 13 121 -11 q 54 88 64 38 q 44 232 44 139 l 44 708 l 224 708 l 224 321 q 226 201 224 233 q 238 160 229 168 q 269 151 246 151 q 304 165 294 151 q 316 215 314 178 q 318 356 318 253 l 318 708 l 497 708 l 497 0 l 326 0 l 321 82 m 82 869 l 82 1014 l 236 1014 l 236 869 l 82 869 m 308 869 l 308 1014 l 463 1014 l 463 869 l 308 869 m 199 1050 l 121 1247 l 121 1254 l 296 1254 l 346 1057 l 346 1050 l 199 1050 z "},"ǖ":{"ha":546,"x_min":44,"x_max":497,"o":"m 321 82 l 308 82 q 178 -11 282 -11 q 92 13 121 -11 q 54 88 64 38 q 44 232 44 139 l 44 708 l 224 708 l 224 321 q 226 201 224 233 q 238 160 229 168 q 269 151 246 151 q 304 165 294 151 q 316 215 314 178 q 318 356 318 253 l 318 708 l 497 708 l 497 0 l 326 0 l 321 82 m 82 869 l 82 1014 l 236 1014 l 236 869 l 82 869 m 308 869 l 308 1014 l 463 1014 l 463 869 l 308 869 m 153 1090 l 153 1254 l 397 1254 l 397 1090 l 153 1090 z "},"ụ":{"ha":546,"x_min":44,"x_max":497,"o":"m 321 82 l 308 82 q 178 -11 282 -11 q 92 13 121 -11 q 54 88 64 38 q 44 232 44 139 l 44 708 l 224 708 l 224 321 q 226 201 224 233 q 238 160 229 168 q 269 151 246 151 q 304 165 294 151 q 316 215 314 178 q 318 356 318 253 l 318 708 l 497 708 l 497 0 l 326 0 l 321 82 m 172 -271 l 172 -86 l 367 -86 l 367 -271 l 172 -271 z "},"ù":{"ha":546,"x_min":44,"x_max":497,"o":"m 321 82 l 308 82 q 178 -11 282 -11 q 92 13 121 -11 q 54 88 64 38 q 44 232 44 139 l 44 708 l 224 708 l 224 321 q 226 201 224 233 q 238 160 229 168 q 269 151 246 151 q 304 165 294 151 q 316 215 314 178 q 318 356 318 253 l 318 708 l 497 708 l 497 0 l 326 0 l 321 82 m 206 828 l 128 1025 l 128 1032 l 303 1032 l 353 835 l 353 828 l 206 828 z "},"ủ":{"ha":546,"x_min":44,"x_max":497,"o":"m 321 82 l 308 82 q 178 -11 282 -11 q 92 13 121 -11 q 54 88 64 38 q 44 232 44 139 l 44 708 l 224 708 l 224 321 q 226 201 224 233 q 238 160 229 168 q 269 151 246 151 q 304 165 294 151 q 316 215 314 178 q 318 356 318 253 l 318 708 l 497 708 l 497 0 l 326 0 l 321 82 m 175 889 q 185 933 175 918 q 221 957 194 949 l 235 963 q 289 984 276 976 q 301 1007 301 992 q 291 1024 301 1021 q 247 1028 281 1028 q 111 1026 158 1028 l 111 1126 q 268 1146 208 1146 q 390 1124 349 1146 q 432 1036 432 1103 q 428 981 432 1000 q 411 947 425 961 q 367 919 397 932 l 351 913 q 306 892 318 899 q 292 878 294 886 q 289 853 289 871 l 175 853 l 175 889 z "},"ư":{"ha":546,"x_min":44,"x_max":575,"o":"m 575 833 l 575 808 q 560 688 575 725 q 497 638 546 651 l 497 0 l 326 0 l 321 82 l 308 82 q 178 -11 282 -11 q 92 13 121 -11 q 54 88 64 38 q 44 232 44 139 l 44 708 l 224 708 l 224 321 q 226 201 224 233 q 238 160 229 168 q 269 151 246 151 q 304 165 294 151 q 316 215 314 178 q 318 356 318 253 l 318 708 l 390 708 q 446 724 432 708 q 460 785 460 740 l 460 833 l 575 833 z "},"ứ":{"ha":546,"x_min":44,"x_max":575,"o":"m 575 833 l 575 808 q 560 688 575 725 q 497 638 546 651 l 497 0 l 326 0 l 321 82 l 308 82 q 178 -11 282 -11 q 92 13 121 -11 q 54 88 64 38 q 44 232 44 139 l 44 708 l 224 708 l 224 321 q 226 201 224 233 q 238 160 229 168 q 269 151 246 151 q 304 165 294 151 q 316 215 314 178 q 318 356 318 253 l 318 708 l 390 708 q 446 724 432 708 q 460 785 460 740 l 460 833 l 575 833 m 194 828 l 194 835 l 244 1032 l 419 1032 l 419 1025 l 342 828 l 194 828 z "},"ự":{"ha":546,"x_min":44,"x_max":575,"o":"m 575 833 l 575 808 q 560 688 575 725 q 497 638 546 651 l 497 0 l 326 0 l 321 82 l 308 82 q 178 -11 282 -11 q 92 13 121 -11 q 54 88 64 38 q 44 232 44 139 l 44 708 l 224 708 l 224 321 q 226 201 224 233 q 238 160 229 168 q 269 151 246 151 q 304 165 294 151 q 316 215 314 178 q 318 356 318 253 l 318 708 l 390 708 q 446 724 432 708 q 460 785 460 740 l 460 833 l 575 833 m 172 -271 l 172 -86 l 367 -86 l 367 -271 l 172 -271 z "},"ừ":{"ha":546,"x_min":44,"x_max":575,"o":"m 575 833 l 575 808 q 560 688 575 725 q 497 638 546 651 l 497 0 l 326 0 l 321 82 l 308 82 q 178 -11 282 -11 q 92 13 121 -11 q 54 88 64 38 q 44 232 44 139 l 44 708 l 224 708 l 224 321 q 226 201 224 233 q 238 160 229 168 q 269 151 246 151 q 304 165 294 151 q 316 215 314 178 q 318 356 318 253 l 318 708 l 390 708 q 446 724 432 708 q 460 785 460 740 l 460 833 l 575 833 m 196 828 l 118 1025 l 118 1032 l 293 1032 l 343 835 l 343 828 l 196 828 z "},"ử":{"ha":546,"x_min":44,"x_max":575,"o":"m 575 833 l 575 808 q 560 688 575 725 q 497 638 546 651 l 497 0 l 326 0 l 321 82 l 308 82 q 178 -11 282 -11 q 92 13 121 -11 q 54 88 64 38 q 44 232 44 139 l 44 708 l 224 708 l 224 321 q 226 201 224 233 q 238 160 229 168 q 269 151 246 151 q 304 165 294 151 q 316 215 314 178 q 318 356 318 253 l 318 708 l 390 708 q 446 724 432 708 q 460 785 460 740 l 460 833 l 575 833 m 175 889 q 185 933 175 918 q 221 957 194 949 l 235 963 q 289 984 276 976 q 301 1007 301 992 q 291 1024 301 1021 q 247 1028 281 1028 q 111 1026 158 1028 l 111 1126 q 268 1146 208 1146 q 390 1124 349 1146 q 432 1036 432 1103 q 428 981 432 1000 q 411 947 425 961 q 367 919 397 932 l 351 913 q 306 892 318 899 q 292 878 294 886 q 289 853 289 871 l 175 853 l 175 889 z "},"ữ":{"ha":546,"x_min":44,"x_max":575,"o":"m 575 833 l 575 808 q 560 688 575 725 q 497 638 546 651 l 497 0 l 326 0 l 321 82 l 308 82 q 178 -11 282 -11 q 92 13 121 -11 q 54 88 64 38 q 44 232 44 139 l 44 708 l 224 708 l 224 321 q 226 201 224 233 q 238 160 229 168 q 269 151 246 151 q 304 165 294 151 q 316 215 314 178 q 318 356 318 253 l 318 708 l 390 708 q 446 724 432 708 q 460 785 460 740 l 460 833 l 575 833 m 467 1032 q 462 926 467 961 q 437 872 457 892 q 371 851 417 851 q 264 872 332 851 q 235 881 254 875 q 204 888 217 888 q 188 877 190 888 q 185 836 185 867 l 76 836 q 82 941 76 906 q 108 996 88 976 q 175 1015 129 1015 q 281 994 215 1015 q 340 982 325 982 q 357 992 354 982 q 360 1032 360 1001 l 467 1032 z "},"ű":{"ha":546,"x_min":44,"x_max":497,"o":"m 321 82 l 308 82 q 178 -11 282 -11 q 92 13 121 -11 q 54 88 64 38 q 44 232 44 139 l 44 708 l 224 708 l 224 321 q 226 201 224 233 q 238 160 229 168 q 269 151 246 151 q 304 165 294 151 q 316 215 314 178 q 318 356 318 253 l 318 708 l 497 708 l 497 0 l 326 0 l 321 82 m 135 850 l 135 856 l 174 1011 l 317 1011 l 317 1006 l 256 850 l 135 850 m 313 850 l 313 856 l 351 1011 l 494 1011 l 494 1006 l 433 850 l 313 850 z "},"ȗ":{"ha":546,"x_min":44,"x_max":497,"o":"m 321 82 l 308 82 q 178 -11 282 -11 q 92 13 121 -11 q 54 88 64 38 q 44 232 44 139 l 44 708 l 224 708 l 224 321 q 226 201 224 233 q 238 160 229 168 q 269 151 246 151 q 304 165 294 151 q 316 215 314 178 q 318 356 318 253 l 318 708 l 497 708 l 497 0 l 326 0 l 321 82 m 101 858 q 114 957 101 918 q 164 1018 126 996 q 274 1040 201 1040 q 382 1018 344 1040 q 432 957 419 996 q 444 858 444 918 l 332 858 q 322 917 332 900 q 274 935 313 935 q 223 917 233 935 q 213 858 213 899 l 101 858 z "},"ū":{"ha":546,"x_min":44,"x_max":497,"o":"m 321 82 l 308 82 q 178 -11 282 -11 q 92 13 121 -11 q 54 88 64 38 q 44 232 44 139 l 44 708 l 224 708 l 224 321 q 226 201 224 233 q 238 160 229 168 q 269 151 246 151 q 304 165 294 151 q 316 215 314 178 q 318 356 318 253 l 318 708 l 497 708 l 497 0 l 326 0 l 321 82 m 150 868 l 150 1032 l 394 1032 l 394 868 l 150 868 z "},"ų":{"ha":546,"x_min":44,"x_max":497,"o":"m 497 0 q 447 -54 469 -21 q 424 -125 424 -87 q 472 -172 424 -172 l 488 -171 l 488 -267 q 421 -272 451 -272 q 319 -239 350 -272 q 288 -156 288 -206 q 372 0 288 -75 l 326 0 l 321 82 l 308 82 q 178 -11 282 -11 q 92 13 121 -11 q 54 88 64 38 q 44 232 44 139 l 44 708 l 224 708 l 224 321 q 226 201 224 233 q 238 160 229 168 q 269 151 246 151 q 304 165 294 151 q 316 215 314 178 q 318 356 318 253 l 318 708 l 497 708 l 497 0 z "},"ů":{"ha":546,"x_min":44,"x_max":497,"o":"m 321 82 l 308 82 q 178 -11 282 -11 q 92 13 121 -11 q 54 88 64 38 q 44 232 44 139 l 44 708 l 224 708 l 224 321 q 226 201 224 233 q 238 160 229 168 q 269 151 246 151 q 304 165 294 151 q 316 215 314 178 q 318 356 318 253 l 318 708 l 497 708 l 497 0 l 326 0 l 321 82 m 272 850 q 157 866 193 850 q 112 911 121 882 q 103 999 103 940 q 112 1088 103 1058 q 157 1133 121 1117 q 272 1149 193 1149 q 387 1133 351 1149 q 431 1088 422 1117 q 440 999 440 1058 q 431 911 440 940 q 387 866 422 882 q 272 850 351 850 m 272 943 q 308 948 297 943 q 321 963 318 953 q 324 999 324 974 q 321 1035 324 1025 q 308 1051 318 1046 q 272 1056 297 1056 q 235 1051 246 1056 q 223 1035 225 1046 q 221 999 221 1025 q 223 963 221 972 q 236 948 225 953 q 272 943 247 943 z "},"ũ":{"ha":546,"x_min":44,"x_max":497,"o":"m 321 82 l 308 82 q 178 -11 282 -11 q 92 13 121 -11 q 54 88 64 38 q 44 232 44 139 l 44 708 l 224 708 l 224 321 q 226 201 224 233 q 238 160 229 168 q 269 151 246 151 q 304 165 294 151 q 316 215 314 178 q 318 356 318 253 l 318 708 l 497 708 l 497 0 l 326 0 l 321 82 m 467 1032 q 462 926 467 961 q 437 872 457 892 q 371 851 417 851 q 264 872 332 851 q 235 881 254 875 q 204 888 217 888 q 188 877 190 888 q 185 836 185 867 l 76 836 q 82 941 76 906 q 108 996 88 976 q 175 1015 129 1015 q 281 994 215 1015 q 340 982 325 982 q 357 992 354 982 q 360 1032 360 1001 l 467 1032 z "},"v":{"ha":506,"x_min":6,"x_max":501,"o":"m 129 0 l 6 708 l 185 708 l 251 201 l 263 201 l 324 708 l 501 708 l 378 0 l 129 0 z "}}}
